ply
format ascii 1.0
comment Created by Blender 2.76 (sub 0) - www.blender.org, source file: ''
element vertex 36
property float x
property float y
property float z
element face 68
property list uchar uint vertex_indices
end_header
0.498106 -0.106799 -0.331858
0.498106 0.145873 -0.311506
0.493106 -0.115888 -0.182232
0.493106 0.136784 -0.161880
-0.001894 -0.154127 0.447834
-0.096894 -0.153666 0.439922
0.108106 -0.106799 -0.331858
0.463106 0.127694 -0.012253
0.108106 0.145873 -0.311506
-0.416894 -0.133109 0.101285
-0.351894 -0.140281 0.219439
-0.416894 0.119563 0.121637
-0.501894 0.145873 -0.311506
-0.501894 -0.106799 -0.331858
-0.491894 -0.115888 -0.182232
0.353106 -0.140281 0.219439
0.418106 0.119563 0.121637
0.353106 0.112391 0.239790
0.278106 0.106177 0.342164
0.278106 -0.146494 0.321812
-0.491894 0.136784 -0.161880
0.463106 -0.124978 -0.032561
-0.191894 -0.150790 0.392670
-0.191894 0.101882 0.413021
-0.276894 0.106177 0.342164
-0.461894 -0.124978 -0.032561
0.193106 0.101882 0.413021
0.193106 -0.150790 0.392670
-0.461894 0.127694 -0.012253
0.418106 -0.133109 0.101285
0.098106 -0.153666 0.439922
0.098106 0.099006 0.460274
-0.276894 -0.146494 0.321812
-0.001894 0.098507 0.468142
-0.096894 0.099006 0.460274
-0.351894 0.112391 0.239790
3 0 1 2
3 3 2 1
3 4 5 6
3 7 3 8
3 9 10 11
3 12 13 14
3 15 16 17
3 18 19 17
3 14 20 12
3 3 21 2
3 7 21 3
3 22 23 24
3 15 17 19
3 12 8 6
3 0 6 8
3 11 25 9
3 26 27 18
3 19 18 27
3 11 28 25
3 21 29 6
3 28 20 14
3 30 4 6
3 9 6 10
3 28 14 25
3 6 14 13
3 1 8 3
3 6 25 14
3 9 25 6
3 21 6 2
3 29 15 6
3 8 31 26
3 6 32 10
3 1 0 8
3 22 32 6
3 27 30 6
3 5 22 6
3 6 0 2
3 15 19 6
3 8 26 18
3 7 16 29
3 8 18 17
3 16 15 29
3 19 27 6
3 8 17 16
3 21 7 29
3 8 16 7
3 12 6 13
3 8 33 31
3 27 26 30
3 12 20 8
3 28 11 8
3 22 5 23
3 34 23 5
3 24 32 22
3 33 5 4
3 35 10 32
3 35 32 24
3 35 11 10
3 31 30 26
3 31 4 30
3 33 4 31
3 8 34 33
3 28 8 20
3 8 23 34
3 8 11 35
3 8 24 23
3 8 35 24
3 5 33 34
