ply
format ascii 1.0
comment Created by Blender 2.76 (sub 0) - www.blender.org, source file: ''
element vertex 614
property float x
property float y
property float z
element face 1224
property list uchar uint vertex_indices
end_header
0.206600 0.383000 -0.246200
0.293400 0.321400 -0.246200
0.246200 0.321400 -0.293400
0.484900 0.086800 0.085500
0.492400 -0.000000 0.086800
0.500000 -0.000000 0.000000
0.250000 -0.000000 0.433000
0.246200 -0.086800 0.426450
0.316500 -0.086800 0.377200
0.331700 0.250000 -0.278350
0.321400 -0.000000 0.383000
0.377200 -0.086800 0.316500
0.383000 -0.000000 0.321400
-0.462700 0.086800 0.168400
-0.433000 -0.000000 0.250000
-0.426450 0.086800 0.246200
-0.469850 -0.000000 0.171000
-0.426450 -0.086800 0.246200
-0.462700 -0.086800 0.168400
0.191500 0.321400 -0.331700
0.131000 0.321400 -0.359900
0.160700 0.383000 -0.278350
0.000000 0.086800 0.492400
0.086800 -0.000000 0.492400
0.085500 0.086800 0.484900
0.109900 0.383000 -0.302000
0.000000 -0.000000 0.500000
0.171000 -0.000000 0.469850
-0.029700 0.469850 0.168400
0.000000 0.433000 0.250000
0.000000 0.469850 0.171000
-0.043400 0.433000 0.246200
0.043400 0.433000 -0.246200
0.000000 0.383000 -0.321400
0.000000 0.433000 -0.250000
0.055800 0.383000 -0.316500
0.168400 0.086800 0.462700
-0.191500 0.433000 0.160700
-0.246200 0.383000 0.206600
-0.160700 0.433000 0.191500
-0.086800 -0.492400 0.000000
-0.171000 -0.469850 0.000000
-0.168400 -0.469850 -0.029700
0.000000 -0.086800 0.492400
0.085500 -0.086800 0.484900
0.066500 0.321400 -0.377200
0.168400 -0.086800 0.462700
0.000000 0.321400 -0.383000
-0.029700 -0.492400 0.081600
-0.058500 -0.469850 0.160700
-0.085500 -0.469850 0.148100
0.125000 0.433000 0.216500
0.206600 0.383000 0.246200
0.160700 0.433000 0.191500
-0.075200 -0.250000 -0.426450
-0.131000 -0.321400 -0.359900
-0.148100 -0.250000 -0.406900
0.131000 -0.469850 -0.109900
0.066500 -0.492400 -0.055800
0.109900 -0.469850 -0.131000
0.055800 -0.492400 -0.066500
-0.043400 -0.492400 0.075200
0.191500 0.433000 0.160700
0.246200 0.383000 0.206600
-0.015100 -0.492400 0.085500
0.043400 -0.492400 -0.075200
0.085500 -0.469850 -0.148100
0.075200 0.250000 -0.426450
0.492400 0.086800 0.000000
0.085500 0.433000 0.234900
0.160700 0.383000 0.278350
0.109900 0.383000 0.302000
0.469850 -0.000000 0.171000
0.484900 -0.086800 0.085500
0.492400 -0.086800 0.000000
-0.191500 -0.321400 -0.331700
0.055800 0.383000 0.316500
0.131000 0.321400 0.359900
0.191500 0.321400 0.331700
0.302000 0.383000 -0.109900
0.331700 0.321400 -0.191500
0.278350 0.383000 -0.160700
0.246200 0.383000 -0.206600
0.462700 -0.171000 0.081600
0.469850 -0.171000 0.000000
-0.359900 -0.171000 -0.302000
-0.302000 -0.171000 -0.359900
-0.331700 -0.250000 -0.278350
-0.085500 0.433000 0.234900
-0.055800 0.383000 0.316500
-0.216500 -0.250000 -0.375000
-0.160700 -0.171000 -0.441500
0.000000 0.383000 0.321400
-0.234900 -0.171000 -0.406900
0.066500 0.321400 0.377200
-0.278350 -0.250000 -0.331700
0.000000 0.321400 0.383000
-0.160700 0.383000 0.278350
-0.125000 0.433000 0.216500
-0.375000 -0.250000 -0.216500
-0.109900 0.383000 0.302000
-0.055800 0.383000 -0.316500
-0.131000 0.321400 0.359900
-0.043400 0.433000 -0.246200
0.246200 0.433000 -0.043400
0.234900 0.433000 -0.085500
0.316500 0.383000 -0.055800
0.216500 0.433000 -0.125000
-0.148100 -0.469850 0.085500
-0.066500 -0.492400 0.055800
-0.131000 -0.469850 0.109900
-0.109900 -0.469850 0.131000
-0.055800 -0.492400 0.066500
-0.246200 -0.321400 -0.293400
-0.109900 0.383000 -0.302000
-0.406900 -0.171000 -0.234900
-0.377200 -0.086800 -0.316500
-0.383000 -0.321400 0.000000
-0.321400 -0.383000 0.000000
-0.316500 -0.383000 0.055800
0.377200 0.321400 -0.066500
0.359900 0.321400 -0.131000
-0.377200 -0.321400 0.066500
0.406900 0.250000 -0.148100
-0.191500 0.321400 0.331700
-0.066500 0.321400 0.377200
-0.406900 -0.250000 -0.148100
-0.302000 -0.383000 0.109900
-0.359900 -0.321400 0.131000
-0.066500 0.321400 -0.377200
0.029700 -0.492400 -0.081600
-0.131000 0.321400 -0.359900
-0.359900 -0.321400 -0.131000
-0.191500 0.321400 -0.331700
-0.066500 -0.321400 -0.377200
0.000000 -0.250000 -0.433000
0.000000 -0.321400 -0.383000
-0.160700 0.383000 -0.278350
-0.278350 -0.383000 0.160700
-0.109900 -0.383000 -0.302000
0.160700 -0.171000 0.441500
0.234900 -0.171000 0.406900
-0.246200 -0.433000 0.043400
0.000000 -0.500000 0.000000
-0.055800 -0.383000 -0.316500
0.000000 -0.383000 -0.321400
0.081600 -0.171000 0.462700
0.000000 -0.171000 0.469850
-0.206600 0.383000 0.246200
0.075200 -0.250000 0.426450
-0.246200 0.321400 -0.293400
-0.206600 0.383000 -0.246200
-0.216500 -0.433000 0.125000
0.148100 -0.250000 0.406900
-0.160700 -0.383000 -0.278350
-0.278350 0.250000 -0.331700
-0.246200 0.321400 0.293400
-0.293400 0.321400 0.246200
-0.043400 -0.433000 -0.246200
-0.250000 -0.433000 0.000000
-0.216500 0.250000 0.375000
-0.234900 -0.433000 0.085500
0.000000 -0.433000 -0.250000
-0.331700 0.321400 0.191500
-0.331700 0.250000 0.278350
-0.085500 -0.433000 -0.234900
-0.375000 0.250000 0.216500
-0.029700 0.469850 -0.168400
-0.085500 0.433000 -0.234900
-0.058500 0.469850 -0.160700
0.375000 0.250000 -0.216500
0.426450 0.086800 0.246200
0.462700 0.086800 0.168400
0.433000 -0.000000 0.250000
0.000000 0.469850 -0.171000
-0.125000 -0.433000 -0.216500
0.000000 0.250000 0.433000
-0.160700 -0.433000 -0.191500
0.426450 -0.086800 0.246200
0.462700 -0.086800 0.168400
-0.029700 -0.469850 -0.168400
-0.125000 0.433000 -0.216500
-0.085500 0.469850 -0.148100
-0.075200 0.250000 0.426450
0.058500 0.469850 -0.160700
0.029700 0.469850 -0.168400
0.029700 0.492400 -0.081600
0.015100 0.492400 -0.085500
-0.160700 0.433000 -0.191500
-0.131000 0.469850 -0.109900
-0.109900 0.469850 -0.131000
-0.191500 0.433000 -0.160700
-0.293400 -0.321400 -0.246200
0.109900 0.469850 -0.131000
0.191500 0.433000 -0.160700
0.160700 0.433000 -0.191500
0.125000 0.433000 -0.216500
-0.206600 -0.383000 -0.246200
0.441500 -0.171000 0.160700
0.406900 -0.171000 0.234900
-0.246200 -0.383000 -0.206600
0.168400 0.086800 -0.462700
0.086800 -0.000000 -0.492400
0.085500 0.086800 -0.484900
0.171000 -0.000000 -0.469850
0.081600 0.171000 -0.462700
0.000000 0.086800 -0.492400
0.000000 0.171000 -0.469850
0.000000 -0.250000 0.433000
0.066500 -0.321400 0.377200
0.131000 -0.321400 0.359900
0.085500 0.433000 -0.234900
0.085500 0.469850 -0.148100
0.000000 -0.000000 -0.500000
0.000000 0.492400 -0.086800
-0.191500 -0.433000 0.160700
-0.015100 0.492400 -0.085500
-0.316500 -0.383000 -0.055800
-0.029700 0.492400 -0.081600
-0.043400 0.492400 -0.075200
-0.168400 -0.469850 0.029700
0.250000 -0.000000 -0.433000
0.168400 -0.086800 -0.462700
0.085500 -0.086800 -0.484900
-0.055800 0.492400 -0.066500
-0.066500 0.492400 -0.055800
0.000000 -0.086800 -0.492400
0.216500 -0.250000 0.375000
0.081600 -0.171000 -0.462700
0.000000 -0.171000 -0.469850
-0.148100 0.469850 -0.085500
0.406900 0.250000 0.148100
0.331700 0.321400 0.191500
0.375000 0.250000 0.216500
-0.075200 0.492400 -0.043400
-0.160700 0.469850 -0.058500
0.148100 0.469850 -0.085500
0.131000 0.469850 -0.109900
0.075200 0.492400 -0.043400
0.278350 0.250000 0.331700
0.302000 0.171000 0.359900
0.331700 0.250000 0.278350
0.359900 0.171000 0.302000
0.406900 0.171000 0.234900
-0.160700 -0.383000 0.278350
-0.109900 -0.383000 0.302000
-0.191500 -0.321400 0.331700
-0.131000 -0.321400 0.359900
0.278350 -0.250000 0.331700
0.000000 -0.321400 0.383000
-0.085500 0.086800 -0.484900
-0.216500 0.433000 -0.125000
-0.081600 0.171000 -0.462700
0.377200 0.086800 0.316500
0.316500 0.086800 0.377200
-0.234900 0.433000 -0.085500
0.109900 -0.383000 0.302000
-0.085500 -0.433000 0.234900
-0.086800 -0.000000 -0.492400
-0.246200 0.433000 -0.043400
-0.055800 -0.383000 0.316500
-0.168400 0.086800 -0.462700
-0.246200 0.383000 -0.206600
-0.278350 0.383000 -0.160700
-0.293400 0.321400 -0.246200
-0.171000 -0.000000 -0.469850
-0.331700 0.321400 -0.191500
-0.075200 0.250000 -0.426450
0.000000 0.250000 -0.433000
-0.250000 -0.000000 -0.433000
-0.359900 0.321400 -0.131000
0.302000 -0.171000 0.359900
-0.148100 0.250000 -0.406900
0.359900 -0.171000 0.302000
-0.085500 -0.086800 -0.484900
0.462700 -0.171000 -0.081600
0.000000 -0.433000 0.250000
0.000000 -0.383000 0.321400
-0.216500 0.250000 -0.375000
-0.160700 0.171000 -0.441500
-0.302000 0.383000 -0.109900
0.426450 -0.250000 0.075200
0.406900 -0.250000 0.148100
0.433000 -0.250000 0.000000
-0.206600 -0.383000 0.246200
-0.160700 -0.433000 0.191500
-0.125000 -0.433000 0.216500
-0.043400 -0.433000 0.246200
-0.316500 0.383000 -0.055800
0.000000 -0.469850 -0.171000
-0.058500 -0.469850 -0.160700
-0.331700 0.250000 -0.278350
-0.377200 0.321400 -0.066500
0.377200 -0.321400 0.066500
-0.085500 -0.469850 -0.148100
-0.302000 0.171000 -0.359900
-0.043400 -0.492400 -0.075200
0.383000 -0.321400 0.000000
0.377200 -0.321400 -0.066500
-0.029700 -0.469850 0.168400
-0.234900 0.171000 -0.406900
-0.316500 0.086800 -0.377200
-0.109900 -0.469850 -0.131000
0.331700 -0.250000 0.278350
0.375000 -0.250000 0.216500
-0.191500 -0.433000 -0.160700
-0.131000 -0.469850 -0.109900
-0.359900 0.171000 -0.302000
0.160700 0.469850 -0.058500
-0.148100 -0.469850 -0.085500
-0.246200 0.086800 -0.426450
-0.029700 -0.492400 -0.081600
-0.375000 0.250000 -0.216500
0.191500 -0.321400 0.331700
0.000000 0.500000 0.000000
-0.406900 0.250000 -0.148100
-0.168400 -0.086800 -0.462700
-0.426450 0.250000 -0.075200
0.293400 -0.321400 0.246200
0.246200 -0.321400 0.293400
-0.081600 0.492400 -0.029700
-0.462700 0.171000 -0.081600
-0.081600 -0.171000 -0.462700
0.426450 -0.250000 -0.075200
-0.085500 0.492400 -0.015100
-0.086800 0.492400 0.000000
0.359900 -0.321400 0.131000
-0.406900 0.171000 -0.234900
-0.171000 0.469850 0.000000
-0.246200 -0.086800 -0.426450
-0.085500 0.492400 0.015100
-0.055800 -0.492400 -0.066500
-0.081600 0.492400 0.029700
-0.075200 0.492400 0.043400
-0.066500 0.492400 0.055800
-0.015100 -0.492400 -0.085500
0.000000 -0.492400 -0.086800
-0.055800 0.492400 0.066500
0.278350 -0.383000 0.160700
0.234900 -0.433000 0.085500
0.302000 -0.383000 0.109900
0.331700 -0.321400 0.191500
0.316500 -0.383000 0.055800
0.426450 0.250000 -0.075200
0.462700 0.171000 -0.081600
0.441500 0.171000 -0.160700
-0.321400 -0.000000 -0.383000
0.321400 -0.383000 0.000000
0.462700 0.086800 -0.168400
-0.377200 0.086800 -0.316500
-0.066500 -0.492400 -0.055800
-0.168400 0.469850 0.029700
-0.075200 -0.492400 -0.043400
-0.383000 -0.000000 -0.321400
0.216500 -0.433000 0.125000
0.246200 -0.433000 0.043400
-0.160700 0.469850 0.058500
0.484900 0.086800 -0.085500
0.426450 0.086800 -0.246200
-0.316500 -0.086800 -0.377200
0.492400 -0.000000 -0.086800
-0.168400 0.469850 -0.029700
0.469850 -0.000000 -0.171000
0.433000 -0.000000 -0.250000
0.250000 -0.433000 0.000000
-0.246200 0.433000 0.043400
-0.160700 -0.469850 -0.058500
-0.216500 -0.433000 -0.125000
0.484900 -0.086800 -0.085500
-0.433000 0.250000 0.000000
0.000000 -0.469850 0.171000
0.462700 -0.086800 -0.168400
0.160700 -0.469850 0.058500
0.168400 -0.469850 0.029700
0.000000 -0.492400 0.086800
-0.043400 0.492400 0.075200
0.426450 -0.086800 -0.246200
-0.029700 0.492400 0.081600
-0.015100 0.492400 0.085500
0.171000 -0.469850 0.000000
0.377200 -0.086800 -0.316500
0.000000 0.492400 0.086800
-0.131000 0.469850 0.109900
-0.331700 -0.321400 -0.191500
-0.109900 0.469850 0.131000
-0.085500 0.469850 0.148100
0.441500 -0.171000 -0.160700
-0.058500 0.469850 0.160700
-0.331700 -0.321400 0.191500
-0.246200 -0.383000 0.206600
-0.293400 -0.321400 0.246200
-0.377200 -0.321400 -0.066500
-0.278350 -0.383000 -0.160700
0.278350 0.250000 -0.331700
-0.246200 -0.321400 0.293400
0.216500 0.250000 -0.375000
0.168400 -0.469850 -0.029700
-0.441500 0.171000 -0.160700
-0.148100 0.469850 0.085500
-0.462700 0.086800 -0.168400
0.302000 -0.171000 -0.359900
0.234900 -0.171000 -0.406900
0.316500 -0.086800 -0.377200
0.302000 0.171000 -0.359900
0.359900 0.171000 -0.302000
0.081600 -0.492400 0.029700
0.085500 -0.492400 0.015100
0.278350 -0.250000 -0.331700
0.216500 -0.250000 -0.375000
0.234900 0.171000 -0.406900
-0.216500 0.433000 0.125000
-0.302000 -0.383000 -0.109900
-0.234900 0.433000 0.085500
0.086800 -0.492400 0.000000
0.085500 -0.492400 -0.015100
-0.234900 -0.433000 -0.085500
0.316500 0.086800 -0.377200
0.359900 -0.171000 -0.302000
0.331700 -0.250000 -0.278350
-0.250000 0.433000 0.000000
-0.441500 -0.171000 0.160700
-0.406900 -0.171000 0.234900
-0.375000 -0.250000 0.216500
0.148100 0.250000 -0.406900
-0.316500 0.383000 0.055800
0.081600 -0.492400 -0.029700
0.246200 -0.321400 -0.293400
0.293400 -0.321400 -0.246200
-0.302000 0.383000 0.109900
0.160700 -0.171000 -0.441500
0.075200 -0.492400 0.043400
0.148100 -0.250000 -0.406900
-0.321400 0.383000 0.000000
0.160700 0.171000 -0.441500
0.075200 -0.250000 -0.426450
0.075200 -0.492400 -0.043400
-0.469850 -0.171000 0.000000
-0.426450 -0.250000 0.075200
-0.462700 -0.171000 0.081600
0.066500 -0.321400 -0.377200
-0.433000 -0.250000 0.000000
-0.406900 -0.250000 0.148100
0.015100 -0.492400 -0.085500
0.191500 -0.321400 -0.331700
0.131000 -0.321400 -0.359900
-0.383000 0.321400 0.000000
0.148100 -0.469850 0.085500
0.406900 -0.171000 -0.234900
0.406900 -0.250000 -0.148100
0.359900 -0.321400 -0.131000
0.066500 0.492400 -0.055800
0.055800 0.492400 -0.066500
0.015100 -0.492400 0.085500
0.375000 -0.250000 -0.216500
-0.278350 0.383000 0.160700
-0.148100 0.250000 0.406900
0.043400 0.492400 -0.075200
-0.160700 0.171000 0.441500
-0.081600 0.171000 0.462700
0.066500 -0.492400 0.055800
0.055800 -0.492400 0.066500
-0.377200 0.321400 0.066500
-0.278350 0.250000 0.331700
-0.234900 0.171000 0.406900
-0.359900 0.321400 0.131000
0.191500 -0.433000 0.160700
0.160700 -0.433000 0.191500
0.131000 -0.469850 0.109900
0.321400 0.383000 0.000000
0.250000 0.433000 0.000000
0.246200 0.433000 0.043400
-0.168400 0.086800 0.462700
-0.085500 0.086800 0.484900
-0.426450 0.086800 -0.246200
-0.246200 -0.433000 -0.043400
-0.406900 0.250000 0.148100
0.316500 0.383000 0.055800
-0.484900 0.086800 -0.085500
-0.469850 -0.000000 -0.171000
-0.492400 -0.000000 -0.086800
0.000000 0.171000 0.469850
0.331700 -0.321400 -0.191500
0.406900 0.171000 -0.234900
0.029700 -0.469850 0.168400
0.029700 -0.492400 0.081600
0.058500 -0.469850 0.160700
0.043400 -0.492400 0.075200
0.085500 -0.469850 0.148100
0.206600 -0.383000 -0.246200
0.109900 -0.469850 0.131000
0.377200 0.086800 -0.316500
0.160700 -0.383000 -0.278350
0.109900 -0.383000 -0.302000
0.246200 0.086800 -0.426450
-0.086800 -0.000000 0.492400
-0.171000 -0.000000 0.469850
0.383000 -0.000000 -0.321400
0.321400 -0.000000 -0.383000
0.206600 -0.383000 0.246200
-0.433000 -0.000000 -0.250000
0.246200 -0.383000 0.206600
0.055800 -0.383000 -0.316500
0.125000 -0.433000 -0.216500
0.246200 -0.086800 -0.426450
-0.426450 -0.086800 -0.246200
0.043400 -0.433000 -0.246200
0.055800 -0.383000 0.316500
-0.462700 -0.086800 -0.168400
0.085500 -0.433000 -0.234900
-0.484900 -0.086800 -0.085500
0.160700 -0.383000 0.278350
0.462700 0.171000 0.081600
0.426450 0.250000 0.075200
-0.250000 -0.000000 0.433000
-0.168400 -0.086800 0.462700
-0.085500 -0.086800 0.484900
-0.441500 -0.171000 -0.160700
0.302000 -0.383000 -0.109900
0.316500 -0.383000 -0.055800
0.125000 -0.433000 0.216500
0.383000 0.321400 0.000000
-0.426450 0.250000 0.075200
0.043400 -0.433000 0.246200
-0.302000 0.171000 0.359900
-0.246200 0.086800 0.426450
-0.316500 0.086800 0.377200
0.085500 -0.433000 0.234900
-0.321400 -0.000000 0.383000
0.433000 0.250000 0.000000
0.278350 -0.383000 -0.160700
0.148100 0.469850 0.085500
0.216500 0.433000 0.125000
0.234900 0.433000 0.085500
-0.383000 -0.000000 0.321400
-0.316500 -0.086800 0.377200
0.246200 -0.383000 -0.206600
-0.246200 -0.086800 0.426450
0.246200 -0.433000 -0.043400
0.278350 0.383000 0.160700
0.302000 0.383000 0.109900
0.234900 -0.433000 -0.085500
-0.234900 -0.171000 0.406900
0.216500 -0.433000 -0.125000
-0.160700 -0.171000 0.441500
0.377200 0.321400 0.066500
0.160700 -0.433000 -0.191500
0.191500 -0.433000 -0.160700
0.359900 0.321400 0.131000
-0.081600 -0.171000 0.462700
0.075200 0.250000 0.426450
0.148100 0.250000 0.406900
-0.406900 0.171000 0.234900
-0.359900 0.171000 0.302000
0.216500 0.250000 0.375000
-0.148100 -0.250000 0.406900
-0.216500 -0.250000 0.375000
0.081600 0.171000 0.462700
-0.075200 -0.250000 0.426450
0.160700 0.171000 0.441500
-0.066500 -0.321400 0.377200
0.234900 0.171000 0.406900
-0.377200 0.086800 0.316500
0.085500 0.492400 -0.015100
0.168400 0.469850 -0.029700
-0.377200 -0.086800 0.316500
0.441500 0.171000 0.160700
-0.359900 -0.171000 0.302000
-0.302000 -0.171000 0.359900
0.160700 0.469850 0.058500
0.168400 0.469850 0.029700
0.246200 0.086800 0.426450
0.171000 0.469850 0.000000
0.469850 0.171000 0.000000
-0.469850 0.171000 0.000000
-0.462700 0.171000 0.081600
0.058500 -0.469850 -0.160700
-0.441500 0.171000 0.160700
0.015100 0.492400 0.085500
0.029700 -0.469850 -0.168400
-0.462700 -0.171000 -0.081600
0.029700 0.492400 0.081600
0.043400 0.492400 0.075200
0.055800 0.492400 0.066500
0.066500 0.492400 0.055800
0.075200 0.492400 0.043400
0.081600 0.492400 0.029700
0.085500 0.492400 0.015100
0.086800 0.492400 0.000000
-0.426450 -0.250000 -0.075200
0.081600 0.492400 -0.029700
-0.492400 0.086800 0.000000
-0.484900 0.086800 0.085500
-0.492400 -0.000000 0.086800
0.160700 -0.469850 -0.058500
-0.500000 -0.000000 0.000000
0.148100 -0.469850 -0.085500
-0.492400 -0.086800 0.000000
-0.484900 -0.086800 0.085500
-0.331700 -0.250000 0.278350
-0.278350 -0.250000 0.331700
0.109900 0.469850 0.131000
0.131000 0.469850 0.109900
-0.081600 -0.492400 -0.029700
-0.085500 -0.492400 -0.015100
-0.085500 -0.492400 0.015100
-0.081600 -0.492400 0.029700
-0.075200 -0.492400 0.043400
0.058500 0.469850 0.160700
0.085500 0.469850 0.148100
-0.160700 -0.469850 0.058500
0.246200 0.321400 0.293400
0.293400 0.321400 0.246200
0.029700 0.469850 0.168400
0.043400 0.433000 0.246200
3 0 1 2
3 3 4 5
3 6 7 8
3 1 9 2
3 6 8 10
3 11 12 8
3 13 14 15
3 16 17 14
3 16 18 17
3 19 20 21
3 22 23 24
3 25 21 20
3 26 23 22
3 24 23 27
3 28 29 30
3 28 31 29
3 32 33 34
3 35 33 32
3 24 27 36
3 2 19 0
3 37 38 39
3 0 19 21
3 40 41 42
3 26 43 44
3 25 45 35
3 26 44 23
3 27 23 46
3 20 45 25
3 23 44 46
3 45 47 35
3 35 47 33
3 48 49 50
3 51 52 53
3 54 55 56
3 57 58 59
3 60 59 58
3 50 61 48
3 62 53 63
3 49 48 64
3 65 66 59
3 59 60 65
3 67 45 20
3 3 5 68
3 69 70 51
3 69 71 70
3 52 51 70
3 72 73 4
3 4 74 5
3 56 55 75
3 4 73 74
3 76 77 71
3 71 77 78
3 79 80 81
3 81 1 82
3 1 81 80
3 1 0 82
3 71 78 70
3 73 83 84
3 84 74 73
3 85 86 87
3 88 89 31
3 56 90 91
3 31 92 29
3 31 89 92
3 91 90 93
3 92 94 76
3 93 95 86
3 94 92 96
3 90 95 93
3 94 77 76
3 97 98 39
3 95 87 86
3 87 99 85
3 100 98 97
3 34 33 101
3 97 102 100
3 34 101 103
3 104 79 105
3 106 79 104
3 98 100 88
3 105 81 107
3 56 75 90
3 100 89 88
3 79 81 105
3 81 82 107
3 108 109 110
3 110 109 111
3 112 111 109
3 95 113 87
3 111 61 50
3 101 114 103
3 112 61 111
3 85 115 116
3 117 118 119
3 120 121 106
3 117 119 122
3 120 123 121
3 102 97 124
3 89 100 125
3 99 115 85
3 106 121 79
3 121 80 79
3 99 126 115
3 89 125 96
3 122 127 128
3 33 129 101
3 65 130 66
3 119 127 122
3 33 47 129
3 129 131 101
3 126 99 132
3 101 131 114
3 131 133 114
3 134 135 136
3 114 133 137
3 89 96 92
3 135 134 54
3 134 55 54
3 127 138 128
3 134 139 55
3 46 140 141
3 118 142 119
3 7 46 141
3 143 130 65
3 144 136 145
3 43 146 44
3 134 136 144
3 147 146 43
3 44 146 140
3 144 139 134
3 38 148 39
3 149 146 147
3 137 150 151
3 152 138 127
3 146 149 153
3 97 39 148
3 133 150 137
3 146 153 140
3 55 154 75
3 44 140 46
3 139 154 55
3 155 150 133
3 148 38 156
3 157 156 38
3 156 124 148
3 145 158 144
3 118 159 142
3 156 160 124
3 142 161 119
3 148 124 97
3 162 158 145
3 163 164 157
3 165 144 158
3 166 164 163
3 167 168 169
3 170 80 121
3 171 72 172
3 171 173 72
3 165 139 144
3 172 72 4
3 103 174 34
3 154 139 175
3 102 125 100
3 103 167 174
3 125 176 96
3 175 177 154
3 168 167 103
3 173 178 179
3 103 114 168
3 162 180 158
3 169 181 182
3 125 183 176
3 184 185 186
3 168 181 169
3 173 179 72
3 185 174 187
3 72 179 73
3 181 188 182
3 75 113 90
3 189 190 191
3 90 113 95
3 192 87 113
3 193 194 195
3 193 195 196
3 168 137 181
3 154 197 75
3 114 137 168
3 179 178 198
3 137 151 181
3 75 197 113
3 178 199 198
3 192 113 200
3 197 200 113
3 201 202 203
3 181 151 188
3 73 179 83
3 204 202 201
3 179 198 83
3 205 206 207
3 208 149 147
3 203 206 205
3 161 127 119
3 149 209 210
3 161 152 127
3 196 211 212
3 202 213 203
3 196 25 211
3 214 174 167
3 212 211 184
3 152 215 138
3 184 32 185
3 214 167 216
3 203 213 206
3 167 169 216
3 211 32 184
3 217 159 118
3 216 169 218
3 185 34 174
3 218 182 219
3 159 220 142
3 32 34 185
3 169 182 218
3 221 222 204
3 222 223 204
3 219 190 224
3 82 0 194
3 195 194 0
3 182 190 219
3 224 190 225
3 196 195 21
3 204 223 202
3 189 225 190
3 202 226 213
3 140 153 227
3 223 226 202
3 0 21 195
3 222 228 223
3 21 25 196
3 182 188 190
3 161 108 152
3 108 110 152
3 228 229 223
3 152 110 215
3 25 35 211
3 211 35 32
3 225 189 230
3 223 229 226
3 231 232 233
3 225 230 234
3 230 235 234
3 236 237 238
3 228 135 229
3 239 240 241
3 242 241 240
3 241 243 233
3 140 227 141
3 241 242 243
3 244 245 246
3 246 245 247
3 141 227 248
3 208 249 209
3 188 191 190
3 207 206 250
3 189 191 251
3 207 250 252
3 208 209 149
3 230 189 251
3 242 240 253
3 254 253 240
3 242 171 243
3 251 255 230
3 209 256 210
3 244 257 245
3 235 230 255
3 206 258 250
3 153 149 210
3 255 259 235
3 245 260 247
3 250 261 252
3 188 151 191
3 262 191 151
3 242 253 171
3 262 263 191
3 253 254 12
3 10 12 254
3 253 12 173
3 258 206 213
3 262 151 264
3 258 265 250
3 150 264 151
3 173 12 178
3 264 266 262
3 253 173 171
3 10 8 12
3 262 266 263
3 267 129 47
3 250 265 261
3 47 268 267
3 265 269 261
3 178 12 11
3 266 270 263
3 8 271 11
3 131 129 272
3 11 273 199
3 178 11 199
3 267 272 129
3 226 274 213
3 84 275 74
3 165 175 139
3 260 276 277
3 272 278 131
3 279 272 267
3 263 280 251
3 251 280 255
3 198 281 83
3 131 278 133
3 198 282 281
3 83 281 283
3 284 285 286
3 215 110 285
3 133 278 155
3 268 207 252
3 83 283 84
3 251 191 263
3 252 267 268
3 284 286 244
3 280 263 270
3 252 279 267
3 286 257 244
3 287 260 245
3 280 288 255
3 252 261 279
3 257 287 245
3 255 288 259
3 276 260 287
3 162 289 180
3 165 158 290
3 264 150 291
3 111 285 110
3 280 292 288
3 281 282 293
3 180 290 158
3 155 291 150
3 290 294 165
3 285 50 286
3 280 270 292
3 50 285 111
3 155 295 291
3 290 296 294
3 286 49 257
3 283 297 298
3 50 49 286
3 165 294 175
3 257 49 299
3 272 300 278
3 271 8 7
3 7 141 271
3 279 300 272
3 300 295 278
3 257 299 287
3 273 11 271
3 300 301 295
3 175 302 177
3 278 295 155
3 273 303 304
3 273 304 199
3 177 302 305
3 306 305 302
3 307 291 295
3 308 107 236
3 306 309 305
3 105 107 308
3 236 194 237
3 141 248 271
3 194 236 107
3 279 310 300
3 261 310 279
3 273 271 303
3 248 303 271
3 194 193 237
3 300 310 301
3 180 311 290
3 193 196 212
3 301 307 295
3 311 296 290
3 107 82 194
3 282 198 199
3 199 304 282
3 291 312 264
3 227 153 313
3 264 312 266
3 216 314 214
3 270 266 315
3 216 218 314
3 258 213 274
3 266 312 315
3 265 258 316
3 218 219 314
3 274 316 258
3 219 224 314
3 224 225 314
3 317 270 315
3 225 234 314
3 318 303 319
3 234 320 314
3 315 321 317
3 226 322 274
3 84 323 275
3 320 324 314
3 324 325 314
3 323 84 283
3 229 322 226
3 322 91 274
3 304 326 282
3 291 327 312
3 322 56 91
3 234 235 320
3 316 274 91
3 307 327 291
3 282 326 293
3 91 93 316
3 281 297 283
3 324 328 325
3 281 293 297
3 316 93 329
3 325 330 314
3 296 331 294
3 229 54 322
3 330 332 314
3 135 54 229
3 332 333 314
3 54 56 322
3 333 334 314
3 289 335 180
3 335 289 336
3 334 337 314
3 338 339 340
3 340 326 341
3 311 180 335
3 326 340 342
3 343 344 345
3 310 346 301
3 326 342 293
3 269 346 310
3 347 297 293
3 344 348 345
3 301 349 307
3 347 293 342
3 306 302 350
3 328 351 325
3 261 269 310
3 350 352 306
3 349 301 353
3 346 353 301
3 339 338 354
3 325 351 330
3 340 355 342
3 351 356 330
3 340 339 355
3 348 344 357
3 329 269 265
3 330 356 332
3 345 348 358
3 265 316 329
3 329 359 269
3 360 357 68
3 175 294 302
3 269 359 346
3 68 5 360
3 320 361 324
3 359 116 353
3 359 353 346
3 357 360 362
3 235 361 320
3 361 328 324
3 357 362 348
3 348 362 363
3 329 86 359
3 342 355 364
3 328 365 351
3 93 86 329
3 116 359 85
3 348 363 358
3 309 366 367
3 86 85 359
3 364 347 342
3 5 74 368
3 292 270 317
3 5 368 360
3 317 369 292
3 294 331 302
3 287 299 370
3 362 360 371
3 331 350 302
3 360 368 371
3 339 372 373
3 309 306 352
3 299 64 374
3 314 337 375
3 362 376 363
3 299 374 370
3 375 377 314
3 287 370 276
3 339 373 355
3 362 371 376
3 377 378 314
3 299 49 64
3 379 364 355
3 380 363 376
3 378 381 314
3 333 382 334
3 383 99 87
3 382 384 334
3 337 384 385
3 383 87 192
3 275 368 74
3 368 275 386
3 383 132 99
3 337 385 375
3 375 385 387
3 368 386 371
3 388 389 390
3 375 387 377
3 126 132 391
3 377 28 378
3 379 355 373
3 377 387 28
3 9 1 80
3 138 388 128
3 378 30 381
3 378 28 30
3 138 389 388
3 192 392 383
3 393 2 9
3 389 284 394
3 389 394 390
3 393 395 2
3 396 364 379
3 394 244 246
3 385 98 88
3 312 327 397
3 385 88 387
3 2 395 19
3 387 31 28
3 397 315 312
3 387 88 31
3 315 397 321
3 332 398 333
3 327 399 397
3 356 398 332
3 400 401 402
3 393 9 403
3 404 403 9
3 398 382 333
3 372 405 406
3 407 408 400
3 400 408 401
3 393 409 395
3 337 334 384
3 244 394 284
3 393 403 409
3 372 406 373
3 138 215 389
3 192 200 392
3 215 285 389
3 356 410 398
3 392 411 383
3 284 389 285
3 412 410 356
3 413 379 373
3 398 37 382
3 379 414 396
3 392 415 411
3 379 413 414
3 39 382 37
3 384 382 39
3 384 39 98
3 416 403 404
3 385 384 98
3 373 406 413
3 417 418 400
3 407 400 418
3 419 365 328
3 420 421 18
3 420 422 421
3 423 20 19
3 419 424 365
3 396 414 425
3 18 421 17
3 407 418 426
3 427 426 418
3 395 423 19
3 423 67 20
3 424 428 365
3 259 361 235
3 361 419 328
3 67 268 45
3 429 228 222
3 143 405 430
3 361 259 419
3 401 431 429
3 67 207 268
3 143 406 405
3 419 432 424
3 408 431 401
3 45 268 47
3 143 413 406
3 409 433 395
3 143 414 413
3 434 228 429
3 143 425 414
3 431 434 429
3 135 228 434
3 395 433 423
3 435 425 143
3 436 437 438
3 423 433 205
3 143 58 435
3 434 136 135
3 433 409 201
3 439 136 434
3 143 60 58
3 436 440 437
3 432 419 259
3 201 203 433
3 441 438 437
3 143 65 60
3 433 203 205
3 259 288 432
3 383 411 132
3 67 423 205
3 411 217 132
3 442 130 143
3 437 128 441
3 407 443 408
3 143 336 442
3 205 207 67
3 443 444 408
3 288 292 445
3 408 444 431
3 431 439 434
3 288 445 432
3 405 446 430
3 369 445 292
3 371 386 447
3 365 412 351
3 122 128 437
3 447 376 371
3 417 376 447
3 351 412 356
3 448 275 323
3 449 448 323
3 238 237 450
3 386 275 448
3 410 37 398
3 451 450 193
3 143 452 374
3 453 386 448
3 428 412 365
3 237 193 450
3 212 451 193
3 412 454 410
3 386 453 447
3 447 418 417
3 183 102 455
3 456 451 212
3 447 453 418
3 428 454 412
3 454 38 410
3 455 457 458
3 459 460 143
3 212 184 456
3 455 458 183
3 143 430 459
3 183 125 102
3 456 184 186
3 186 185 187
3 410 38 37
3 174 214 187
3 432 461 424
3 445 461 432
3 132 217 391
3 160 462 463
3 464 424 461
3 391 118 117
3 217 118 391
3 160 463 457
3 197 154 177
3 465 466 467
3 424 464 428
3 354 465 446
3 464 163 428
3 465 467 446
3 455 160 457
3 354 372 339
3 367 392 200
3 468 469 470
3 469 468 106
3 354 446 372
3 469 106 104
3 457 471 472
3 457 472 458
3 428 163 454
3 367 415 392
3 454 157 38
3 473 327 307
3 454 163 157
3 411 474 217
3 430 446 467
3 415 474 411
3 349 473 307
3 405 372 446
3 461 475 464
3 327 473 399
3 200 197 305
3 177 305 197
3 468 470 476
3 305 367 200
3 309 367 305
3 399 477 397
3 399 473 478
3 399 479 477
3 183 480 176
3 123 120 343
3 183 458 480
3 159 217 474
3 121 123 170
3 448 481 453
3 123 482 170
3 80 170 9
3 123 343 345
3 483 452 484
3 471 457 463
3 485 484 486
3 426 443 407
3 345 482 123
3 404 170 482
3 458 22 480
3 485 486 487
3 427 488 426
3 487 486 460
3 170 404 9
3 487 460 489
3 345 358 482
3 467 489 459
3 460 459 489
3 467 459 430
3 490 482 358
3 22 458 472
3 482 490 404
3 484 452 143
3 490 416 404
3 443 491 492
3 143 486 484
3 443 492 444
3 403 493 409
3 143 460 486
3 471 494 472
3 227 313 319
3 471 495 494
3 416 493 403
3 444 439 431
3 472 494 26
3 319 248 227
3 409 493 201
3 494 43 26
3 248 319 303
3 341 304 303
3 472 26 22
3 303 318 341
3 426 491 443
3 326 304 341
3 496 490 358
3 397 477 321
3 488 491 426
3 358 363 496
3 496 497 416
3 313 498 319
3 353 499 349
3 498 500 318
3 498 318 319
3 416 490 496
3 341 318 338
3 497 221 416
3 349 499 473
3 318 500 338
3 341 338 340
3 444 492 501
3 416 221 493
3 499 478 473
3 493 204 201
3 444 501 439
3 204 493 221
3 439 145 136
3 479 399 478
3 500 465 354
3 439 501 145
3 500 354 338
3 380 496 363
3 497 496 402
3 380 402 496
3 488 502 491
3 497 503 221
3 353 504 499
3 153 210 313
3 402 503 497
3 492 505 501
3 503 222 221
3 116 504 353
3 249 277 506
3 504 507 499
3 505 492 508
3 505 162 501
3 209 249 506
3 499 507 478
3 376 417 380
3 507 509 478
3 209 506 256
3 400 402 417
3 380 417 402
3 210 510 313
3 501 162 145
3 210 256 510
3 479 478 509
3 401 503 402
3 313 510 498
3 503 429 222
3 503 401 429
3 231 511 512
3 513 514 495
3 495 514 515
3 507 504 516
3 323 283 298
3 515 494 495
3 449 323 298
3 298 517 449
3 43 494 515
3 298 518 517
3 106 468 120
3 256 519 510
3 468 520 120
3 521 461 445
3 466 498 510
3 445 369 521
3 481 448 449
3 465 500 466
3 427 453 481
3 506 277 522
3 476 520 468
3 461 521 475
3 523 524 463
3 522 277 276
3 427 418 453
3 523 525 524
3 526 506 522
3 297 347 518
3 471 463 524
3 120 520 343
3 518 298 297
3 525 527 513
3 520 528 343
3 256 506 526
3 519 256 526
3 525 513 524
3 524 495 471
3 529 481 449
3 530 531 532
3 495 524 513
3 475 166 464
3 449 517 529
3 527 533 534
3 481 529 535
3 536 513 527
3 166 163 464
3 510 519 466
3 536 527 534
3 157 164 156
3 535 427 481
3 513 536 514
3 498 466 500
3 535 488 427
3 462 156 164
3 537 518 347
3 160 156 462
3 483 522 276
3 276 370 483
3 462 523 463
3 531 538 539
3 485 526 522
3 540 517 518
3 536 534 541
3 522 483 485
3 542 529 517
3 531 539 532
3 526 485 487
3 536 543 514
3 124 455 102
3 532 539 476
3 519 526 487
3 536 541 543
3 124 160 455
3 544 476 539
3 519 487 489
3 532 476 470
3 545 488 546
3 535 546 488
3 519 489 466
3 488 545 502
3 366 415 367
3 489 467 466
3 538 547 539
3 370 452 483
3 366 42 415
3 547 538 232
3 474 415 42
3 370 374 452
3 483 484 485
3 537 347 364
3 544 539 547
3 548 515 514
3 518 537 540
3 42 41 474
3 549 94 96
3 544 520 476
3 474 41 159
3 96 176 549
3 514 543 548
3 232 231 547
3 550 77 94
3 515 548 147
3 231 512 547
3 475 551 166
3 517 540 542
3 547 512 544
3 550 94 549
3 544 512 528
3 551 552 166
3 515 147 43
3 553 77 550
3 544 528 520
3 553 78 77
3 529 546 535
3 541 554 543
3 166 552 164
3 553 239 78
3 541 555 554
3 529 542 546
3 176 480 556
3 462 164 523
3 552 523 164
3 557 548 543
3 364 396 537
3 176 556 549
3 543 554 557
3 558 550 549
3 549 556 558
3 548 557 208
3 559 557 554
3 550 560 553
3 548 208 147
3 558 560 550
3 553 560 240
3 552 561 523
3 553 240 239
3 551 561 552
3 554 247 559
3 22 24 480
3 525 523 561
3 557 249 208
3 24 556 480
3 15 533 561
3 557 559 249
3 14 533 15
3 562 563 308
3 556 36 558
3 247 260 559
3 561 533 525
3 527 525 533
3 556 24 36
3 17 564 14
3 559 277 249
3 260 277 559
3 533 14 564
3 233 243 565
3 564 534 533
3 564 17 566
3 565 231 233
3 566 567 564
3 254 240 560
3 565 511 231
3 568 470 569
3 491 508 492
3 570 560 558
3 502 508 491
3 469 571 569
3 570 558 36
3 512 572 528
3 369 573 574
3 470 469 569
3 560 570 254
3 57 59 546
3 545 546 59
3 469 104 571
3 512 511 572
3 545 66 502
3 528 572 344
3 545 59 66
3 571 104 563
3 369 574 521
3 502 575 508
3 36 27 6
3 105 563 104
3 475 521 576
3 116 115 504
3 574 576 521
3 563 105 308
3 66 575 502
3 6 570 36
3 475 576 551
3 570 10 254
3 577 314 381
3 575 578 508
3 115 516 504
3 573 369 317
3 570 6 10
3 509 507 579
3 580 314 577
3 317 321 573
3 581 314 580
3 582 314 581
3 7 6 27
3 516 579 507
3 583 314 582
3 579 436 509
3 27 46 7
3 584 314 583
3 505 508 578
3 585 314 584
3 578 289 505
3 586 314 585
3 578 575 442
3 115 126 516
3 314 586 587
3 587 562 314
3 588 579 516
3 562 589 314
3 505 289 162
3 126 588 516
3 589 238 314
3 588 440 579
3 238 450 314
3 590 591 573
3 450 451 314
3 117 440 588
3 66 130 575
3 391 117 588
3 451 456 314
3 579 440 436
3 456 186 314
3 588 126 391
3 130 442 575
3 186 187 314
3 573 591 574
3 13 576 574
3 214 314 187
3 591 13 574
3 441 420 438
3 442 336 578
3 321 590 573
3 441 422 420
3 586 571 587
3 440 117 122
3 587 571 563
3 578 336 289
3 590 321 477
3 592 591 590
3 437 440 122
3 540 537 593
3 528 344 343
3 587 563 562
3 594 592 590
3 308 589 562
3 396 593 537
3 243 171 172
3 441 388 422
3 593 595 540
3 589 236 238
3 128 388 441
3 308 236 589
3 565 243 172
3 477 479 594
3 172 3 565
3 511 565 3
3 540 595 542
3 477 594 590
3 595 57 542
3 594 596 597
3 511 68 572
3 511 3 68
3 17 421 566
3 595 435 58
3 58 57 595
3 68 357 572
3 534 564 567
3 357 344 572
3 567 541 534
3 546 542 57
3 594 597 592
3 172 4 3
3 597 18 592
3 421 598 566
3 422 598 421
3 596 594 479
3 396 425 593
3 479 509 596
3 566 598 567
3 599 567 598
3 593 425 435
3 597 596 438
3 567 599 555
3 595 593 435
3 436 438 596
3 438 420 597
3 567 555 541
3 18 597 420
3 584 568 585
3 509 436 596
3 585 569 586
3 585 568 569
3 576 15 551
3 13 15 576
3 388 390 422
3 15 561 551
3 592 16 591
3 422 390 598
3 586 569 571
3 591 16 13
3 599 598 394
3 390 394 598
3 16 14 13
3 592 18 16
3 599 246 555
3 246 599 394
3 600 53 601
3 555 246 247
3 554 555 247
3 530 568 584
3 309 602 366
3 352 602 309
3 62 601 53
3 366 602 603
3 601 62 531
3 62 538 531
3 531 530 601
3 42 603 40
3 530 532 568
3 532 470 568
3 40 143 604
3 52 63 53
3 143 605 604
3 143 606 605
3 538 62 63
3 143 61 112
3 143 48 61
3 336 143 335
3 143 311 335
3 143 296 311
3 143 331 296
3 577 607 580
3 580 608 581
3 143 350 331
3 580 607 608
3 143 352 350
3 581 600 582
3 608 600 581
3 143 602 352
3 582 600 583
3 143 603 602
3 143 40 603
3 601 583 600
3 41 604 220
3 583 601 530
3 40 604 41
3 583 530 584
3 609 220 605
3 51 608 607
3 604 605 220
3 608 53 600
3 605 606 609
3 608 51 53
3 609 606 108
3 108 606 109
3 610 52 70
3 70 78 610
3 610 611 63
3 63 52 610
3 63 611 232
3 241 611 610
3 538 63 232
3 143 109 606
3 78 239 610
3 143 112 109
3 239 241 610
3 611 241 233
3 611 233 232
3 143 64 48
3 64 143 374
3 612 381 30
3 30 29 613
3 41 220 159
3 30 613 612
3 161 142 609
3 381 612 577
3 612 607 577
3 142 220 609
3 609 108 161
3 29 92 76
3 613 29 76
3 366 603 42
3 612 613 69
3 613 71 69
3 613 76 71
3 69 607 612
3 607 69 51
