ply
format ascii 1.0
comment Created by Blender 2.76 (sub 0) - www.blender.org, source file: ''
element vertex 717
property float x
property float y
property float z
element face 1430
property list uchar uint vertex_indices
end_header
-0.131000 0.550160 -0.109899
-0.109900 0.550160 -0.130999
-0.161850 0.539027 -0.135849
-0.135850 0.539027 -0.161849
-0.000000 -0.429740 -0.499999
-0.000000 -0.429740 0.500001
-0.154500 -0.429740 -0.475549
-0.293900 -0.429740 -0.404499
0.154500 -0.429740 -0.475549
0.293900 -0.429740 -0.404499
0.404500 -0.429740 -0.293899
0.475550 -0.429740 -0.154499
-0.183000 0.539027 -0.105649
-0.154500 -0.429740 0.475551
-0.293900 -0.429740 0.404501
-0.404500 -0.429740 0.293901
-0.475550 -0.429740 0.154501
-0.500000 -0.429740 0.000001
-0.475550 -0.429740 -0.154499
-0.404500 -0.429740 -0.293899
0.500000 -0.429740 0.000001
0.475550 -0.429740 0.154501
0.404500 -0.429740 0.293901
0.293900 -0.429740 0.404501
0.154500 -0.429740 0.475551
0.184350 0.509993 -0.219699
0.246200 0.492260 -0.206599
0.206600 0.492260 -0.246199
0.270850 0.472627 -0.227249
0.227250 0.472627 -0.270849
-0.160700 0.525593 -0.191499
-0.015100 0.565193 -0.085499
-0.044250 0.558893 -0.121599
-0.029700 0.565193 -0.081599
-0.075200 0.565193 0.043401
-0.099150 0.558893 0.083201
-0.066500 0.565193 0.055801
-0.112050 0.558893 0.064701
0.331700 0.403593 -0.278349
0.278350 0.403593 -0.331699
0.263250 0.428127 -0.313749
0.216500 0.403593 -0.374999
-0.055800 0.565193 0.066501
-0.083200 0.558893 0.099151
-0.064700 0.558893 0.112051
0.204800 0.428127 -0.354699
-0.000000 0.377793 0.453151
0.081600 0.350927 0.462701
0.078700 0.377793 0.446251
-0.000000 0.350927 0.469851
-0.043400 0.565193 0.075201
0.160700 0.350927 0.441501
0.165200 0.323193 0.453851
0.155000 0.377793 0.425851
-0.044250 0.558893 0.121601
-0.029700 0.565193 0.081601
-0.022450 0.558893 0.127451
-0.015100 0.565193 0.085501
0.083850 0.323193 0.475651
-0.000000 0.323193 0.482951
0.226600 0.377793 0.392451
0.234900 0.350927 0.406901
0.302000 0.350927 0.359901
-0.064700 0.558893 -0.112049
-0.043400 0.565193 -0.075199
-0.083200 0.558893 -0.099149
-0.055800 0.565193 -0.066499
0.291300 0.377793 0.347151
-0.066500 0.565193 -0.055799
-0.099150 0.558893 -0.083199
0.168400 0.294793 0.462701
-0.112050 0.558893 -0.064699
0.310450 0.323193 0.369951
0.369950 0.323193 0.310451
0.359900 0.350927 0.302001
-0.000000 0.294793 0.492401
0.085500 0.294793 0.484901
0.086500 0.265993 0.490551
0.316500 0.294793 0.377201
0.377200 0.294793 0.316501
-0.148100 0.550160 -0.085499
-0.000000 0.265993 0.498101
0.170350 0.265993 0.468051
0.086800 0.236927 0.492401
0.320150 0.265993 0.381551
0.381550 0.265993 0.320151
-0.127450 0.558893 0.022451
-0.160700 0.550160 0.058501
-0.121600 0.558893 0.044251
-0.168400 0.550160 0.029701
-0.148100 0.550160 0.085501
-0.148100 0.403593 -0.406899
-0.216500 0.403593 -0.374999
-0.140100 0.428127 -0.384899
-0.204800 0.428127 -0.354699
-0.263250 0.428127 -0.313749
-0.191500 0.451193 -0.331699
-0.007550 0.568993 -0.042899
0.321400 0.236927 0.383001
0.249050 0.265993 0.431351
-0.014900 0.568993 -0.040949
-0.000000 0.236927 0.500001
0.383000 0.236927 0.321401
0.171000 0.236927 0.469851
-0.071100 0.428127 -0.403349
0.142807 0.236927 0.477401
0.159796 0.236927 0.472851
-0.021800 0.568993 -0.037749
-0.028000 0.568993 -0.033399
0.301381 0.236927 0.397019
0.282135 0.236927 0.410497
-0.033400 0.568993 -0.027999
-0.208100 0.539027 0.036701
-0.198550 0.539027 0.072251
-0.278350 0.403593 -0.331699
-0.037750 0.568993 -0.021799
0.397018 0.236927 0.301382
-0.183000 0.539027 0.105651
0.241500 0.323193 0.418251
-0.161850 0.539027 0.135851
-0.078700 0.377793 0.446251
-0.075200 0.403593 0.426451
0.246200 0.294793 0.426451
0.250000 0.525593 0.000001
0.282450 0.509993 -0.049799
0.246200 0.525593 -0.043399
0.286800 0.509993 0.000001
-0.155000 0.377793 0.425851
-0.081600 0.350927 0.462701
-0.160700 0.350927 0.441501
0.155000 0.377793 -0.425849
0.081600 0.350927 -0.462699
0.078700 0.377793 -0.446249
0.160700 0.350927 -0.441499
-0.000000 0.350927 -0.469849
-0.165200 0.323193 0.453851
-0.083850 0.323193 0.475651
-0.081600 0.565193 -0.029699
-0.040950 0.568993 -0.014899
0.383000 0.451193 0.000001
0.403350 0.428127 -0.071099
0.377200 0.451193 -0.066499
-0.086800 0.565193 0.000001
-0.043600 0.568993 0.000001
-0.042900 0.568993 -0.007549
0.246200 0.451193 -0.293399
0.293400 0.451193 -0.246199
-0.085500 0.550160 0.148101
0.191500 0.451193 -0.331699
-0.075200 0.565193 -0.043399
-0.109900 0.550160 0.131001
-0.058500 0.550160 0.160701
0.354700 0.428127 -0.204799
0.313750 0.428127 -0.263249
0.331700 0.451193 -0.191499
-0.085500 0.565193 -0.015099
-0.072250 0.539027 0.198551
0.384900 0.428127 -0.140099
0.359900 0.451193 -0.130999
0.375000 0.403593 -0.216499
0.347150 0.377793 -0.291299
0.406900 0.403593 -0.148099
-0.029700 0.550160 0.168401
-0.105650 0.539027 0.183001
0.249050 0.265993 -0.431349
0.170350 0.265993 -0.468049
0.246200 0.294793 -0.426449
0.250000 0.236927 -0.432999
0.320150 0.265993 -0.381549
0.282135 0.236927 -0.410496
0.406900 0.403593 0.148101
0.425850 0.377793 0.155001
0.446250 0.377793 0.078701
0.171000 0.236927 -0.469849
0.426450 0.403593 0.075201
0.211300 0.539027 0.000001
0.171000 0.550160 0.000001
0.168400 0.550160 0.029701
-0.036700 0.539027 0.208101
0.418250 0.323193 -0.241499
0.426450 0.294793 -0.246199
0.377200 0.294793 -0.316499
-0.085500 0.525593 0.234901
0.462700 0.294793 -0.168399
0.431350 0.265993 -0.249049
0.381550 0.265993 -0.320149
0.234900 0.525593 0.085501
0.269500 0.509993 0.098101
0.282450 0.509993 0.049801
-0.043400 0.525593 0.246201
-0.121600 0.558893 -0.044249
0.246200 0.525593 0.043401
0.383000 0.236927 -0.321399
-0.127450 0.558893 -0.022449
0.433000 0.236927 -0.249999
0.410496 0.236927 -0.282135
0.397018 0.236927 -0.301381
-0.131000 0.550160 0.109901
0.392450 0.377793 -0.226599
-0.135850 0.539027 0.161851
0.316500 0.492260 0.055801
-0.000000 0.377793 -0.453149
-0.085500 0.294793 0.484901
0.165200 0.323193 -0.453849
0.234900 0.350927 -0.406899
0.241500 0.323193 -0.418249
0.083850 0.323193 -0.475649
0.321400 0.492260 0.000001
-0.168400 0.294793 0.462701
-0.241500 0.323193 0.418251
0.168400 0.294793 -0.462699
0.085500 0.294793 -0.484899
-0.425850 0.377793 -0.154999
-0.462700 0.350927 -0.081599
-0.446250 0.377793 -0.078699
-0.000000 0.323193 -0.482949
-0.441500 0.350927 -0.160699
0.348200 0.472627 0.061401
0.353550 0.472627 0.000001
-0.469850 0.350927 0.000001
-0.086500 0.265993 0.490551
-0.453150 0.377793 0.000001
-0.170350 0.265993 0.468051
0.332250 0.472627 0.120901
0.377200 0.451193 0.066501
0.291300 0.377793 -0.347149
0.226600 0.377793 -0.392449
-0.191500 0.525593 0.160701
-0.453850 0.323193 -0.165199
-0.475650 0.323193 -0.083849
-0.160700 0.525593 0.191501
-0.484900 0.294793 -0.085499
0.191500 0.525593 0.160701
0.219700 0.509993 0.184351
0.248350 0.509993 0.143401
0.406900 0.350927 -0.234899
0.425850 0.377793 -0.154999
0.359900 0.350927 -0.301999
-0.125000 0.525593 0.216501
0.216500 0.525593 0.125001
-0.482950 0.323193 0.000001
0.302000 0.350927 -0.359899
0.184350 0.509993 0.219701
0.246200 0.492260 0.206601
0.278350 0.492260 0.160701
-0.160700 0.550160 -0.058499
0.369950 0.323193 -0.310449
0.302000 0.492260 0.109901
0.310450 0.323193 -0.369949
-0.462700 0.294793 -0.168399
0.306200 0.472627 0.176801
-0.418250 0.323193 -0.241499
-0.000000 0.294793 -0.492399
-0.171000 0.236927 0.469851
-0.249050 0.265993 0.431351
-0.159797 0.236927 0.472851
-0.490550 0.265993 -0.086499
-0.086800 0.236927 0.492401
0.359900 0.451193 0.131001
0.331700 0.451193 0.191501
-0.492400 0.294793 0.000001
0.086500 0.265993 -0.490549
-0.250000 0.236927 0.433001
-0.142808 0.236927 0.477401
-0.000000 0.265993 -0.498099
0.316500 0.294793 -0.377199
-0.468050 0.265993 -0.170349
-0.498100 0.265993 0.000001
-0.219700 0.509993 0.184351
-0.492400 0.236927 -0.086799
0.384900 0.428127 0.140101
0.354700 0.428127 0.204801
0.403350 0.428127 0.071101
-0.216500 0.525593 -0.124999
-0.500000 0.236927 0.000001
0.321400 0.236927 -0.382999
-0.234900 0.525593 -0.085499
0.301381 0.236927 -0.397018
-0.191500 0.525593 -0.160699
-0.248350 0.509993 -0.143399
0.409600 0.428127 0.000001
-0.269500 0.509993 -0.098099
0.148100 0.403593 -0.406899
0.075200 0.403593 -0.426449
-0.000000 0.403593 -0.432999
0.375000 0.403593 0.216501
-0.219700 0.509993 -0.184349
-0.278350 0.492260 -0.160699
-0.477401 0.236927 -0.142807
-0.472851 0.236927 -0.159796
-0.469850 0.236927 -0.170999
-0.246200 0.492260 -0.206599
-0.302000 0.492260 -0.109899
-0.433000 0.403593 0.000001
-0.446250 0.377793 0.078701
-0.462700 0.350927 0.081601
-0.426450 0.403593 0.075201
-0.425850 0.377793 0.155001
-0.406900 0.403593 0.148101
0.250000 0.236927 0.433001
-0.332250 0.472627 -0.120899
-0.306200 0.472627 -0.176799
-0.441500 0.350927 0.160701
-0.475650 0.323193 0.083851
0.036700 0.539027 -0.208099
-0.000000 0.525593 -0.249999
-0.000000 0.539027 -0.211299
0.433000 0.403593 0.000001
-0.453850 0.323193 0.165201
0.061400 0.472627 -0.348199
-0.000000 0.472627 -0.353549
0.055800 0.492260 -0.316499
-0.484900 0.294793 0.085501
-0.462700 0.294793 0.168401
-0.000000 0.492260 -0.321399
0.469850 0.350927 0.000001
0.453150 0.377793 0.000001
-0.282450 0.509993 -0.049799
-0.490550 0.265993 0.086501
0.462700 0.350927 -0.081599
0.446250 0.377793 -0.078699
0.120900 0.472627 -0.332249
0.176800 0.472627 -0.306199
0.131000 0.451193 -0.359899
-0.246200 0.525593 -0.043399
-0.286800 0.509993 0.000001
0.441500 0.350927 -0.160699
0.453850 0.323193 -0.165199
-0.250000 0.525593 0.000001
-0.468050 0.265993 0.170351
-0.316500 0.492260 -0.055799
-0.492400 0.236927 0.086801
-0.198550 0.539027 -0.072249
0.475650 0.323193 -0.083849
0.482950 0.323193 0.000001
-0.321400 0.492260 0.000001
-0.129400 0.558893 0.000001
-0.348200 0.472627 -0.061399
-0.469850 0.236927 0.171001
-0.353550 0.472627 0.000001
-0.171000 0.550160 0.000001
-0.477401 0.236927 0.142808
-0.472851 0.236927 0.159797
0.066500 0.451193 -0.377199
-0.433000 0.236927 0.250001
0.159796 0.236927 -0.472850
0.086800 0.236927 -0.492399
-0.000000 0.451193 -0.382999
-0.227250 0.472627 0.270851
-0.206600 0.492260 0.246201
-0.270850 0.472627 0.227251
0.492400 0.294793 0.000001
0.484900 0.294793 -0.085499
0.490550 0.265993 -0.086499
0.498100 0.265993 0.000001
-0.246200 0.451193 0.293401
0.142807 0.236927 -0.477400
-0.377200 0.451193 -0.066499
0.468050 0.265993 -0.170349
-0.000000 0.236927 -0.499999
0.143400 0.509993 -0.248349
0.098100 0.509993 -0.269499
0.125000 0.525593 -0.216499
-0.293400 0.451193 0.246201
0.160700 0.492260 -0.278349
-0.078700 0.377793 -0.446249
-0.313750 0.428127 0.263251
-0.263250 0.428127 0.313751
0.109900 0.492260 -0.301999
0.500000 0.236927 0.000001
0.492400 0.236927 -0.086799
-0.383000 0.451193 0.000001
0.469850 0.236927 -0.170999
-0.278350 0.403593 0.331701
-0.331700 0.403593 0.278351
-0.216500 0.403593 0.375001
-0.359900 0.451193 -0.130999
-0.331700 0.451193 -0.191499
0.477400 0.236927 -0.142807
0.472850 0.236927 -0.159796
-0.168400 0.550160 -0.029699
-0.347150 0.377793 0.291301
-0.375000 0.403593 0.216501
-0.208100 0.539027 -0.036699
-0.081600 0.350927 -0.462699
-0.211300 0.539027 0.000001
0.462700 0.350927 0.081601
-0.160700 0.350927 -0.441499
-0.226600 0.377793 0.392451
-0.155000 0.377793 -0.425849
-0.392450 0.377793 0.226601
-0.406900 0.350927 0.234901
-0.359900 0.350927 0.302001
-0.083850 0.323193 -0.475649
-0.165200 0.323193 -0.453849
0.441500 0.350927 0.160701
-0.384900 0.428127 -0.140099
0.453850 0.323193 0.165201
0.475650 0.323193 0.083851
0.484900 0.294793 0.085501
-0.168400 0.294793 -0.462699
0.121600 0.558893 0.044251
0.127450 0.558893 0.022451
-0.085500 0.294793 -0.484899
0.462700 0.294793 0.168401
0.160700 0.550160 0.058501
0.208100 0.539027 0.036701
-0.246200 0.294793 -0.426449
-0.086500 0.265993 -0.490549
-0.170350 0.265993 -0.468049
0.099150 0.558893 0.083201
0.148100 0.550160 0.085501
0.112050 0.558893 0.064701
0.098100 0.509993 0.269501
0.160700 0.492260 0.278351
0.143400 0.509993 0.248351
0.085500 0.525593 0.234901
0.125000 0.525593 0.216501
0.160700 0.525593 0.191501
-0.086800 0.236927 -0.492399
-0.171000 0.236927 -0.469849
-0.142808 0.236927 -0.477400
-0.250000 0.236927 -0.432999
-0.403350 0.428127 -0.071099
0.109900 0.492260 0.302001
0.043400 0.525593 -0.246199
-0.409600 0.428127 0.000001
0.085500 0.525593 -0.234899
0.049800 0.509993 -0.282449
-0.000000 0.509993 -0.286799
0.120900 0.472627 0.332251
0.176800 0.472627 0.306201
0.227250 0.472627 0.270851
-0.375000 0.403593 -0.216499
-0.392450 0.377793 -0.226599
-0.406900 0.403593 -0.148099
-0.426450 0.403593 -0.075199
-0.000000 0.539027 0.211301
-0.000000 0.525593 0.250001
0.043400 0.525593 0.246201
0.036700 0.539027 0.208101
0.140100 0.428127 -0.384899
0.071100 0.428127 -0.403349
0.049800 0.509993 0.282451
-0.000000 0.509993 0.286801
-0.000000 0.428127 -0.409599
0.109900 0.550160 -0.130999
0.131000 0.550160 -0.109899
0.135850 0.539027 -0.161849
0.161850 0.539027 -0.135849
0.105650 0.539027 -0.182999
-0.000000 0.492260 0.321401
0.055800 0.492260 0.316501
0.183000 0.539027 -0.105649
0.191500 0.525593 -0.160699
0.490550 0.265993 0.086501
0.160700 0.525593 -0.191499
0.468050 0.265993 0.170351
-0.159797 0.236927 -0.472850
0.131000 0.550160 0.109901
-0.418250 0.323193 0.241501
-0.369950 0.323193 0.310451
0.198550 0.539027 0.072251
0.469850 0.236927 0.171001
0.472850 0.236927 0.159797
0.492400 0.236927 0.086801
-0.310450 0.323193 0.369951
0.477400 0.236927 0.142808
-0.234900 0.525593 0.085501
-0.377200 0.294793 0.316501
-0.291300 0.377793 0.347151
0.183000 0.539027 0.105651
0.392450 0.377793 0.226601
0.206600 0.492260 0.246201
0.061400 0.472627 0.348201
-0.246200 0.525593 0.043401
-0.302000 0.350927 0.359901
-0.000000 0.472627 0.353551
-0.234900 0.350927 0.406901
-0.075200 0.403593 -0.426449
-0.282450 0.509993 0.049801
0.270850 0.472627 0.227251
0.246200 0.451193 0.293401
-0.269500 0.509993 0.098101
-0.248350 0.509993 0.143401
-0.206600 0.492260 -0.246199
-0.270850 0.472627 -0.227249
-0.316500 0.492260 0.055801
-0.043400 0.525593 -0.246199
-0.227250 0.472627 -0.270849
-0.293400 0.451193 -0.246199
-0.302000 0.492260 0.109901
-0.036700 0.539027 -0.208099
-0.316500 0.294793 0.377201
-0.085500 0.525593 -0.234899
0.058500 0.550160 -0.160699
0.029700 0.550160 -0.168399
0.044250 0.558893 -0.121599
0.072250 0.539027 -0.198549
-0.246200 0.451193 -0.293399
-0.320150 0.265993 0.381551
-0.381550 0.265993 0.320151
-0.061400 0.472627 -0.348199
-0.055800 0.492260 -0.316499
-0.383000 0.236927 0.321401
-0.431350 0.265993 0.249051
-0.000000 0.550160 -0.170999
0.022450 0.558893 -0.127449
0.029700 0.565193 -0.081599
0.099150 0.558893 -0.083199
0.083200 0.558893 -0.099149
0.064700 0.558893 -0.112049
0.085500 0.550160 -0.148099
-0.000000 0.558893 -0.129399
-0.029700 0.550160 -0.168399
-0.022450 0.558893 -0.127449
0.112050 0.558893 -0.064699
0.148100 0.550160 -0.085499
0.160700 0.550160 -0.058499
0.198550 0.539027 -0.072249
0.129400 0.558893 0.000001
0.168400 0.550160 -0.029699
0.127450 0.558893 -0.022449
-0.120900 0.472627 -0.332249
0.121600 0.558893 -0.044249
-0.321400 0.236927 0.383001
-0.301382 0.236927 0.397019
-0.397019 0.236927 0.301382
-0.410497 0.236927 0.282136
-0.331700 0.403593 -0.278349
-0.282136 0.236927 0.410497
-0.291300 0.377793 -0.347149
-0.426450 0.294793 0.246201
-0.348200 0.472627 0.061401
-0.131000 0.451193 -0.359899
-0.313750 0.428127 -0.263249
-0.354700 0.428127 -0.204799
-0.072250 0.539027 -0.198549
-0.049800 0.509993 -0.282449
-0.098100 0.509993 -0.269499
-0.216500 0.525593 0.125001
-0.246200 0.294793 0.426451
0.293400 0.451193 0.246201
-0.347150 0.377793 -0.291299
-0.109900 0.492260 -0.301999
-0.278350 0.492260 0.160701
-0.234900 0.350927 -0.406899
-0.246200 0.492260 0.206601
-0.241500 0.323193 -0.418249
-0.332250 0.472627 0.120901
-0.306200 0.472627 0.176801
-0.249050 0.265993 -0.431349
-0.320150 0.265993 -0.381549
-0.282136 0.236927 -0.410496
-0.397019 0.236927 -0.301381
-0.383000 0.236927 -0.321399
-0.301382 0.236927 -0.397018
-0.321400 0.236927 -0.382999
0.037750 0.568993 0.021801
0.066500 0.565193 0.055801
0.075200 0.565193 0.043401
-0.433000 0.236927 -0.249999
-0.226600 0.377793 -0.392449
0.404500 0.236927 -0.293899
0.293900 0.236927 -0.404499
0.154500 0.236927 -0.475549
-0.154500 0.236927 -0.475549
-0.302000 0.350927 -0.359899
-0.359900 0.451193 0.131001
-0.331700 0.451193 0.191501
-0.293900 0.236927 -0.404499
-0.404500 0.236927 -0.293899
-0.410497 0.236927 -0.282135
-0.377200 0.451193 0.066501
-0.310450 0.323193 -0.369949
-0.369950 0.323193 -0.310449
0.433000 0.236927 0.250001
0.410496 0.236927 0.282136
-0.316500 0.294793 -0.377199
-0.359900 0.350927 -0.301999
-0.403350 0.428127 0.071101
-0.406900 0.350927 -0.234899
0.081600 0.565193 0.029701
-0.000000 0.451193 0.383001
0.066500 0.451193 0.377201
0.208100 0.539027 -0.036699
-0.384900 0.428127 0.140101
-0.354700 0.428127 0.204801
0.085500 0.565193 0.015101
-0.377200 0.294793 -0.316499
-0.381550 0.265993 -0.320149
0.033400 0.568993 0.028001
-0.426450 0.294793 -0.246199
-0.125000 0.525593 -0.216499
0.040950 0.568993 0.014901
0.075200 0.565193 -0.043399
0.066500 0.565193 -0.055799
0.042900 0.568993 0.007551
0.055800 0.565193 -0.066499
-0.143400 0.509993 -0.248349
0.043400 0.565193 -0.075199
-0.184350 0.509993 -0.219699
-0.431350 0.265993 -0.249049
-0.000000 0.565193 -0.086799
0.007550 0.568993 -0.042899
0.015100 0.565193 -0.085499
-0.160700 0.492260 -0.278349
0.475550 0.236927 -0.154499
0.475550 0.236927 0.154501
0.131000 0.451193 0.359901
0.293900 0.236927 0.404501
0.191500 0.451193 0.331701
0.404500 0.236927 0.293901
-0.475550 0.236927 -0.154499
-0.475550 0.236927 0.154501
0.154500 0.236927 0.475551
-0.176800 0.472627 -0.306199
-0.154500 0.236927 0.475551
-0.404500 0.236927 0.293901
-0.293900 0.236927 0.404501
-0.000000 0.428127 0.409601
0.071100 0.428127 0.403351
0.028000 0.568993 0.033401
0.086800 0.565193 0.000001
0.140100 0.428127 0.384901
-0.000000 0.568993 0.043601
0.015100 0.565193 0.085501
0.007550 0.568993 0.042901
-0.066500 0.451193 -0.377199
0.081600 0.565193 -0.029699
0.085500 0.565193 -0.015099
0.033400 0.568993 -0.027999
0.037750 0.568993 -0.021799
0.204800 0.428127 0.354701
0.148100 0.403593 0.406901
0.216500 0.403593 0.375001
-0.000000 0.565193 0.086801
0.029700 0.565193 0.081601
0.028000 0.568993 -0.033399
0.021800 0.568993 -0.037749
0.014900 0.568993 -0.040949
0.044250 0.558893 0.121601
0.014900 0.568993 0.040951
0.043400 0.565193 0.075201
0.075200 0.403593 0.426451
-0.000000 0.403593 0.433001
-0.000000 0.568993 -0.043599
0.021800 0.568993 0.037751
0.055800 0.565193 0.066501
0.022450 0.558893 0.127451
0.064700 0.558893 0.112051
0.043600 0.568993 0.000001
0.083200 0.558893 0.099151
0.042900 0.568993 -0.007549
0.040950 0.568993 -0.014899
-0.098100 0.509993 0.269501
-0.049800 0.509993 0.282451
0.109900 0.550160 0.131001
0.135850 0.539027 0.161851
0.161850 0.539027 0.135851
0.263250 0.428127 0.313751
0.278350 0.403593 0.331701
0.105650 0.539027 0.183001
-0.055800 0.492260 0.316501
-0.000000 0.558893 0.129401
-0.000000 0.570260 0.000001
0.426450 0.403593 -0.075199
-0.184350 0.509993 0.219701
-0.143400 0.509993 0.248351
-0.160700 0.492260 0.278351
-0.000000 0.550160 0.171001
-0.109900 0.492260 0.302001
-0.176800 0.472627 0.306201
0.234900 0.525593 -0.085499
0.216500 0.525593 -0.124999
-0.120900 0.472627 0.332251
-0.061400 0.472627 0.348201
0.248350 0.509993 -0.143399
0.313750 0.428127 0.263251
-0.191500 0.451193 0.331701
0.058500 0.550160 0.160701
0.085500 0.550160 0.148101
0.331700 0.403593 0.278351
0.269500 0.509993 -0.098099
0.029700 0.550160 0.168401
0.278350 0.492260 -0.160699
-0.131000 0.451193 0.359901
-0.066500 0.451193 0.377201
0.219700 0.509993 -0.184349
0.302000 0.492260 -0.109899
0.072250 0.539027 0.198551
-0.204800 0.428127 0.354701
-0.140100 0.428127 0.384901
0.316500 0.492260 -0.055799
0.332250 0.472627 -0.120899
-0.042900 0.568993 0.007551
0.306200 0.472627 -0.176799
-0.071100 0.428127 0.403351
-0.037750 0.568993 0.021801
-0.033400 0.568993 0.028001
-0.028000 0.568993 0.033401
-0.148100 0.403593 0.406901
0.348200 0.472627 -0.061399
-0.021800 0.568993 0.037751
-0.014900 0.568993 0.040951
-0.040950 0.568993 0.014901
-0.007550 0.568993 0.042901
-0.058500 0.550160 -0.160699
-0.105650 0.539027 -0.182999
-0.085500 0.565193 0.015101
-0.081600 0.565193 0.029701
-0.085500 0.550160 -0.148099
0.406900 0.350927 0.234901
0.418250 0.323193 0.241501
0.426450 0.294793 0.246201
0.431350 0.265993 0.249051
0.347150 0.377793 0.291301
3 0 1 2
3 3 2 1
3 4 5 6
3 7 6 5
3 8 5 4
3 9 5 8
3 10 5 9
3 11 5 10
3 2 12 0
3 5 13 14
3 5 14 15
3 5 15 16
3 5 16 17
3 5 17 18
3 5 18 19
3 19 7 5
3 5 11 20
3 5 20 21
3 5 21 22
3 5 22 23
3 5 23 24
3 25 26 27
3 28 29 27
3 28 27 26
3 3 30 2
3 31 32 33
3 34 35 36
3 37 35 34
3 38 39 40
3 39 41 40
3 42 36 43
3 35 43 36
3 42 43 44
3 40 41 45
3 46 47 48
3 46 49 47
3 44 50 42
3 48 47 51
3 47 52 51
3 48 51 53
3 50 54 55
3 55 56 57
3 55 54 56
3 49 58 47
3 49 59 58
3 60 61 62
3 33 63 64
3 52 47 58
3 32 63 33
3 65 66 64
3 60 62 67
3 63 65 64
3 68 66 69
3 58 70 52
3 69 71 68
3 61 72 62
3 73 74 72
3 59 75 76
3 75 77 76
3 59 76 58
3 70 58 76
3 69 65 0
3 72 78 79
3 69 80 71
3 77 75 81
3 76 77 82
3 83 77 81
3 76 82 70
3 78 84 79
3 85 79 84
3 86 87 88
3 89 87 86
3 88 90 37
3 91 92 93
3 87 90 88
3 94 95 96
3 31 33 97
3 98 84 99
3 97 33 100
3 81 101 83
3 33 64 100
3 85 84 102
3 98 102 84
3 82 77 103
3 91 93 104
3 77 83 105
3 77 105 106
3 77 106 103
3 100 64 107
3 94 93 92
3 108 107 66
3 64 66 107
3 109 99 110
3 98 99 109
3 108 66 111
3 68 111 66
3 112 113 89
3 92 114 94
3 68 115 111
3 102 116 85
3 60 53 61
3 89 113 87
3 61 53 51
3 90 87 117
3 51 52 118
3 113 117 87
3 118 61 51
3 117 119 90
3 118 72 61
3 120 46 121
3 122 118 52
3 123 124 125
3 126 124 123
3 127 128 120
3 127 129 128
3 120 128 49
3 130 131 132
3 120 49 46
3 133 131 130
3 44 54 50
3 131 134 132
3 129 135 136
3 115 137 138
3 139 140 141
3 142 143 144
3 29 28 145
3 146 145 28
3 44 43 147
3 145 148 29
3 115 68 149
3 147 43 150
3 44 147 151
3 115 149 137
3 152 153 154
3 155 144 138
3 147 156 151
3 157 158 141
3 137 155 138
3 145 146 40
3 153 40 146
3 145 45 148
3 40 45 145
3 152 38 153
3 152 159 38
3 40 153 38
3 141 140 157
3 158 157 152
3 38 160 39
3 152 157 159
3 157 161 159
3 158 152 154
3 154 153 146
3 140 161 157
3 54 162 56
3 147 150 163
3 156 147 163
3 164 165 166
3 167 168 169
3 44 151 54
3 54 151 162
3 164 168 167
3 170 171 172
3 164 173 165
3 172 174 170
3 167 173 164
3 175 176 177
3 155 142 144
3 151 178 162
3 151 156 178
3 179 180 181
3 156 163 182
3 180 183 184
3 68 71 149
3 185 180 184
3 186 187 188
3 156 182 189
3 71 190 149
3 186 188 191
3 156 189 178
3 149 190 137
3 184 192 185
3 137 193 155
3 184 194 195
3 195 196 184
3 190 193 137
3 90 197 37
3 37 197 35
3 43 35 150
3 197 150 35
3 159 198 160
3 197 90 119
3 136 128 129
3 52 70 122
3 128 136 59
3 150 197 199
3 119 199 197
3 187 200 188
3 150 199 163
3 188 126 191
3 128 59 49
3 132 134 201
3 191 126 123
3 136 135 202
3 75 59 136
3 203 133 204
3 204 205 203
3 203 206 133
3 188 207 126
3 208 135 209
3 202 135 208
3 210 211 203
3 203 211 206
3 212 213 214
3 133 206 131
3 206 215 131
3 212 216 213
3 217 218 200
3 136 202 75
3 213 219 214
3 131 215 134
3 208 220 202
3 214 219 221
3 208 222 220
3 217 223 224
3 160 38 159
3 225 39 160
3 39 226 41
3 117 227 119
3 228 229 216
3 225 226 39
3 226 130 41
3 199 119 230
3 227 230 119
3 228 231 229
3 232 233 234
3 235 198 236
3 235 237 198
3 199 238 163
3 216 229 213
3 198 237 160
3 232 234 239
3 229 240 213
3 237 241 225
3 237 225 160
3 239 187 186
3 226 225 204
3 239 234 187
3 241 204 225
3 213 240 219
3 242 243 233
3 204 133 226
3 80 69 0
3 244 234 233
3 226 133 130
3 80 245 71
3 235 179 246
3 179 181 246
3 244 233 243
3 246 237 235
3 234 244 247
3 246 248 241
3 246 241 237
3 241 205 204
3 248 205 241
3 228 249 231
3 234 247 187
3 247 200 187
3 205 166 210
3 243 250 244
3 244 223 247
3 205 210 203
3 220 81 202
3 244 250 223
3 247 217 200
3 223 217 247
3 81 75 202
3 251 249 228
3 206 252 215
3 253 222 254
3 211 252 206
3 253 255 222
3 249 256 231
3 257 220 222
3 250 258 223
3 250 259 258
3 101 81 220
3 165 210 166
3 240 229 260
3 231 260 229
3 223 258 224
3 210 261 211
3 254 262 253
3 210 165 261
3 255 263 222
3 257 222 263
3 261 264 211
3 257 101 220
3 211 264 252
3 181 265 248
3 181 248 246
3 248 166 205
3 256 249 266
3 265 166 248
3 256 267 231
3 230 227 268
3 269 256 266
3 185 181 180
3 217 224 139
3 265 181 168
3 185 168 181
3 231 267 260
3 168 164 265
3 259 270 258
3 265 164 166
3 271 270 259
3 258 270 272
3 270 174 272
3 258 272 224
3 12 2 273
3 256 274 267
3 192 184 196
3 275 168 192
3 168 185 192
3 12 273 276
3 169 168 277
3 275 277 168
3 273 278 279
3 280 139 224
3 279 281 273
3 130 132 282
3 224 272 280
3 132 283 282
3 283 201 284
3 285 170 271
3 286 287 279
3 132 201 283
3 269 266 288
3 289 288 266
3 290 289 266
3 271 170 270
3 291 287 286
3 274 256 269
3 287 292 279
3 118 122 78
3 122 84 78
3 279 292 281
3 118 78 72
3 70 82 99
3 293 221 294
3 221 295 294
3 122 70 99
3 293 294 296
3 296 297 298
3 84 122 99
3 294 297 296
3 103 299 82
3 299 99 82
3 110 99 299
3 292 287 300
3 301 300 287
3 295 221 219
3 295 302 294
3 303 295 219
3 304 305 306
3 294 302 297
3 174 270 170
3 174 307 272
3 272 307 280
3 219 240 303
3 295 308 302
3 303 308 295
3 309 310 311
3 240 312 303
3 303 313 308
3 311 310 314
3 312 313 303
3 276 273 281
3 172 315 316
3 240 260 312
3 276 281 317
3 260 318 312
3 316 319 320
3 321 322 323
3 317 324 276
3 316 315 319
3 317 325 324
3 320 319 326
3 319 327 326
3 324 325 328
3 320 326 236
3 71 245 190
3 235 236 326
3 318 260 267
3 318 329 312
3 12 80 0
3 281 292 330
3 331 318 267
3 332 80 12
3 80 332 245
3 315 333 319
3 312 329 313
3 317 281 330
3 315 334 333
3 317 335 325
3 330 335 317
3 332 12 276
3 327 319 333
3 276 324 332
3 326 327 179
3 267 274 331
3 86 142 336
3 326 179 235
3 330 292 337
3 155 336 142
3 292 300 337
3 193 336 155
3 327 333 183
3 338 329 318
3 337 339 330
3 336 340 89
3 341 342 318
3 338 318 342
3 331 341 318
3 321 343 309
3 338 344 329
3 173 345 165
3 165 346 261
3 309 347 310
3 348 349 350
3 309 343 347
3 334 351 352
3 351 353 352
3 351 354 353
3 334 352 333
3 330 339 335
3 183 333 352
3 180 179 327
3 183 180 327
3 355 348 350
3 356 165 345
3 346 165 356
3 357 337 300
3 352 353 358
3 261 359 264
3 360 361 362
3 346 359 261
3 363 355 350
3 352 358 183
3 25 364 360
3 184 183 358
3 284 201 365
3 27 364 25
3 366 367 355
3 366 355 363
3 364 368 360
3 364 321 368
3 354 369 370
3 360 368 361
3 337 371 339
3 354 370 353
3 368 311 361
3 337 357 371
3 372 358 353
3 367 366 373
3 374 373 366
3 367 373 375
3 358 194 184
3 322 364 27
3 301 376 300
3 27 29 322
3 377 376 301
3 376 357 300
3 336 89 86
3 353 370 378
3 353 378 379
3 353 379 372
3 194 358 372
3 245 380 190
3 161 236 198
3 381 374 382
3 245 383 380
3 161 198 159
3 190 380 193
3 373 374 381
3 193 340 336
3 380 340 193
3 340 112 89
3 384 365 201
3 385 112 340
3 201 134 384
3 171 386 172
3 384 387 365
3 127 375 388
3 365 387 389
3 383 245 332
3 316 174 172
3 385 380 383
3 390 381 382
3 391 392 390
3 393 384 134
3 390 392 381
3 134 215 393
3 380 385 340
3 384 394 387
3 386 171 395
3 383 332 324
3 328 385 383
3 386 315 172
3 393 394 384
3 390 297 391
3 324 328 383
3 278 2 30
3 273 2 278
3 30 286 278
3 377 396 376
3 286 279 278
3 395 397 398
3 397 399 398
3 395 398 386
3 386 398 334
3 393 400 394
3 386 334 315
3 401 177 402
3 403 215 252
3 397 404 399
3 215 403 393
3 351 334 398
3 403 400 393
3 405 406 177
3 400 407 394
3 408 403 252
3 252 264 408
3 408 409 403
3 410 411 412
3 403 409 400
3 322 321 364
3 413 414 415
3 368 309 311
3 321 309 368
3 416 415 417
3 417 242 418
3 419 408 264
3 417 415 242
3 420 409 408
3 419 421 408
3 420 422 409
3 396 423 376
3 414 413 424
3 376 423 357
3 305 304 425
3 357 426 371
3 423 426 357
3 427 362 361
3 427 361 428
3 427 428 425
3 428 429 425
3 428 314 429
3 424 430 431
3 425 429 305
3 431 414 424
3 311 428 361
3 414 431 432
3 428 311 314
3 433 434 212
3 212 214 435
3 435 214 436
3 396 436 423
3 322 29 148
3 396 435 436
3 148 323 322
3 436 293 423
3 436 221 293
3 321 323 343
3 423 293 426
3 437 438 439
3 437 439 440
3 148 441 323
3 416 440 439
3 45 441 148
3 441 442 323
3 441 283 442
3 438 443 439
3 323 442 343
3 438 444 443
3 416 439 413
3 445 347 343
3 446 447 448
3 449 448 447
3 448 450 446
3 442 445 343
3 439 443 413
3 445 104 347
3 416 413 415
3 45 41 282
3 444 451 452
3 399 351 398
3 282 441 45
3 453 454 449
3 359 419 264
3 404 455 399
3 456 448 454
3 454 448 449
3 404 457 455
3 420 408 458
3 421 458 408
3 455 354 399
3 448 362 450
3 455 369 354
3 444 452 443
3 411 410 459
3 412 411 405
3 443 424 413
3 399 354 351
3 362 427 450
3 460 461 391
3 391 461 392
3 411 462 405
3 463 464 457
3 465 455 457
3 412 405 401
3 214 221 436
3 405 177 401
3 282 283 441
3 461 466 392
3 283 284 442
3 464 467 457
3 465 457 467
3 112 468 113
3 461 469 466
3 452 424 443
3 369 455 465
3 373 381 470
3 459 471 411
3 170 285 171
3 373 388 375
3 462 411 471
3 472 171 285
3 442 284 445
3 373 470 388
3 415 414 473
3 130 282 41
3 451 474 452
3 475 385 328
3 470 381 476
3 392 476 381
3 473 242 415
3 385 475 112
3 451 477 474
3 473 243 242
3 470 478 388
3 445 479 104
3 475 468 112
3 470 476 478
3 414 432 473
3 284 479 445
3 129 388 478
3 479 91 104
3 480 475 328
3 432 481 243
3 432 243 473
3 479 389 91
3 481 250 243
3 328 325 480
3 432 431 482
3 475 483 468
3 388 129 127
3 392 466 476
3 480 483 475
3 365 479 284
3 476 209 478
3 468 483 484
3 291 485 486
3 291 301 287
3 365 389 479
3 486 301 291
3 325 335 487
3 325 487 480
3 488 306 305
3 486 489 490
3 480 491 483
3 306 488 492
3 487 491 480
3 486 377 301
3 469 493 466
3 488 494 492
3 495 496 497
3 94 114 95
3 498 304 495
3 96 95 499
3 452 474 430
3 493 469 500
3 501 500 469
3 452 430 424
3 502 503 314
3 504 501 505
3 314 310 502
3 450 427 498
3 496 495 304
3 304 306 496
3 506 496 306
3 306 492 506
3 427 425 498
3 498 425 304
3 497 507 508
3 509 447 446
3 446 510 509
3 511 510 512
3 446 512 510
3 495 511 512
3 512 498 495
3 495 497 511
3 497 496 507
3 507 506 513
3 496 506 507
3 513 506 514
3 513 514 515
3 512 446 450
3 450 498 512
3 516 517 447
3 516 447 509
3 518 453 517
3 519 453 518
3 517 449 447
3 453 449 517
3 520 176 521
3 520 521 522
3 502 523 503
3 522 518 524
3 521 518 522
3 525 526 500
3 504 505 527
3 528 527 505
3 504 525 500
3 114 529 95
3 176 520 402
3 500 501 504
3 500 526 530
3 402 177 176
3 114 92 531
3 302 391 297
3 308 460 302
3 302 460 391
3 489 499 490
3 308 532 460
3 490 377 486
3 487 335 533
3 308 313 532
3 532 469 460
3 534 96 523
3 335 339 533
3 460 469 461
3 329 505 313
3 490 95 535
3 499 95 490
3 329 344 505
3 377 490 536
3 313 505 532
3 535 536 490
3 532 501 469
3 537 492 494
3 536 396 377
3 505 501 532
3 95 529 535
3 538 488 305
3 529 433 535
3 305 429 538
3 528 505 344
3 488 539 494
3 538 539 488
3 540 113 468
3 476 466 209
3 535 433 536
3 468 484 540
3 433 435 536
3 135 129 478
3 113 540 117
3 227 117 540
3 478 209 135
3 536 435 396
3 209 466 541
3 429 314 503
3 481 542 259
3 531 543 114
3 466 493 541
3 503 538 429
3 540 268 227
3 481 259 250
3 208 209 541
3 484 268 540
3 538 544 539
3 406 405 462
3 433 212 435
3 432 482 481
3 542 481 482
3 471 186 462
3 493 500 254
3 483 545 484
3 254 541 493
3 186 471 239
3 387 546 389
3 541 222 208
3 483 491 545
3 462 186 191
3 222 541 254
3 545 547 484
3 394 548 387
3 500 530 262
3 254 500 262
3 387 548 546
3 484 547 268
3 192 277 275
3 487 533 549
3 277 192 196
3 173 167 345
3 548 394 407
3 487 549 491
3 549 550 491
3 169 345 167
3 359 346 356
3 359 421 419
3 551 552 407
3 420 458 422
3 553 422 458
3 550 545 491
3 409 551 400
3 550 350 545
3 400 551 407
3 462 191 406
3 554 555 556
3 557 556 555
3 551 409 422
3 558 559 560
3 290 561 289
3 422 553 551
3 350 550 363
3 91 389 562
3 545 350 547
3 91 562 92
3 563 196 195
3 562 531 92
3 169 277 564
3 565 356 345
3 566 458 421
3 562 567 531
3 568 569 549
3 570 556 553
3 569 550 549
3 571 572 554
3 562 389 546
3 105 83 101
3 546 567 562
3 550 569 363
3 573 339 371
3 110 299 106
3 299 103 106
3 546 548 574
3 573 533 339
3 574 567 546
3 109 116 98
3 102 98 116
3 573 568 533
3 574 575 567
3 576 464 463
3 464 576 577
3 574 578 575
3 533 568 549
3 369 465 467
3 529 114 543
3 378 370 369
3 529 434 433
3 529 543 434
3 372 379 194
3 195 194 379
3 543 531 579
3 567 579 531
3 572 289 561
3 371 426 580
3 543 581 434
3 269 288 274
3 560 582 558
3 524 517 516
3 477 583 584
3 274 341 331
3 518 517 524
3 338 342 344
3 477 584 474
3 579 581 543
3 176 585 521
3 216 434 581
3 176 175 585
3 342 528 344
3 504 526 525
3 585 519 521
3 526 504 527
3 251 228 581
3 521 519 518
3 434 216 212
3 580 573 371
3 575 579 567
3 262 255 253
3 579 251 581
3 573 586 568
3 580 586 573
3 586 587 568
3 560 401 582
3 548 407 578
3 402 588 582
3 587 569 568
3 582 401 402
3 578 574 548
3 569 587 366
3 589 575 578
3 402 520 588
3 407 552 578
3 569 366 363
3 589 578 590
3 552 590 578
3 555 554 590
3 580 298 586
3 382 587 586
3 552 557 590
3 586 298 382
3 587 374 366
3 382 374 587
3 557 552 551
3 530 255 262
3 551 553 556
3 551 556 557
3 297 390 298
3 555 590 557
3 298 390 382
3 572 590 554
3 426 296 580
3 101 257 263
3 293 296 426
3 296 298 580
3 575 251 579
3 544 538 503
3 216 581 228
3 591 559 558
3 592 251 575
3 494 593 537
3 558 582 594
3 595 509 596
3 595 516 509
3 589 592 575
3 597 594 588
3 510 598 509
3 598 596 509
3 510 511 598
3 592 249 251
3 539 599 494
3 598 511 600
3 511 497 600
3 582 588 594
3 593 494 599
3 593 601 30
3 599 601 593
3 590 602 589
3 601 286 30
3 592 589 602
3 592 266 249
3 603 604 605
3 602 266 592
3 599 539 606
3 605 513 603
3 379 378 607
3 539 544 606
3 608 467 464
3 474 609 430
3 606 485 599
3 610 109 110
3 431 430 611
3 116 612 577
3 599 485 601
3 482 431 611
3 613 288 289
3 601 485 286
3 291 286 485
3 614 342 341
3 523 544 503
3 600 497 508
3 615 106 105
3 523 616 544
3 507 605 508
3 617 263 255
3 528 618 527
3 544 616 606
3 619 530 526
3 583 620 621
3 559 591 622
3 616 489 606
3 10 563 195
3 379 11 195
3 507 513 605
3 583 621 584
3 196 10 277
3 563 10 196
3 10 9 277
3 616 499 489
3 513 515 603
3 515 31 603
3 606 489 485
3 9 8 169
3 564 9 169
3 597 588 623
3 489 486 485
3 609 474 584
3 359 356 4
3 565 8 356
3 566 421 6
3 359 4 421
3 6 421 4
3 584 624 609
3 96 499 616
3 625 626 627
3 628 310 347
3 6 7 553
3 6 553 458
3 6 458 566
3 347 104 628
3 554 556 7
3 571 554 19
3 570 7 556
3 502 310 628
3 430 609 611
3 19 572 571
3 534 502 628
3 101 5 105
3 628 93 534
3 104 93 628
3 110 106 24
3 615 24 106
3 610 110 23
3 502 534 523
3 23 22 109
3 116 109 22
3 610 23 109
3 612 22 577
3 464 577 21
3 93 94 534
3 534 94 96
3 524 629 630
3 20 369 467
3 608 21 467
3 523 96 616
3 20 11 378
3 369 20 378
3 631 632 596
3 572 18 289
3 613 18 288
3 274 288 17
3 588 520 623
3 17 16 341
3 274 17 341
3 623 520 522
3 528 342 16
3 614 16 342
3 618 528 15
3 522 630 623
3 15 14 526
3 619 526 14
3 15 526 527
3 15 527 618
3 624 584 621
3 522 524 630
3 624 633 609
3 13 617 255
3 255 530 13
3 14 13 530
3 619 14 530
3 629 516 595
3 13 5 263
3 617 13 263
3 10 195 11
3 516 629 524
3 564 277 9
3 565 345 8
3 345 169 8
3 4 356 8
3 570 553 7
3 609 633 611
3 19 554 7
3 24 105 5
3 615 105 24
3 23 110 24
3 612 116 22
3 608 464 21
3 21 577 22
3 20 467 21
3 607 378 11
3 379 607 11
3 613 289 18
3 19 18 572
3 17 288 18
3 614 341 16
3 15 528 16
3 621 634 624
3 101 263 5
3 624 634 635
3 595 596 632
3 625 636 626
3 627 626 637
3 638 631 598
3 596 598 631
3 638 598 639
3 600 639 598
3 639 508 640
3 641 637 626
3 600 508 639
3 627 637 642
3 640 605 604
3 642 637 643
3 620 644 621
3 508 605 640
3 620 645 644
3 644 634 621
3 603 646 604
3 642 643 647
3 645 121 46
3 645 46 48
3 646 31 97
3 622 647 648
3 643 648 647
3 645 48 644
3 603 31 646
3 648 559 622
3 644 53 634
3 644 48 53
3 162 178 437
3 636 649 626
3 182 163 238
3 637 650 643
3 623 651 597
3 637 641 650
3 643 652 648
3 651 630 653
3 651 623 630
3 437 178 438
3 653 630 629
3 178 189 438
3 653 629 654
3 648 652 559
3 410 559 652
3 654 629 595
3 559 410 412
3 632 654 595
3 412 560 559
3 412 401 560
3 182 655 656
3 182 656 189
3 652 657 410
3 238 655 182
3 657 658 459
3 659 459 658
3 659 471 459
3 189 656 444
3 660 611 633
3 635 633 624
3 189 444 438
3 633 661 660
3 572 561 590
3 662 418 658
3 590 561 602
3 290 266 602
3 561 290 602
3 418 232 658
3 656 655 663
3 280 140 139
3 451 444 656
3 659 239 471
3 664 636 57
3 665 631 638
3 280 666 140
3 230 238 199
3 307 666 280
3 57 56 664
3 161 140 666
3 666 236 161
3 636 664 649
3 633 635 661
3 230 268 667
3 230 667 668
3 174 316 307
3 307 316 320
3 626 649 641
3 320 666 307
3 238 230 668
3 665 107 108
3 238 668 655
3 236 666 320
3 108 111 665
3 667 268 349
3 547 349 268
3 669 668 667
3 650 652 643
3 177 406 175
3 56 670 664
3 669 667 349
3 668 669 671
3 123 175 406
3 123 125 175
3 668 671 655
3 175 125 585
3 663 655 671
3 547 350 349
3 349 672 669
3 519 585 673
3 125 673 585
3 349 348 672
3 674 453 519
3 675 669 672
3 454 453 674
3 676 663 671
3 673 674 519
3 673 677 674
3 611 660 482
3 542 482 678
3 660 678 482
3 679 672 348
3 542 271 259
3 649 680 641
3 271 542 678
3 641 681 650
3 680 681 641
3 650 681 657
3 663 451 656
3 669 675 671
3 660 661 678
3 682 678 661
3 678 682 285
3 652 650 657
3 459 410 657
3 678 285 271
3 671 675 676
3 680 662 681
3 663 676 477
3 681 658 657
3 681 662 658
3 125 683 673
3 663 477 451
3 124 683 125
3 647 665 642
3 683 677 673
3 56 162 670
3 622 665 647
3 664 670 684
3 683 685 677
3 675 672 686
3 670 440 684
3 665 622 591
3 672 679 686
3 664 684 649
3 591 558 665
3 675 687 676
3 675 686 687
3 677 688 674
3 558 594 665
3 680 649 684
3 676 583 477
3 594 597 665
3 683 124 689
3 651 665 597
3 679 348 355
3 653 665 651
3 437 670 162
3 654 665 653
3 632 665 654
3 631 665 632
3 689 685 683
3 437 440 670
3 677 685 26
3 638 639 665
3 684 440 690
3 639 640 665
3 640 604 665
3 604 646 665
3 646 97 665
3 684 690 680
3 97 100 665
3 583 676 687
3 100 107 665
3 677 26 688
3 26 25 688
3 691 679 355
3 662 680 690
3 111 115 665
3 355 367 691
3 679 692 686
3 144 143 665
3 690 440 416
3 693 694 689
3 665 143 695
3 679 691 692
3 694 696 689
3 686 692 697
3 698 699 665
3 690 416 417
3 699 700 665
3 690 417 662
3 685 689 696
3 686 697 687
3 115 138 665
3 662 417 418
3 687 620 583
3 659 658 232
3 685 696 28
3 138 144 665
3 687 697 620
3 232 239 659
3 635 60 67
3 696 146 28
3 418 242 232
3 367 375 691
3 635 67 661
3 691 375 701
3 685 28 26
3 691 701 692
3 121 697 692
3 158 694 702
3 158 154 694
3 121 692 701
3 665 700 703
3 154 696 694
3 697 121 645
3 665 703 704
3 697 645 620
3 696 154 146
3 127 701 375
3 625 627 665
3 207 188 200
3 701 127 120
3 207 693 126
3 701 120 121
3 200 218 207
3 665 627 642
3 207 702 693
3 218 702 207
3 233 232 242
3 126 693 124
3 689 124 693
3 665 695 705
3 665 705 698
3 456 362 448
3 674 688 454
3 456 454 25
3 702 694 693
3 688 25 454
3 25 360 456
3 456 360 362
3 506 492 514
3 665 704 706
3 217 139 218
3 218 139 141
3 706 625 665
3 141 702 218
3 702 141 158
3 492 537 514
3 514 537 707
3 406 191 123
3 698 36 699
3 537 708 707
3 36 42 700
3 36 700 699
3 700 42 703
3 50 703 42
3 703 55 704
3 703 50 55
3 704 57 706
3 708 537 593
3 708 30 3
3 704 55 57
3 593 30 708
3 706 57 636
3 706 636 625
3 695 143 709
3 515 32 31
3 143 142 709
3 709 710 695
3 709 142 86
3 86 88 709
3 709 88 710
3 695 710 705
3 710 34 705
3 65 69 66
3 37 34 710
3 88 37 710
3 705 34 698
3 34 36 698
3 515 707 32
3 514 707 515
3 32 711 63
3 32 707 711
3 711 1 63
3 711 3 1
3 708 3 711
3 63 1 65
3 1 0 65
3 711 707 708
3 472 712 395
3 395 712 397
3 395 171 472
3 397 712 713
3 713 714 404
3 713 404 397
3 79 85 715
3 715 714 79
3 714 457 404
3 714 715 457
3 85 116 577
3 85 577 576
3 85 576 715
3 715 463 457
3 715 576 463
3 661 67 682
3 716 682 67
3 472 285 682
3 682 716 472
3 67 62 716
3 74 716 62
3 472 716 712
3 716 74 712
3 62 72 74
3 74 713 712
3 74 73 713
3 72 79 73
3 713 73 714
3 73 79 714
3 634 53 60
3 60 635 634
