ply
format ascii 1.0
comment Created by Blender 2.76 (sub 0) - www.blender.org, source file: ''
element vertex 164
property float x
property float y
property float z
element face 324
property list uchar uint vertex_indices
end_header
-0.137465 0.388619 -0.348666
-0.153676 0.535657 -0.305830
-0.126148 0.535657 -0.320091
-0.204626 0.388619 -0.313873
-0.090674 0.535657 -0.330291
-0.067663 0.388619 -0.368735
-0.079046 0.035300 -0.430183
-0.062065 0.535657 -0.338515
0.000584 0.388619 -0.375011
-0.027381 0.535657 -0.341705
0.331893 0.570726 -0.061308
0.369325 0.388619 -0.068218
0.331893 0.535657 -0.087672
0.330868 0.535657 -0.091230
0.000584 0.535657 -0.344265
0.320666 0.535657 -0.126717
0.349251 0.388619 -0.138045
0.430781 0.035300 -0.079597
0.000584 0.035300 -0.437493
0.035255 0.535657 -0.341076
0.063221 0.535657 -0.338515
0.068806 0.388619 -0.368735
0.331893 0.581511 -0.036695
0.375572 0.388619 -0.000011
0.492238 -0.372404 -0.090976
0.407349 0.035300 -0.161045
0.438065 0.035300 -0.000011
0.098695 0.535657 -0.328316
0.306411 0.535657 -0.154257
0.288717 0.535657 -0.188395
0.219432 0.535657 -0.263385
0.244009 0.535657 -0.243425
0.188951 0.535657 -0.288147
-0.262828 0.535657 -0.218853
-0.242865 0.535657 -0.243425
-0.264601 0.388619 -0.265149
0.465473 -0.372404 0.184058
0.492238 -0.372404 0.090989
0.354140 -0.372404 -0.353562
0.354140 -0.372404 0.353541
0.274189 -0.372404 -0.418493
0.369325 0.388619 0.068231
0.331893 0.587594 0.022816
0.465473 -0.372404 -0.184045
0.419078 -0.372404 0.273610
0.419078 -0.372404 -0.273597
0.331893 0.570726 0.061300
-0.212385 0.535657 -0.268187
0.430781 0.035300 0.079610
0.184633 -0.372404 -0.464907
0.184633 -0.372404 0.464886
0.274189 -0.372404 0.418507
0.500584 -0.372404 -0.000011
-0.187808 0.535657 -0.288147
-0.324478 0.535657 0.109465
-0.324478 0.535657 -0.109485
-0.324478 0.555678 0.094376
0.000584 -0.372404 0.499989
0.091547 -0.372404 -0.491666
0.091547 -0.372404 0.491645
0.000584 -0.372404 -0.500011
-0.090404 -0.372404 -0.491666
-0.319523 0.535657 0.126713
-0.305267 0.535657 0.154236
-0.287574 0.535657 0.188374
-0.267611 0.535657 0.212963
-0.242865 0.535657 0.243438
-0.187808 0.535657 0.288160
-0.160280 0.535657 0.302422
-0.218288 0.535657 0.263398
0.091817 0.535657 0.330304
0.063221 0.535657 0.338529
0.068806 0.388619 0.368748
-0.273021 -0.372404 0.418507
-0.273021 -0.372404 -0.418493
-0.183465 -0.372404 0.464886
-0.183465 -0.372404 -0.464907
-0.090404 -0.372404 0.491645
-0.499416 -0.372404 -0.000011
-0.491070 -0.372404 -0.090976
-0.491070 -0.372404 0.090989
0.028549 0.535657 0.341700
0.000584 0.535657 0.344261
0.000584 0.388619 0.374989
-0.324478 0.627596 -0.000011
-0.324478 0.609126 0.041926
-0.324478 0.620902 -0.015228
-0.324478 0.601117 0.060143
-0.324478 0.559240 -0.091723
-0.067663 0.388619 0.368748
-0.034100 0.535657 0.341089
0.268754 0.535657 -0.212968
0.127292 0.535657 -0.320091
-0.238823 0.035300 -0.366183
-0.308774 0.035300 -0.309355
-0.062065 0.535657 0.338529
-0.079046 0.035300 0.430196
-0.160478 0.035300 -0.406769
-0.324478 0.601117 -0.060154
-0.368157 0.388619 -0.068218
-0.097540 0.535657 0.328329
-0.126148 0.535657 0.320105
-0.137465 0.388619 0.348679
-0.464330 -0.372404 0.184058
-0.352972 -0.372404 0.353541
-0.352972 -0.372404 -0.353562
-0.348107 0.388619 -0.138045
-0.464330 -0.372404 -0.184045
-0.417935 -0.372404 -0.273597
-0.417935 -0.372404 0.273610
-0.160478 0.035300 0.406782
0.331893 0.597590 -0.000011
-0.319523 0.535657 -0.126717
-0.406206 0.035300 -0.161045
-0.238823 0.035300 0.366196
-0.204626 0.388619 0.313886
-0.429614 0.035300 -0.079597
0.138609 0.388619 -0.348666
-0.301830 0.535657 -0.160855
-0.287574 0.535657 -0.188395
-0.313293 0.388619 -0.205218
0.239967 0.035300 -0.366183
0.161621 0.035300 -0.406769
0.205769 0.388619 -0.313873
-0.365614 0.035300 -0.239390
0.161423 0.535657 -0.302409
0.154819 0.535657 0.305843
0.127292 0.535657 0.320105
0.309942 0.035300 -0.309355
0.000584 0.035300 0.437507
0.080189 0.035300 0.430196
-0.313293 0.388619 0.205196
-0.365614 0.035300 0.239403
-0.264601 0.388619 0.265162
-0.348107 0.388619 0.138024
-0.308774 0.035300 0.309369
-0.368157 0.388619 0.068231
-0.374428 0.388619 -0.000011
-0.406206 0.035300 0.161058
-0.429614 0.035300 0.079610
-0.436922 0.035300 -0.000011
0.080189 0.035300 -0.430183
0.407349 0.035300 0.161058
0.309942 0.035300 0.309369
0.366757 0.035300 0.239403
0.366757 0.035300 -0.239390
0.138609 0.388619 0.348679
0.205769 0.388619 0.313886
0.188951 0.535657 0.288160
0.161621 0.035300 0.406782
0.239967 0.035300 0.366196
0.328899 0.535657 0.098104
0.349251 0.388619 0.138024
0.331893 0.535657 0.087697
0.320666 0.535657 0.126713
0.265744 0.388619 -0.265149
0.302973 0.535657 0.160851
0.288717 0.535657 0.188374
0.314436 0.388619 0.205196
0.314436 0.388619 -0.205218
0.263972 0.535657 0.218849
0.244009 0.535657 0.243438
0.265744 0.388619 0.265162
0.213528 0.535657 0.268201
3 0 1 2
3 1 0 3
3 2 4 0
3 5 6 0
3 5 0 4
3 4 7 5
3 8 5 9
3 7 9 5
3 10 11 12
3 13 12 11
3 9 14 8
3 13 15 2
3 11 16 13
3 15 13 16
3 11 17 16
3 18 6 5
3 19 20 21
3 19 2 20
3 21 8 19
3 14 19 8
3 22 23 10
3 17 24 25
3 11 26 17
3 22 10 12
3 20 27 21
3 13 2 12
3 28 2 15
3 29 2 28
3 30 2 31
3 30 32 2
3 33 34 35
3 36 24 37
3 38 39 40
3 41 23 42
3 43 44 45
3 42 46 41
3 24 36 43
3 34 47 35
3 48 26 23
3 41 48 23
3 49 40 50
3 51 50 40
3 39 51 40
3 38 45 39
3 52 37 24
3 44 43 36
3 39 45 44
3 53 1 3
3 54 55 56
3 57 58 59
3 60 57 61
3 62 33 54
3 63 33 62
3 64 33 63
3 33 64 65
3 66 47 65
3 67 68 1
3 47 34 65
3 69 67 1
3 47 69 53
3 33 65 34
3 70 71 72
3 73 74 75
3 74 76 75
3 76 61 75
3 77 75 61
3 57 77 61
3 57 60 58
3 49 50 58
3 59 58 50
3 78 79 80
3 81 82 83
3 84 85 86
3 85 87 88
3 86 85 88
3 83 72 81
3 71 81 72
3 89 83 90
3 82 90 83
3 1 53 69
3 29 91 2
3 2 92 27
3 2 27 20
3 14 9 19
3 9 4 19
3 7 4 9
3 2 19 4
3 93 74 94
3 90 95 89
3 89 96 83
3 0 97 3
3 3 97 93
3 86 98 99
3 6 97 0
3 100 101 102
3 103 80 79
3 74 104 105
3 100 102 89
3 99 98 88
3 106 99 88
3 95 100 89
3 107 108 109
3 104 109 108
3 105 104 108
3 73 104 74
3 109 103 107
3 79 107 103
3 102 110 89
3 42 23 111
3 112 106 55
3 88 55 106
3 101 68 102
3 106 113 99
3 102 114 110
3 115 114 102
3 111 22 42
3 99 113 116
3 27 117 21
3 115 102 68
3 118 119 120
3 68 67 115
3 27 92 117
3 118 120 106
3 112 118 106
3 117 121 122
3 67 69 115
3 123 121 117
3 120 124 106
3 119 33 120
3 35 120 33
3 94 120 35
3 123 117 125
3 92 125 117
3 35 93 94
3 32 123 125
3 98 86 88
3 32 30 123
3 33 119 54
3 118 54 119
3 118 112 54
3 55 54 112
3 90 2 95
3 82 2 90
3 81 2 82
3 71 2 81
3 70 2 71
3 95 2 100
3 126 2 127
3 127 2 70
3 2 1 100
3 68 101 1
3 101 100 1
3 123 128 121
3 72 129 130
3 83 129 72
3 131 132 133
3 89 110 96
3 134 131 63
3 64 63 131
3 96 129 83
3 63 62 134
3 106 124 113
3 94 124 120
3 135 114 115
3 113 107 116
3 134 54 136
3 56 136 54
3 62 54 134
3 96 77 129
3 137 85 84
3 131 134 138
3 131 138 132
3 134 139 138
3 134 136 139
3 140 139 136
3 8 18 5
3 141 18 8
3 44 36 142
3 21 141 8
3 117 122 21
3 37 52 26
3 143 51 39
3 21 122 141
3 48 37 26
3 144 44 142
3 97 76 93
3 142 36 48
3 39 44 144
3 143 39 144
3 36 37 48
3 26 52 17
3 141 58 18
3 145 45 128
3 43 45 145
3 25 43 145
3 69 66 133
3 66 65 133
3 69 47 66
3 133 115 69
3 25 24 43
3 131 133 65
3 65 64 131
3 126 127 146
3 17 52 24
3 146 147 126
3 148 126 147
3 146 149 147
3 139 80 138
3 103 132 138
3 110 114 73
3 147 149 150
3 75 77 96
3 127 70 146
3 72 146 70
3 80 139 140
3 110 75 96
3 146 130 149
3 57 59 130
3 129 57 130
3 72 130 146
3 133 135 115
3 129 77 57
3 133 132 135
3 150 51 143
3 73 75 110
3 149 59 50
3 104 114 135
3 6 61 97
3 132 109 135
3 60 61 6
3 18 60 6
3 138 80 103
3 136 87 137
3 85 137 87
3 132 103 109
3 137 140 136
3 84 86 137
3 73 114 104
3 137 116 140
3 76 97 61
3 99 116 137
3 93 76 74
3 109 104 135
3 18 58 60
3 99 137 86
3 140 78 80
3 56 87 136
3 130 59 149
3 87 56 88
3 55 88 56
3 94 105 124
3 124 108 113
3 50 51 150
3 94 74 105
3 50 150 149
3 141 122 49
3 116 78 140
3 38 40 121
3 116 79 78
3 128 38 121
3 108 107 113
3 122 40 49
3 116 107 79
3 122 121 40
3 105 108 124
3 151 152 153
3 152 41 153
3 46 153 41
3 151 154 152
3 49 58 141
3 152 142 41
3 45 38 128
3 91 31 2
3 92 2 125
3 30 31 155
3 41 142 48
3 31 91 155
3 125 2 32
3 156 157 158
3 155 123 30
3 156 2 157
3 155 128 123
3 158 152 156
3 154 156 152
3 159 155 91
3 152 144 142
3 91 29 159
3 158 144 152
3 159 145 155
3 160 161 162
3 160 2 161
3 162 158 160
3 157 160 158
3 16 159 28
3 162 143 158
3 29 28 159
3 28 15 16
3 162 150 143
3 158 143 144
3 3 35 47
3 47 53 3
3 147 162 163
3 161 163 162
3 93 35 3
3 148 147 163
3 162 147 150
3 23 22 111
3 12 42 22
3 11 10 23
3 11 23 26
3 12 153 46
3 12 46 42
3 163 2 148
3 148 2 126
3 161 2 163
3 157 2 160
3 154 2 156
3 151 2 154
3 153 2 151
3 12 2 153
3 155 145 128
3 159 16 25
3 25 145 159
3 16 17 25
