ply
format ascii 1.0
comment Created by Blender 2.76 (sub 0) - www.blender.org, source file: ''
element vertex 649
property float x
property float y
property float z
element face 1294
property list uchar uint vertex_indices
end_header
0.250000 -0.166545 -0.433000
-0.250000 -0.166545 -0.433000
0.171000 -0.166545 -0.469850
0.321400 -0.166545 -0.383000
-0.099150 0.316405 -0.083200
-0.066500 0.325855 -0.055800
-0.083200 0.316405 -0.099150
0.359900 0.154855 -0.131000
0.377200 0.154855 -0.066500
0.384900 0.120255 -0.140100
0.500000 -0.166545 -0.000000
-0.383000 -0.166545 -0.321400
0.492400 -0.166545 -0.086800
-0.191500 0.154855 -0.331700
-0.263250 0.120255 -0.313750
-0.246200 0.154855 -0.293400
0.469850 -0.166545 0.171000
0.492400 -0.166545 0.086800
0.469850 -0.166545 -0.171000
0.433000 -0.166545 -0.250000
0.433000 -0.166545 0.250000
-0.204800 0.120255 -0.354700
-0.469850 -0.166545 -0.171000
-0.468050 -0.122945 -0.170350
-0.431350 -0.122945 -0.249050
-0.216500 0.083455 -0.375000
-0.140100 0.120255 -0.384900
0.086800 -0.166545 -0.492400
0.383000 -0.166545 -0.321400
-0.321400 -0.166545 -0.383000
-0.171000 -0.166545 -0.469850
-0.086800 -0.166545 -0.492400
-0.492400 -0.166545 -0.086800
0.000000 -0.166545 -0.500000
-0.490550 -0.122945 -0.086500
-0.058500 0.303305 0.160700
-0.036700 0.286605 0.208100
-0.029700 0.303305 0.168400
0.354700 0.120255 -0.204800
0.331700 0.154855 -0.191500
-0.500000 -0.166545 -0.000000
0.000000 0.286605 0.211300
0.313750 0.120255 -0.263250
-0.433000 -0.166545 -0.250000
0.000000 0.303305 0.171000
0.293400 0.154855 -0.246200
0.029700 0.303305 0.168400
0.036700 0.286605 0.208100
-0.321400 -0.166545 0.383000
-0.383000 -0.166545 0.321400
-0.109900 0.303305 -0.131000
-0.072250 0.286605 0.198550
-0.043400 0.266455 0.246200
-0.148100 0.303305 -0.085500
-0.112050 0.316405 -0.064700
0.072250 0.286605 0.198550
-0.462700 0.004455 0.081600
-0.453850 -0.037145 0.165200
-0.441500 0.004455 0.160700
0.000000 0.266455 0.250000
-0.131000 0.303305 -0.109900
0.403350 0.120255 -0.071100
0.043400 0.266455 0.246200
-0.492400 -0.166545 0.086800
0.383000 -0.166545 0.321400
0.321400 -0.166545 0.383000
-0.278350 0.083455 -0.331700
-0.331700 0.083455 -0.278350
-0.313750 0.120255 -0.263250
-0.469850 0.004455 -0.000000
-0.475650 -0.037145 0.083850
-0.482950 -0.037145 -0.000000
0.409600 0.120255 -0.000000
0.426450 0.083455 -0.075200
-0.099150 0.316405 0.083200
-0.131000 0.303305 0.109900
-0.083200 0.316405 0.099150
-0.109900 0.303305 0.131000
0.086800 -0.166545 0.492400
0.171000 -0.166545 0.469850
0.250000 -0.166545 0.433000
-0.085500 0.303305 0.148100
-0.064700 0.316405 0.112050
-0.226600 0.044755 -0.392450
-0.291300 0.044755 -0.347150
0.406900 0.083455 -0.148100
-0.302000 0.004455 -0.359900
-0.086800 -0.166545 0.492400
-0.171000 -0.166545 0.469850
0.000000 -0.166545 0.500000
0.375000 0.083455 -0.216500
-0.234900 0.004455 -0.406900
0.208100 0.286605 -0.036700
0.198550 0.286605 -0.072250
0.168400 0.303305 -0.029700
-0.044250 0.316405 0.121600
0.331700 0.083455 -0.278350
-0.250000 -0.166545 0.433000
0.160700 0.303305 -0.058500
-0.462700 -0.079745 0.168400
-0.469850 -0.166545 0.171000
-0.293400 0.154855 -0.246200
0.183000 0.286605 -0.105650
-0.433000 -0.166545 0.250000
0.425850 0.044755 -0.155000
-0.161850 0.286605 0.135850
-0.135850 0.286605 0.161850
0.049800 0.243055 0.282450
0.446250 0.044755 -0.078700
-0.375000 0.083455 -0.216500
-0.484900 -0.079745 0.085500
-0.492400 -0.079745 -0.000000
-0.392450 0.044755 -0.226600
0.234900 0.266455 -0.085500
-0.347150 0.044755 -0.291300
0.085500 0.266455 -0.234900
0.072250 0.286605 -0.198550
0.105650 0.286605 -0.183000
0.246200 0.266455 -0.043400
0.125000 0.266455 -0.216500
0.216500 0.266455 -0.125000
0.043400 0.266455 -0.246200
-0.359900 0.004455 -0.302000
-0.105650 0.286605 0.183000
-0.490550 -0.122945 0.086500
-0.125000 0.266455 0.216500
-0.098100 0.243055 0.269500
-0.085500 0.266455 0.234900
-0.498100 -0.122945 -0.000000
-0.468050 -0.122945 0.170350
-0.143400 0.243055 0.248350
-0.049800 0.243055 0.282450
0.248350 0.243055 -0.143400
0.246200 0.216455 -0.206600
0.219700 0.243055 -0.184350
0.000000 0.243055 0.286800
-0.484900 -0.079745 -0.085500
0.000000 0.004455 -0.469850
-0.083850 -0.037145 -0.475650
-0.081600 0.004455 -0.462700
0.282450 0.243055 0.049800
0.321400 0.216455 -0.000000
0.286800 0.243055 -0.000000
-0.160700 0.266455 0.191500
0.000000 -0.037145 -0.482950
0.316500 0.216455 0.055800
0.302000 0.216455 0.109900
0.348200 0.187005 0.061400
0.000000 -0.079745 -0.492400
-0.085500 -0.079745 -0.484900
-0.109900 0.216455 0.302000
-0.086500 -0.122945 -0.490550
-0.055800 0.216455 0.316500
0.353550 0.187005 -0.000000
-0.055800 0.325855 -0.066500
0.000000 0.216455 0.321400
0.085500 0.266455 0.234900
-0.075200 0.325855 -0.043400
0.098100 0.243055 0.269500
0.143400 0.243055 0.248350
-0.121600 0.316405 -0.044250
0.125000 0.266455 0.216500
0.160700 0.266455 -0.191500
0.191500 0.266455 -0.160700
0.184350 0.243055 -0.219700
0.383000 0.154855 -0.000000
0.000000 -0.122945 -0.498100
-0.081600 0.325855 -0.029700
-0.127450 0.316405 -0.022450
-0.085500 0.325855 -0.015100
0.377200 0.154855 0.066500
-0.171000 0.303305 -0.000000
-0.208100 0.286605 0.036700
-0.168400 0.303305 0.029700
-0.211300 0.286605 -0.000000
-0.198550 0.286605 0.072250
0.184350 0.243055 0.219700
-0.168400 0.303305 -0.029700
-0.160700 0.303305 0.058500
-0.120900 0.187005 0.332250
-0.061400 0.187005 0.348200
0.098100 0.243055 -0.269500
-0.250000 0.266455 -0.000000
-0.246200 0.266455 0.043400
-0.165200 -0.037145 -0.453850
-0.160700 0.004455 -0.441500
0.293400 0.154855 0.246200
0.313750 0.120255 0.263250
0.354700 0.120255 0.204800
-0.241500 -0.037145 -0.418250
0.000000 0.187005 0.353550
-0.246200 -0.079745 -0.426450
0.269500 0.243055 0.098100
-0.234900 0.266455 0.085500
0.332250 0.187005 0.120900
0.278350 0.216455 0.160700
0.055800 0.325855 -0.066500
0.066500 0.325855 -0.055800
0.083200 0.316405 -0.099150
0.064700 0.316405 -0.112050
-0.168400 -0.079745 -0.462700
-0.216500 0.266455 0.125000
0.246200 0.216455 0.206600
0.306200 0.187005 0.176800
0.263250 0.120255 0.313750
0.331700 0.083455 0.278350
0.278350 0.083455 0.331700
0.270850 0.187005 0.227250
0.375000 0.083455 0.216500
0.043400 0.325855 -0.075200
-0.316500 -0.079745 -0.377200
0.000000 0.154855 0.383000
-0.066500 0.154855 0.377200
0.331700 0.154855 0.191500
0.406900 0.083455 0.148100
-0.170350 -0.122945 -0.468050
0.359900 0.154855 0.131000
-0.249050 -0.122945 -0.431350
0.131000 0.303305 -0.109900
0.099150 0.316405 -0.083200
0.112050 0.316405 -0.064700
-0.131000 0.154855 0.359900
0.109900 0.303305 -0.131000
-0.191500 0.266455 -0.160700
-0.216500 0.266455 -0.125000
-0.161850 0.286605 -0.135850
0.384900 0.120255 0.140100
0.148100 0.303305 -0.085500
-0.282450 0.243055 0.049800
-0.286800 0.243055 -0.000000
-0.269500 0.243055 0.098100
0.161850 0.286605 -0.135850
0.291300 0.044755 0.347150
0.347150 0.044755 0.291300
0.392450 0.044755 0.226600
-0.248350 0.243055 0.143400
-0.183000 0.286605 0.105650
-0.071100 0.120255 0.403350
0.403350 0.120255 0.071100
0.426450 0.083455 0.075200
0.406900 0.004455 0.234900
0.000000 0.120255 0.409600
0.121600 0.316405 -0.044250
0.081600 0.325855 -0.029700
0.085500 0.325855 -0.015100
-0.191500 0.266455 0.160700
0.109900 0.216455 0.302000
0.033400 0.331555 -0.028000
0.037750 0.331555 -0.021800
0.055800 0.216455 0.316500
-0.140100 0.120255 0.384900
-0.310450 -0.037145 -0.369950
-0.160700 0.266455 -0.191500
-0.219700 0.243055 0.184350
0.127450 0.316405 -0.022450
0.433000 0.083455 -0.000000
-0.369950 -0.037145 -0.310450
-0.184350 0.243055 0.219700
0.075200 0.325855 -0.043400
-0.377200 -0.079745 -0.316500
-0.320150 -0.122945 -0.381550
-0.184350 0.243055 -0.219700
-0.246200 0.216455 -0.206600
-0.219700 0.243055 -0.184350
-0.381550 -0.122945 -0.320150
-0.278350 0.216455 -0.160700
-0.248350 0.243055 -0.143400
0.425850 0.044755 0.155000
-0.302000 0.216455 -0.109900
0.446250 0.044755 0.078700
-0.160700 0.303305 -0.058500
-0.332250 0.187005 -0.120900
0.143400 0.243055 -0.248350
-0.269500 0.243055 -0.098100
0.453150 0.044755 -0.000000
-0.316500 0.216455 -0.055800
-0.282450 0.243055 -0.049800
0.246200 0.154855 -0.293400
0.270850 0.187005 -0.227250
-0.406900 0.004455 -0.234900
0.160700 0.216455 0.278350
0.206600 0.216455 0.246200
-0.306200 0.187005 -0.176800
-0.270850 0.187005 -0.227250
0.462700 0.004455 0.081600
0.469850 0.004455 -0.000000
-0.204800 0.120255 0.354700
-0.148100 0.083455 0.406900
-0.198550 0.286605 -0.072250
-0.183000 0.286605 -0.105650
-0.348200 0.187005 -0.061400
-0.075200 0.083455 0.426450
0.263250 0.120255 -0.313750
0.278350 0.083455 -0.331700
0.000000 0.083455 0.433000
0.219700 0.243055 0.184350
-0.208100 0.286605 -0.036700
0.248350 0.243055 0.143400
0.227250 0.187005 0.270850
-0.418250 -0.037145 -0.241500
0.392450 0.044755 -0.226600
-0.331700 0.154855 -0.191500
0.246200 0.154855 0.293400
0.347150 0.044755 -0.291300
-0.359900 0.154855 -0.131000
-0.234900 0.266455 -0.085500
-0.426450 -0.079745 -0.246200
0.000000 0.044755 0.453150
0.406900 0.004455 -0.234900
0.359900 0.004455 -0.302000
-0.078700 0.044755 0.446250
0.441500 0.004455 -0.160700
-0.377200 0.154855 -0.066500
-0.246200 0.266455 -0.043400
0.291300 0.044755 -0.347150
0.075200 0.083455 0.426450
0.418250 -0.037145 -0.241500
0.453850 -0.037145 -0.165200
-0.354700 0.120255 -0.204800
0.302000 0.004455 -0.359900
-0.321400 0.216455 -0.000000
-0.316500 0.216455 0.055800
-0.462700 -0.079745 -0.168400
0.061400 0.187005 0.348200
-0.302000 0.216455 0.109900
0.148100 0.083455 -0.406900
0.078700 0.044755 -0.446250
0.075200 0.083455 -0.426450
0.120900 0.187005 0.332250
-0.348200 0.187005 0.061400
-0.353550 0.187005 -0.000000
0.176800 0.187005 0.306200
0.131000 0.154855 0.359900
0.462700 0.004455 -0.081600
0.191500 0.154855 0.331700
0.042900 0.331555 0.007550
0.085500 0.325855 0.015100
0.086800 0.325855 -0.000000
-0.155000 0.044755 0.425850
-0.081600 0.004455 0.462700
0.043600 0.331555 -0.000000
0.160700 0.303305 0.058500
0.208100 0.286605 0.036700
0.168400 0.303305 0.029700
0.000000 0.004455 0.469850
0.198550 0.286605 0.072250
0.441500 0.004455 0.160700
0.453850 -0.037145 0.165200
0.475650 -0.037145 0.083850
0.211300 0.286605 -0.000000
0.250000 0.266455 -0.000000
0.171000 0.303305 -0.000000
-0.246200 0.216455 0.206600
-0.206600 0.216455 0.246200
-0.160700 0.216455 0.278350
0.234900 0.266455 0.085500
0.246200 0.266455 0.043400
-0.278350 0.216455 0.160700
0.120900 0.187005 -0.332250
0.066500 0.154855 -0.377200
0.061400 0.187005 -0.348200
0.131000 0.154855 -0.359900
-0.332250 0.187005 0.120900
-0.306200 0.187005 0.176800
0.029700 0.303305 -0.168400
0.000000 0.303305 -0.171000
0.022450 0.316405 -0.127450
-0.359900 0.154855 0.131000
0.000000 0.266455 -0.250000
-0.043400 0.266455 -0.246200
0.000000 0.286605 -0.211300
0.216500 0.266455 0.125000
-0.049800 0.243055 -0.282450
0.071100 0.120255 -0.403350
-0.270850 0.187005 0.227250
-0.227250 0.187005 0.270850
-0.176800 0.187005 0.306200
0.206600 0.216455 -0.246200
0.160700 0.216455 -0.278350
-0.036700 0.286605 -0.208100
-0.029700 0.303305 -0.168400
0.109900 0.216455 -0.302000
-0.098100 0.243055 -0.269500
-0.143400 0.243055 -0.248350
-0.085500 0.266455 -0.234900
-0.125000 0.266455 -0.216500
0.058500 0.303305 -0.160700
0.036700 0.286605 -0.208100
-0.331700 0.154855 0.191500
0.049800 0.243055 -0.282450
0.055800 0.216455 -0.316500
0.042900 0.331555 -0.007550
0.000000 0.333455 -0.000000
0.040950 0.331555 0.014900
0.000000 0.243055 -0.286800
0.081600 0.325855 0.029700
0.000000 0.216455 -0.321400
0.127450 0.316405 0.022450
0.227250 0.187005 -0.270850
0.176800 0.187005 -0.306200
-0.293400 0.154855 0.246200
-0.246200 0.154855 0.293400
-0.191500 0.154855 0.331700
0.075200 0.325855 0.043400
0.121600 0.316405 0.044250
0.191500 0.154855 -0.331700
0.129400 0.316405 -0.000000
0.000000 0.044755 -0.453150
0.000000 0.083455 -0.433000
-0.384900 0.120255 -0.140100
-0.078700 0.044755 -0.446250
-0.313750 0.120255 0.263250
-0.403350 0.120255 -0.071100
-0.406900 0.083455 -0.148100
-0.075200 0.083455 -0.426450
0.066500 0.154855 0.377200
0.204800 0.120255 -0.354700
-0.155000 0.044755 -0.425850
-0.148100 0.083455 -0.406900
0.140100 0.120255 -0.384900
0.040950 0.331555 -0.014900
-0.426450 0.083455 -0.075200
-0.055800 0.216455 -0.316500
0.216500 0.083455 -0.375000
0.021800 0.331555 -0.037750
0.014900 0.331555 -0.040950
0.007550 0.331555 -0.042900
0.000000 0.187005 -0.353550
0.000000 0.331555 -0.043600
0.033400 0.331555 0.028000
0.028000 0.331555 0.033400
0.066500 0.325855 0.055800
-0.425850 0.044755 -0.155000
-0.007550 0.331555 -0.042900
0.071100 0.120255 0.403350
-0.061400 0.187005 -0.348200
-0.014900 0.331555 -0.040950
-0.446250 0.044755 -0.078700
-0.021800 0.331555 -0.037750
-0.120900 0.187005 -0.332250
-0.028000 0.331555 -0.033400
-0.033400 0.331555 -0.028000
0.226600 0.044755 -0.392450
-0.037750 0.331555 -0.021800
0.155000 0.044755 -0.425850
-0.040950 0.331555 -0.014900
-0.022450 0.316405 -0.127450
0.000000 0.316405 -0.129400
-0.042900 0.331555 -0.007550
0.000000 0.154855 -0.383000
0.140100 0.120255 0.384900
-0.066500 0.154855 -0.377200
0.037750 0.331555 0.021800
-0.383000 0.154855 -0.000000
-0.377200 0.154855 0.066500
0.044250 0.316405 -0.121600
-0.131000 0.154855 -0.359900
-0.403350 0.120255 0.071100
0.055800 0.325855 0.066500
0.099150 0.316405 0.083200
0.083200 0.316405 0.099150
0.112050 0.316405 0.064700
-0.044250 0.316405 -0.121600
-0.058500 0.303305 -0.160700
-0.409600 0.120255 -0.000000
0.369950 -0.037145 -0.310450
-0.007550 0.331555 0.042900
0.000000 0.331555 0.043600
0.007550 0.331555 0.042900
-0.085500 0.303305 -0.148100
-0.064700 0.316405 -0.112050
0.014900 0.331555 0.040950
0.021800 0.331555 0.037750
-0.354700 0.120255 0.204800
0.204800 0.120255 0.354700
-0.426450 0.083455 0.075200
0.148100 0.303305 0.085500
0.377200 -0.079745 -0.316500
-0.072250 0.286605 -0.198550
-0.384900 0.120255 0.140100
0.310450 -0.037145 -0.369950
-0.375000 0.083455 0.216500
-0.331700 0.083455 0.278350
-0.109900 0.216455 -0.302000
0.426450 -0.079745 -0.246200
-0.263250 0.120255 0.313750
0.000000 0.325855 0.086800
-0.160700 0.216455 -0.278350
-0.433000 0.083455 -0.000000
-0.406900 0.083455 0.148100
0.216500 0.083455 0.375000
0.029700 0.325855 0.081600
-0.291300 0.044755 0.347150
-0.347150 0.044755 0.291300
0.000000 0.120255 -0.409600
0.316500 -0.079745 -0.377200
-0.071100 0.120255 -0.403350
-0.453150 0.044755 -0.000000
-0.446250 0.044755 0.078700
-0.042900 0.331555 0.007550
-0.043600 0.331555 -0.000000
-0.040950 0.331555 0.014900
-0.278350 0.083455 0.331700
0.381550 -0.122945 -0.320150
0.148100 0.083455 0.406900
-0.216500 0.083455 0.375000
0.431350 -0.122945 -0.249050
-0.037750 0.331555 0.021800
-0.425850 0.044755 0.155000
0.320150 -0.122945 -0.381550
0.249050 -0.122945 -0.431350
-0.033400 0.331555 0.028000
-0.105650 0.286605 -0.183000
-0.028000 0.331555 0.033400
-0.226600 0.044755 0.392450
-0.021800 0.331555 0.037750
0.226600 0.044755 0.392450
-0.014900 0.331555 0.040950
0.302000 0.004455 0.359900
0.081600 0.004455 -0.462700
0.160700 0.004455 -0.441500
-0.234900 0.004455 0.406900
0.083850 -0.037145 -0.475650
-0.135850 0.286605 -0.161850
-0.441500 0.004455 -0.160700
-0.206600 0.216455 -0.246200
-0.227250 0.187005 -0.270850
0.078700 0.044755 0.446250
-0.462700 0.004455 -0.081600
0.155000 0.044755 0.425850
-0.176800 0.187005 -0.306200
0.165200 -0.037145 -0.453850
-0.475650 -0.037145 -0.083850
0.131000 0.303305 0.109900
0.161850 0.286605 0.135850
0.183000 0.286605 0.105650
0.085500 -0.079745 -0.484900
0.191500 0.266455 0.160700
-0.453850 -0.037145 -0.165200
0.359900 0.004455 0.302000
0.168400 -0.079745 -0.462700
0.015100 0.325855 -0.085500
0.000000 0.325855 -0.086800
0.029700 0.325855 -0.081600
0.160700 0.266455 0.191500
0.246200 -0.079745 -0.426450
0.241500 -0.037145 -0.418250
0.310450 -0.037145 0.369950
0.369950 -0.037145 0.310450
0.170350 -0.122945 -0.468050
0.418250 -0.037145 0.241500
0.086500 -0.122945 -0.490550
0.085500 0.303305 0.148100
0.064700 0.316405 0.112050
0.044250 0.316405 0.121600
0.316500 -0.079745 0.377200
0.426450 -0.079745 0.246200
0.109900 0.303305 0.131000
-0.015100 0.325855 -0.085500
0.377200 -0.079745 0.316500
-0.029700 0.325855 -0.081600
-0.075200 0.325855 0.043400
0.135850 0.286605 0.161850
-0.066500 0.325855 0.055800
0.105650 0.286605 0.183000
0.381550 -0.122945 0.320150
0.320150 -0.122945 0.381550
0.431350 -0.122945 0.249050
-0.043400 0.325855 -0.075200
-0.015100 0.325855 0.085500
0.058500 0.303305 0.160700
0.234900 0.004455 -0.406900
0.015100 0.325855 0.085500
0.000000 -0.037145 0.482950
0.249050 -0.122945 0.431350
0.043400 0.325855 0.075200
0.282450 0.243055 -0.049800
0.269500 0.243055 -0.098100
0.234900 0.004455 0.406900
-0.083850 -0.037145 0.475650
0.028000 0.331555 -0.033400
0.475650 -0.037145 -0.083850
0.081600 0.004455 0.462700
0.000000 0.316405 0.129400
0.022450 0.316405 0.127450
0.462700 -0.079745 -0.168400
0.484900 -0.079745 -0.085500
0.160700 0.004455 0.441500
0.165200 -0.037145 0.453850
0.135850 0.286605 -0.161850
0.083850 -0.037145 0.475650
0.000000 -0.079745 0.492400
-0.085500 -0.079745 0.484900
0.468050 -0.122945 -0.170350
0.490550 -0.122945 -0.086500
0.085500 -0.079745 0.484900
-0.055800 0.325855 0.066500
-0.029700 0.325855 0.081600
-0.043400 0.325855 0.075200
0.241500 -0.037145 0.418250
-0.086500 -0.122945 0.490550
0.000000 -0.122945 0.498100
0.498100 -0.122945 -0.000000
0.085500 0.303305 -0.148100
0.168400 -0.079745 0.462700
-0.022450 0.316405 0.127450
0.246200 -0.079745 0.426450
-0.085500 0.325855 0.015100
-0.359900 0.004455 0.302000
-0.086800 0.325855 -0.000000
-0.081600 0.325855 0.029700
-0.302000 0.004455 0.359900
0.482950 -0.037145 -0.000000
0.484900 -0.079745 0.085500
-0.121600 0.316405 0.044250
-0.310450 -0.037145 0.369950
-0.241500 -0.037145 0.418250
-0.316500 -0.079745 0.377200
-0.377200 -0.079745 0.316500
0.086500 -0.122945 0.490550
0.170350 -0.122945 0.468050
-0.381550 -0.122945 0.320150
-0.320150 -0.122945 0.381550
-0.249050 -0.122945 0.431350
0.462700 -0.079745 0.168400
-0.129400 0.316405 -0.000000
-0.127450 0.316405 0.022450
0.492400 -0.079745 -0.000000
-0.160700 0.004455 0.441500
0.468050 -0.122945 0.170350
-0.165200 -0.037145 0.453850
0.490550 -0.122945 0.086500
-0.112050 0.316405 0.064700
0.316500 0.216455 -0.055800
0.302000 0.216455 -0.109900
-0.246200 -0.079745 0.426450
0.278350 0.216455 -0.160700
0.348200 0.187005 -0.061400
0.332250 0.187005 -0.120900
-0.168400 -0.079745 0.462700
-0.170350 -0.122945 0.468050
0.306200 0.187005 -0.176800
-0.148100 0.303305 0.085500
-0.392450 0.044755 0.226600
-0.406900 0.004455 0.234900
-0.418250 -0.037145 0.241500
-0.369950 -0.037145 0.310450
-0.426450 -0.079745 0.246200
-0.431350 -0.122945 0.249050
3 0 1 2
3 3 1 0
3 4 5 6
3 7 8 9
3 10 11 12
3 13 14 15
3 16 11 17
3 17 11 10
3 12 11 18
3 19 18 11
3 20 11 16
3 21 14 13
3 22 23 24
3 25 21 26
3 27 2 1
3 28 29 3
3 30 31 1
3 22 32 23
3 33 27 1
3 33 1 31
3 23 32 34
3 35 36 37
3 7 38 39
3 32 40 34
3 37 36 41
3 39 38 42
3 11 20 43
3 44 37 41
3 39 42 45
3 46 44 47
3 28 19 29
3 11 29 19
3 1 3 29
3 48 49 20
3 6 50 4
3 44 41 47
3 51 52 36
3 4 53 54
3 55 46 47
3 43 20 22
3 22 20 32
3 56 57 58
3 36 59 41
3 60 53 4
3 36 52 59
3 8 61 9
3 41 59 62
3 32 20 40
3 40 20 63
3 38 7 9
3 64 65 20
3 21 66 14
3 21 25 66
3 67 68 66
3 69 70 56
3 69 71 70
3 72 73 61
3 74 75 76
3 77 76 75
3 78 20 79
3 80 79 20
3 65 80 20
3 76 81 82
3 70 57 56
3 83 84 25
3 61 73 85
3 76 77 81
3 82 81 35
3 83 86 84
3 25 84 66
3 87 88 20
3 89 87 20
3 78 89 20
3 61 85 9
3 9 90 38
3 90 9 85
3 91 86 83
3 92 93 94
3 82 35 95
3 38 90 96
3 97 20 88
3 94 93 98
3 48 20 97
3 99 57 70
3 63 20 100
3 15 14 101
3 68 101 14
3 93 102 98
3 100 20 103
3 103 20 49
3 73 104 85
3 77 75 105
3 106 77 105
3 14 66 68
3 59 107 62
3 73 108 104
3 68 67 109
3 110 71 111
3 41 62 47
3 112 109 67
3 92 113 93
3 84 114 67
3 84 67 66
3 115 116 117
3 71 110 70
3 118 113 92
3 119 115 117
3 112 67 114
3 110 99 70
3 113 120 93
3 115 121 116
3 114 84 122
3 77 106 123
3 111 124 110
3 125 126 127
3 111 128 124
3 124 129 110
3 77 123 81
3 126 125 130
3 123 51 81
3 127 126 131
3 123 127 51
3 123 125 127
3 132 133 134
3 110 129 99
3 127 131 52
3 51 35 81
3 52 131 135
3 52 135 59
3 35 51 36
3 107 59 135
3 136 34 128
3 137 138 139
3 140 141 142
3 143 125 106
3 144 138 137
3 128 111 136
3 145 141 140
3 128 40 63
3 125 123 106
3 128 63 124
3 124 100 129
3 51 127 52
3 145 146 147
3 124 63 100
3 148 149 144
3 150 126 130
3 100 103 129
3 148 151 149
3 126 150 152
3 147 153 145
3 144 149 138
3 34 40 128
3 126 152 131
3 145 153 141
3 154 6 5
3 135 131 155
3 4 54 5
3 156 47 62
3 54 157 5
3 156 158 159
3 157 54 160
3 156 159 161
3 162 163 164
3 147 165 153
3 166 151 148
3 157 160 167
3 167 168 169
3 147 170 165
3 158 156 62
3 160 168 167
3 165 8 153
3 171 172 173
3 107 158 62
3 172 171 174
3 61 8 165
3 172 175 173
3 161 159 176
3 33 31 166
3 177 168 160
3 173 175 178
3 166 31 151
3 72 165 170
3 151 31 30
3 179 180 150
3 150 180 152
3 181 115 119
3 174 171 177
3 174 182 183
3 139 184 185
3 186 187 188
3 155 131 152
3 138 184 139
3 184 189 185
3 190 155 152
3 184 191 189
3 183 172 174
3 145 192 146
3 172 193 175
3 194 146 195
3 196 197 198
3 198 199 196
3 183 193 172
3 138 200 184
3 194 147 146
3 149 200 138
3 193 201 175
3 192 145 140
3 202 203 195
3 187 204 205
3 206 205 204
3 202 207 203
3 187 205 208
3 196 199 209
3 200 191 184
3 152 180 190
3 191 210 189
3 194 195 203
3 180 211 190
3 180 212 211
3 187 208 188
3 207 186 213
3 188 208 214
3 151 215 149
3 213 203 207
3 203 216 194
3 203 213 216
3 149 215 200
3 215 217 200
3 194 170 147
3 179 212 180
3 218 219 220
3 194 216 170
3 179 221 212
3 198 219 222
3 218 222 219
3 200 217 191
3 223 224 225
3 213 226 216
3 102 227 98
3 182 228 183
3 228 182 229
3 230 193 183
3 102 231 227
3 232 233 205
3 232 205 206
3 30 215 151
3 205 234 208
3 213 186 188
3 193 230 235
3 205 233 234
3 30 1 215
3 215 1 217
3 175 236 178
3 29 217 1
3 226 213 188
3 221 237 212
3 216 226 238
3 226 239 238
3 233 240 234
3 241 211 212
3 170 216 238
3 185 189 91
3 242 243 244
3 201 236 175
3 236 245 105
3 201 245 236
3 72 170 238
3 106 105 143
3 245 143 105
3 72 61 165
3 158 107 246
3 247 248 197
3 122 84 86
3 249 246 107
3 237 221 250
3 188 214 226
3 228 230 183
3 189 251 91
3 252 223 225
3 235 201 193
3 189 210 251
3 239 226 214
3 201 253 245
3 91 251 86
3 244 254 242
3 238 239 255
3 235 253 201
3 86 251 122
3 256 122 251
3 254 98 242
3 94 98 254
3 257 143 253
3 245 253 143
3 143 257 130
3 238 255 72
3 243 220 258
3 210 259 251
3 256 251 259
3 143 130 125
3 242 220 243
3 191 260 210
3 72 255 73
3 217 260 191
3 258 219 197
3 261 262 263
3 259 210 264
3 260 264 210
3 220 219 258
3 263 223 261
3 223 252 261
3 219 198 197
3 263 265 266
3 29 260 217
3 267 214 208
3 263 266 223
3 223 266 224
3 262 265 263
3 29 11 260
3 264 260 11
3 208 234 267
3 265 268 266
3 214 267 269
3 53 270 54
3 265 271 268
3 272 181 119
3 54 270 160
3 242 227 220
3 214 269 239
3 98 227 242
3 270 177 160
3 273 266 268
3 274 255 239
3 268 275 273
3 269 274 239
3 273 275 276
3 255 274 108
3 45 277 278
3 114 279 112
3 280 159 158
3 158 246 280
3 159 280 281
3 122 279 114
3 262 282 265
3 255 108 73
3 262 283 282
3 171 168 177
3 237 241 212
3 281 176 159
3 284 269 267
3 281 202 176
3 269 284 285
3 282 271 265
3 286 287 250
3 288 53 289
3 42 38 96
3 268 290 275
3 250 291 237
3 250 287 291
3 270 53 288
3 271 290 268
3 292 42 293
3 96 293 42
3 294 237 291
3 176 202 295
3 270 296 177
3 297 295 195
3 280 298 281
3 288 296 270
3 295 202 195
3 297 195 146
3 202 281 207
3 298 207 281
3 296 174 177
3 122 299 279
3 192 297 146
3 256 299 122
3 85 104 300
3 283 101 301
3 174 296 182
3 301 282 283
3 224 289 225
3 300 90 85
3 207 298 186
3 302 186 298
3 90 300 303
3 282 304 271
3 289 305 288
3 256 306 299
3 304 282 301
3 291 307 294
3 300 308 309
3 204 187 302
3 291 310 307
3 224 305 289
3 300 309 303
3 108 311 104
3 135 155 249
3 271 312 290
3 305 313 288
3 90 303 96
3 237 294 241
3 304 312 271
3 293 96 314
3 303 314 96
3 241 294 315
3 313 296 288
3 259 306 256
3 316 311 317
3 313 182 296
3 318 301 101
3 101 68 318
3 273 305 224
3 303 319 314
3 266 273 224
3 264 24 259
3 273 276 305
3 305 276 313
3 229 320 321
3 276 229 313
3 259 24 306
3 23 322 306
3 313 229 182
3 249 107 135
3 321 228 229
3 323 249 155
3 321 324 228
3 155 190 323
3 325 326 327
3 229 276 320
3 287 310 291
3 249 323 328
3 276 275 320
3 320 329 321
3 246 249 328
3 330 329 320
3 246 328 331
3 285 274 269
3 332 328 323
3 285 333 274
3 328 332 334
3 335 336 337
3 338 339 310
3 335 337 340
3 341 342 343
3 275 290 330
3 310 339 344
3 341 345 342
3 330 320 275
3 346 347 348
3 310 344 307
3 343 342 349
3 342 350 349
3 343 349 351
3 351 92 94
3 351 349 92
3 352 353 253
3 257 253 353
3 324 230 228
3 257 354 130
3 257 353 354
3 354 150 130
3 345 355 356
3 230 357 235
3 306 24 23
3 324 357 230
3 357 352 235
3 11 43 264
3 345 356 342
3 264 43 24
3 358 359 360
3 361 359 358
3 235 352 253
3 43 22 24
3 350 342 356
3 329 362 321
3 350 118 349
3 356 142 350
3 321 362 324
3 362 363 324
3 349 118 92
3 364 365 366
3 367 362 329
3 368 369 370
3 355 371 192
3 368 372 369
3 361 373 359
3 192 140 355
3 363 357 324
3 140 356 355
3 363 374 357
3 374 375 353
3 374 353 352
3 353 376 354
3 140 142 356
3 353 375 376
3 134 133 164
3 377 164 133
3 378 272 164
3 357 374 352
3 365 379 380
3 164 377 378
3 378 381 272
3 382 383 384
3 384 383 385
3 364 386 387
3 386 116 387
3 362 388 363
3 381 181 272
3 115 181 389
3 387 370 364
3 181 381 390
3 389 121 115
3 387 368 370
3 391 392 340
3 336 335 393
3 389 394 121
3 121 368 387
3 121 394 368
3 370 365 364
3 393 395 336
3 181 390 389
3 394 372 368
3 390 396 389
3 397 336 395
3 369 382 384
3 370 379 365
3 377 133 398
3 278 398 133
3 354 179 150
3 372 382 369
3 378 377 399
3 354 376 179
3 398 399 377
3 374 363 400
3 337 244 340
3 381 378 358
3 363 388 400
3 383 261 385
3 399 358 378
3 374 400 375
3 401 375 400
3 381 360 390
3 375 401 402
3 358 360 381
3 403 404 395
3 398 278 277
3 395 404 397
3 375 402 376
3 277 405 398
3 376 221 179
3 336 406 337
3 402 221 376
3 407 408 327
3 301 409 304
3 336 397 406
3 327 326 407
3 398 405 399
3 328 334 331
3 407 410 408
3 411 400 388
3 399 361 358
3 409 301 318
3 246 331 280
3 407 139 410
3 409 412 304
3 405 361 399
3 298 280 331
3 413 409 318
3 408 410 414
3 415 190 211
3 45 42 277
3 277 416 405
3 414 417 418
3 304 412 312
3 323 190 415
3 410 417 414
3 292 416 277
3 250 221 402
3 292 277 42
3 337 406 254
3 326 137 407
3 109 318 68
3 109 413 318
3 137 139 407
3 361 405 419
3 94 254 406
3 139 185 410
3 337 254 244
3 417 410 185
3 420 392 391
3 387 116 121
3 416 419 405
3 248 392 420
3 396 394 389
3 409 421 412
3 419 373 361
3 392 248 247
3 404 343 397
3 379 370 369
3 413 421 409
3 396 422 394
3 369 384 379
3 351 406 397
3 292 293 423
3 424 425 392
3 397 343 351
3 425 426 392
3 94 406 351
3 390 360 427
3 423 416 292
3 426 428 392
3 423 325 416
3 427 396 390
3 429 430 431
3 323 415 332
3 432 413 109
3 428 433 392
3 434 415 211
3 396 435 422
3 416 325 419
3 433 436 392
3 109 112 432
3 432 437 413
3 427 435 396
3 419 327 373
3 436 438 392
3 435 439 422
3 419 325 327
3 438 440 392
3 413 437 421
3 440 441 392
3 442 423 293
3 441 443 392
3 293 314 442
3 331 302 298
3 325 423 444
3 443 445 392
3 380 446 447
3 331 334 302
3 445 448 392
3 449 427 360
3 442 444 423
3 444 326 325
3 332 415 450
3 360 359 449
3 449 451 427
3 403 452 431
3 330 453 454
3 364 366 455
3 427 451 435
3 366 365 447
3 451 456 435
3 453 457 454
3 365 380 447
3 431 458 459
3 460 459 458
3 454 329 330
3 431 459 461
3 329 454 367
3 462 446 463
3 435 456 439
3 456 13 439
3 463 446 380
3 308 300 104
3 388 362 367
3 308 104 311
3 453 330 290
3 456 21 13
3 290 312 453
3 453 464 457
3 335 392 393
3 308 316 465
3 431 461 403
3 335 340 392
3 308 465 309
3 461 404 403
3 392 466 467
3 309 319 303
3 392 467 468
3 462 469 470
3 471 472 392
3 462 463 469
3 367 473 388
3 469 50 470
3 415 434 450
3 453 312 464
3 392 430 429
3 332 450 474
3 311 316 308
3 392 429 452
3 6 470 50
3 452 393 392
3 464 475 457
3 60 4 50
3 459 476 461
3 316 477 465
3 379 478 380
3 367 454 479
3 319 309 480
3 465 480 309
3 471 392 468
3 461 476 341
3 479 454 457
3 473 367 479
3 472 430 392
3 411 388 473
3 479 481 473
3 476 345 341
3 473 482 411
3 481 482 473
3 422 372 394
3 312 412 464
3 461 341 404
3 483 382 372
3 316 484 477
3 401 400 485
3 411 485 400
3 341 343 404
3 483 372 422
3 486 467 466
3 487 383 382
3 464 488 475
3 475 489 457
3 483 487 382
3 485 411 482
3 450 490 474
3 439 483 422
3 317 484 316
3 457 489 479
3 468 491 471
3 332 474 334
3 492 482 493
3 489 481 479
3 334 474 204
3 472 458 430
3 412 421 488
3 359 494 449
3 458 431 430
3 401 286 402
3 494 359 373
3 465 477 480
3 495 480 477
3 429 431 452
3 412 488 464
3 334 204 302
3 494 496 449
3 485 286 401
3 488 497 498
3 452 395 393
3 186 302 187
3 494 414 496
3 452 403 395
3 408 414 494
3 402 286 250
3 499 392 500
3 449 496 451
3 451 26 456
3 499 501 392
3 482 502 485
3 484 503 477
3 434 504 450
3 485 502 505
3 496 26 451
3 488 498 475
3 484 506 503
3 21 456 26
3 501 507 392
3 450 504 490
3 475 508 489
3 495 477 509
3 503 509 477
3 373 327 408
3 380 478 463
3 474 206 204
3 509 510 495
3 392 507 511
3 469 463 512
3 408 494 373
3 474 490 206
3 478 512 463
3 498 508 475
3 392 511 513
3 502 514 505
3 392 513 515
3 414 418 496
3 504 516 490
3 485 505 286
3 392 515 517
3 490 516 232
3 287 286 505
3 496 418 26
3 506 28 503
3 517 466 392
3 506 19 28
3 418 25 26
3 3 509 28
3 497 488 421
3 28 509 503
3 421 437 497
3 490 232 206
3 492 502 482
3 417 83 418
3 418 83 25
3 497 56 498
3 514 502 492
3 69 56 497
3 56 58 498
3 516 518 232
3 505 514 338
3 211 241 434
3 444 519 326
3 91 83 417
3 498 58 508
3 185 91 417
3 520 519 444
3 241 315 434
3 521 514 492
3 519 137 326
3 504 434 315
3 437 69 497
3 522 144 519
3 469 523 50
3 279 524 112
3 487 525 383
3 144 137 519
3 512 523 469
3 392 448 500
3 50 225 60
3 112 524 432
3 487 526 525
3 523 225 50
3 294 307 527
3 225 289 60
3 383 525 261
3 432 528 437
3 294 527 315
3 289 53 60
3 525 262 261
3 524 528 432
3 379 384 478
3 315 529 504
3 483 439 530
3 531 522 520
3 528 69 437
3 439 13 530
3 315 527 529
3 384 385 478
3 529 516 504
3 532 71 528
3 533 534 535
3 536 522 531
3 530 487 483
3 528 71 69
3 534 537 371
3 530 526 487
3 519 520 522
3 505 338 287
3 534 371 535
3 478 385 512
3 538 524 279
3 530 15 526
3 533 535 476
3 512 252 523
3 535 345 476
3 252 512 385
3 526 283 262
3 526 262 525
3 299 538 279
3 252 225 523
3 538 532 524
3 385 261 252
3 233 232 539
3 518 539 232
3 524 532 528
3 13 15 530
3 15 101 283
3 535 355 345
3 136 532 538
3 283 526 15
3 540 536 531
3 535 371 355
3 111 71 532
3 240 233 539
3 136 111 532
3 522 148 144
3 234 240 346
3 426 541 542
3 306 322 299
3 366 541 543
3 536 148 522
3 295 537 176
3 176 537 544
3 346 240 347
3 541 447 542
3 537 295 297
3 366 447 541
3 537 297 371
3 545 546 480
3 234 346 267
3 426 542 428
3 322 538 299
3 495 545 480
3 371 297 192
3 322 136 538
3 545 540 546
3 322 34 136
3 547 548 539
3 547 539 518
3 545 549 540
3 23 34 322
3 539 550 240
3 539 548 550
3 209 455 543
3 531 546 540
3 347 240 550
3 455 366 543
3 540 551 536
3 552 553 554
3 555 548 547
3 447 446 542
3 556 550 548
3 553 552 557
3 545 495 510
3 510 549 545
3 557 460 553
3 558 428 542
3 557 533 459
3 557 459 460
3 548 555 559
3 476 459 533
3 446 462 558
3 549 551 540
3 556 548 559
3 462 560 558
3 501 561 507
3 551 166 536
3 552 562 557
3 561 563 507
3 564 562 552
3 557 534 533
3 166 148 536
3 562 534 557
3 559 555 565
3 566 565 555
3 3 0 509
3 559 565 567
3 509 0 510
3 510 2 549
3 568 154 438
3 544 537 562
3 565 20 567
3 559 567 556
3 517 569 466
3 0 2 510
3 2 27 549
3 338 310 287
3 570 552 554
3 549 27 551
3 551 33 166
3 446 558 542
3 27 33 551
3 46 55 570
3 570 564 552
3 64 565 65
3 65 565 566
3 571 442 314
3 570 55 564
3 20 565 64
3 572 468 467
3 314 319 571
3 571 520 442
3 156 55 47
3 572 467 486
3 571 531 520
3 546 531 571
3 55 156 161
3 491 468 572
3 442 520 444
3 339 573 344
3 55 161 564
3 319 546 571
3 564 544 562
3 319 480 546
3 564 161 544
3 534 562 537
3 574 65 566
3 161 176 544
3 471 491 575
3 350 576 118
3 274 333 108
3 142 576 350
3 577 113 118
3 333 311 108
3 578 518 516
3 471 575 472
3 576 577 118
3 573 339 579
3 196 580 197
3 247 197 580
3 575 458 472
3 580 196 424
3 209 424 196
3 333 317 311
3 218 227 231
3 424 543 425
3 581 317 333
3 209 543 424
3 582 527 307
3 486 583 584
3 425 541 426
3 543 541 425
3 93 120 102
3 344 582 307
3 581 585 317
3 231 102 163
3 581 586 585
3 527 582 587
3 120 163 102
3 484 317 585
3 582 588 587
3 162 589 163
3 582 590 588
3 579 591 573
3 527 587 529
3 132 113 577
3 529 578 516
3 575 491 553
3 592 591 579
3 113 132 120
3 529 587 578
3 593 586 594
3 120 134 163
3 573 591 595
3 132 134 120
3 575 460 458
3 134 164 163
3 590 582 344
3 575 553 460
3 344 573 590
3 593 585 586
3 164 272 162
3 513 596 515
3 272 119 162
3 580 392 247
3 585 593 506
3 515 597 517
3 424 392 580
3 598 597 515
3 587 588 599
3 19 506 593
3 209 199 455
3 592 600 601
3 220 227 218
3 585 506 484
3 597 569 517
3 587 599 578
3 466 569 486
3 602 12 594
3 578 599 547
3 592 601 591
3 18 593 594
3 603 199 198
3 340 244 391
3 555 547 599
3 18 594 12
3 578 547 518
3 198 222 603
3 19 593 18
3 391 244 243
3 603 386 199
3 82 95 598
3 595 590 573
3 598 95 597
3 600 89 601
3 391 243 420
3 590 604 588
3 603 116 386
3 569 597 605
3 420 243 258
3 284 267 346
3 89 600 87
3 420 258 248
3 199 386 455
3 601 89 78
3 364 455 386
3 258 197 248
3 599 588 606
3 222 218 589
3 500 607 499
3 606 555 599
3 493 608 492
3 231 589 218
3 589 117 222
3 231 163 589
3 500 609 607
3 607 610 499
3 162 119 589
3 346 348 284
3 521 492 611
3 284 348 612
3 119 117 589
3 613 348 347
3 604 590 595
3 607 614 610
3 284 612 285
3 117 603 222
3 285 581 333
3 588 604 606
3 117 116 603
3 285 612 581
3 499 610 501
3 611 615 616
3 617 615 618
3 501 610 561
3 619 595 591
3 558 433 428
3 558 560 433
3 591 601 619
3 595 619 620
3 618 621 617
3 433 560 436
3 560 568 436
3 617 622 623
3 436 568 438
3 612 586 581
3 511 507 563
3 550 556 624
3 440 5 441
3 441 5 443
3 157 443 5
3 595 620 604
3 443 167 445
3 604 620 574
3 157 167 443
3 347 550 624
3 445 169 448
3 167 169 445
3 169 609 448
3 624 613 347
3 622 621 48
3 500 448 609
3 609 625 626
3 604 574 606
3 440 438 154
3 440 154 5
3 606 566 555
3 470 568 560
3 606 574 566
3 470 560 462
3 6 154 568
3 348 627 612
3 470 6 568
3 348 613 627
3 619 601 78
3 627 586 612
3 620 619 79
3 628 514 521
3 624 556 629
3 607 609 626
3 616 521 611
3 556 567 629
3 521 630 628
3 626 614 607
3 619 78 79
3 521 616 630
3 624 631 613
3 620 79 80
3 514 628 338
3 620 80 574
3 624 629 631
3 339 338 628
3 80 65 574
3 613 631 602
3 631 10 602
3 613 602 627
3 627 594 586
3 614 632 610
3 594 627 602
3 16 629 567
3 567 20 16
3 629 16 17
3 629 17 631
3 625 609 169
3 630 579 628
3 169 168 625
3 17 10 631
3 602 10 12
3 173 625 171
3 142 141 633
3 630 592 579
3 171 625 168
3 142 633 576
3 576 634 577
3 628 579 339
3 633 634 576
3 635 616 615
3 132 577 636
3 173 626 625
3 634 636 577
3 636 133 132
3 637 633 141
3 626 178 614
3 141 153 637
3 635 615 617
3 637 638 633
3 173 178 626
3 637 153 8
3 616 635 639
3 637 8 7
3 640 639 635
3 633 638 634
3 638 641 634
3 7 638 637
3 7 39 638
3 638 39 641
3 641 636 634
3 639 630 616
3 641 278 636
3 592 630 639
3 641 45 278
3 513 563 596
3 511 563 513
3 39 45 641
3 598 515 596
3 278 133 636
3 610 632 561
3 563 561 74
3 632 74 561
3 563 74 596
3 617 623 635
3 76 596 74
3 596 76 82
3 623 640 635
3 639 600 592
3 598 596 82
3 640 600 639
3 622 48 97
3 97 623 622
3 623 88 640
3 614 642 632
3 623 97 88
3 640 88 87
3 640 87 600
3 178 642 614
3 642 75 632
3 489 508 643
3 643 481 489
3 632 75 74
3 643 493 481
3 178 236 642
3 643 608 493
3 642 105 75
3 481 493 482
3 236 105 642
3 644 608 643
3 644 643 508
3 95 605 597
3 58 644 508
3 486 569 583
3 645 646 644
3 644 646 608
3 583 569 605
3 611 492 608
3 57 645 58
3 583 46 584
3 572 486 584
3 58 645 644
3 572 584 554
3 647 645 57
3 647 618 645
3 584 570 554
3 645 618 646
3 584 46 570
3 572 554 491
3 611 608 615
3 646 615 608
3 491 554 553
3 57 99 647
3 95 35 37
3 605 95 37
3 647 621 618
3 648 621 647
3 605 44 583
3 615 646 618
3 605 37 44
3 129 648 99
3 46 583 44
3 99 648 647
3 622 617 621
3 648 129 103
3 648 49 621
3 103 49 648
3 49 48 621
