ply
format ascii 1.0
comment Created by Blender 2.76 (sub 0) - www.blender.org, source file: ''
element vertex 507
property float x
property float y
property float z
element face 968
property list uchar uint vertex_indices
end_header
0.468750 0.242188 0.757812
0.437500 0.164062 0.765625
0.500000 0.093750 0.687500
-0.500000 0.093750 0.687500
-0.437500 0.164062 0.765625
-0.468750 0.242188 0.757812
0.562500 0.242188 0.671875
0.546875 0.054688 0.578125
-0.546875 0.054688 0.578125
-0.562500 0.242188 0.671875
0.351562 0.031250 0.718750
0.351562 -0.023438 0.617188
-0.351562 -0.023438 0.617188
-0.351562 0.031250 0.718750
0.351562 0.132812 0.781250
-0.351562 0.132812 0.781250
0.273438 0.164062 0.796875
0.203125 0.093750 0.742188
-0.203125 0.093750 0.742188
-0.273438 0.164062 0.796875
0.156250 0.054688 0.648438
-0.156250 0.054688 0.648438
0.140625 0.242188 0.742188
0.078125 0.242188 0.656250
-0.140625 0.242188 0.742188
0.242188 0.242188 0.796875
-0.242188 0.242188 0.796875
0.273438 0.328125 0.796875
0.203125 0.390625 0.742188
-0.203125 0.390625 0.742188
-0.273438 0.328125 0.796875
0.156250 0.437500 0.648438
-0.078125 0.242188 0.656250
0.351562 0.453125 0.718750
0.351562 0.515625 0.617188
-0.351562 0.453125 0.718750
-0.156250 0.437500 0.648438
0.351562 0.359375 0.781250
-0.351562 0.359375 0.781250
0.437500 0.328125 0.765625
0.500000 0.390625 0.687500
-0.437500 0.328125 0.765625
0.546875 0.437500 0.578125
-0.500000 0.390625 0.687500
-0.351562 0.515625 0.617188
0.625000 0.242188 0.562500
-0.546875 0.437500 0.578125
0.445312 0.335938 0.781250
0.476562 0.242188 0.773438
-0.476562 0.242188 0.773438
0.351562 0.375000 0.804688
-0.445312 0.335938 0.781250
0.265625 0.335938 0.820312
-0.351562 0.375000 0.804688
0.226562 0.242188 0.820312
-0.265625 0.335938 0.820312
0.265625 0.156250 0.820312
-0.265625 0.156250 0.820312
0.351562 0.117188 0.804688
-0.351562 0.117188 0.804688
0.445312 0.156250 0.781250
-0.445312 0.156250 0.781250
0.351562 0.242188 0.828125
-0.351562 0.242188 0.828125
-0.226562 0.242188 0.820312
0.164062 -0.929688 0.632812
0.000000 -0.945312 0.640625
0.000000 -0.984375 0.578125
-0.164062 -0.929688 0.632812
-0.179688 -0.968750 0.554688
0.234375 -0.914062 0.632812
0.179688 -0.968750 0.554688
-0.234375 -0.914062 0.632812
-0.328125 -0.945312 0.523438
0.367188 -0.890625 0.531250
0.265625 -0.820312 0.664062
-0.265625 -0.820312 0.664062
-0.367188 -0.890625 0.531250
0.351562 -0.695312 0.570312
0.250000 -0.703125 0.687500
-0.250000 -0.703125 0.687500
-0.351562 -0.695312 0.570312
0.312500 -0.437500 0.570312
0.210938 -0.445312 0.710938
-0.210938 -0.445312 0.710938
-0.312500 -0.437500 0.570312
0.203125 -0.187500 0.562500
0.437500 -0.140625 0.531250
0.398438 -0.046875 0.671875
-0.398438 -0.046875 0.671875
-0.437500 -0.140625 0.531250
-0.203125 -0.187500 0.562500
0.632812 -0.039062 0.539062
0.617188 0.054688 0.625000
-0.632812 -0.039062 0.539062
0.828125 0.148438 0.445312
0.726562 0.203125 0.601562
-0.726562 0.203125 0.601562
-0.828125 0.148438 0.445312
0.859375 0.429688 0.593750
0.742188 0.375000 0.656250
-0.859375 0.429688 0.593750
0.710938 0.484375 0.625000
0.687500 0.414062 0.726562
-0.710938 0.484375 0.625000
-0.742188 0.375000 0.656250
0.492188 0.601562 0.687500
0.437500 0.546875 0.796875
-0.492188 0.601562 0.687500
-0.687500 0.414062 0.726562
0.320312 0.757812 0.734375
0.312500 0.640625 0.835938
-0.312500 0.640625 0.835938
-0.320312 0.757812 0.734375
0.156250 0.718750 0.757812
0.203125 0.617188 0.851562
-0.156250 0.718750 0.757812
0.062500 0.492188 0.750000
0.101562 0.429688 0.843750
-0.062500 0.492188 0.750000
-0.203125 0.617188 0.851562
0.000000 0.429688 0.742188
0.000000 0.351562 0.820312
-0.101562 0.429688 0.843750
0.250000 0.468750 0.757812
-0.250000 0.468750 0.757812
-0.164062 0.414062 0.773438
0.328125 0.476562 0.742188
-0.328125 0.476562 0.742188
-0.437500 0.546875 0.796875
-0.429688 0.437500 0.718750
0.429688 0.437500 0.718750
-0.601562 0.375000 0.664062
0.601562 0.375000 0.664062
-0.640625 0.296875 0.648438
0.640625 0.296875 0.648438
-0.625000 0.187500 0.648438
0.625000 0.187500 0.648438
-0.617188 0.054688 0.625000
-0.492188 0.062500 0.671875
0.492188 0.062500 0.671875
-0.375000 0.015625 0.703125
0.125000 -0.101562 0.812500
0.375000 0.015625 0.703125
-0.125000 -0.101562 0.812500
-0.203125 0.093750 0.742188
0.203125 0.093750 0.742188
0.164062 0.140625 0.750000
0.000000 0.046875 0.726562
-0.164062 0.140625 0.750000
0.125000 0.304688 0.765625
-0.125000 0.304688 0.765625
0.000000 0.210938 0.765625
0.132812 0.210938 0.757812
0.062500 -0.882812 0.695312
0.000000 -0.890625 0.687500
-0.062500 -0.882812 0.695312
0.117188 -0.835938 0.710938
-0.117188 -0.835938 0.710938
-0.109375 -0.718750 0.734375
0.078125 -0.445312 0.750000
0.117188 -0.687500 0.734375
-0.117188 -0.687500 0.734375
-0.078125 -0.445312 0.750000
0.109375 -0.718750 0.734375
0.000000 -0.328125 0.742188
0.000000 -0.445312 0.750000
-0.085938 -0.289062 0.742188
0.000000 -0.679688 0.734375
0.000000 -0.765625 0.734375
0.125000 -0.226562 0.750000
0.132812 -0.226562 0.796875
0.093750 -0.273438 0.781250
-0.093750 -0.273438 0.781250
-0.132812 -0.226562 0.796875
-0.125000 -0.226562 0.750000
0.101562 -0.148438 0.742188
0.109375 -0.132812 0.781250
-0.109375 -0.132812 0.781250
-0.101562 -0.148438 0.742188
0.039062 -0.125000 0.781250
-0.039062 -0.125000 0.781250
0.000000 -0.140625 0.742188
0.000000 -0.187500 0.796875
0.000000 -0.195312 0.750000
0.085938 -0.289062 0.742188
0.000000 -0.320312 0.781250
0.078125 -0.250000 0.804688
0.000000 -0.289062 0.804688
0.000000 -0.203125 0.828125
0.046875 -0.148438 0.812500
-0.046875 -0.148438 0.812500
0.093750 -0.156250 0.812500
-0.093750 -0.156250 0.812500
0.109375 -0.226562 0.828125
-0.078125 -0.250000 0.804688
-0.109375 -0.226562 0.828125
0.164062 -0.242188 0.710938
-0.164062 -0.242188 0.710938
0.179688 -0.312500 0.710938
-0.179688 -0.312500 0.710938
0.257812 -0.312500 0.554688
-0.257812 -0.312500 0.554688
0.234375 -0.250000 0.554688
-0.234375 -0.250000 0.554688
0.000000 -0.773438 0.718750
0.093750 -0.742188 0.726562
-0.093750 -0.742188 0.726562
0.093750 -0.820312 0.710938
-0.093750 -0.820312 0.710938
0.046875 -0.867188 0.687500
-0.046875 -0.867188 0.687500
0.046875 -0.851562 0.632812
0.000000 -0.859375 0.632812
0.000000 -0.875000 0.687500
0.093750 -0.812500 0.640625
-0.093750 -0.812500 0.640625
0.093750 -0.750000 0.664062
-0.093750 -0.750000 0.664062
0.000000 -0.781250 0.656250
-0.046875 -0.851562 0.632812
0.187500 0.156250 0.773438
-0.187500 0.156250 0.773438
-0.132812 0.210938 0.757812
0.171875 0.218750 0.781250
-0.171875 0.218750 0.781250
0.179688 0.296875 0.781250
0.210938 0.375000 0.781250
-0.210938 0.375000 0.781250
0.226562 0.109375 0.781250
0.375000 0.062500 0.742188
-0.375000 0.062500 0.742188
0.476562 0.101562 0.718750
-0.476562 0.101562 0.718750
0.578125 0.195312 0.679688
-0.578125 0.195312 0.679688
0.585938 0.289062 0.687500
-0.585938 0.289062 0.687500
0.562500 0.351562 0.695312
0.421875 0.398438 0.773438
-0.562500 0.351562 0.695312
0.335938 0.429688 0.757812
-0.335938 0.429688 0.757812
0.273438 0.421875 0.773438
-0.273438 0.421875 0.773438
0.164062 0.414062 0.773438
0.234375 0.359375 0.757812
0.281250 0.398438 0.765625
-0.281250 0.398438 0.765625
0.335938 0.406250 0.750000
0.414062 0.390625 0.750000
-0.421875 0.398438 0.773438
-0.414062 0.390625 0.750000
0.531250 0.335938 0.679688
-0.531250 0.335938 0.679688
0.554688 0.281250 0.671875
0.546875 0.210938 0.671875
-0.546875 0.210938 0.671875
0.460938 0.117188 0.703125
0.375000 0.085938 0.726562
-0.375000 0.085938 0.726562
0.242188 0.125000 0.757812
-0.226562 0.109375 0.781250
-0.242188 0.125000 0.757812
0.195312 0.296875 0.757812
-0.195312 0.296875 0.757812
-0.179688 0.296875 0.781250
0.195312 0.226562 0.750000
-0.195312 0.226562 0.750000
0.203125 0.171875 0.750000
-0.203125 0.171875 0.750000
0.109375 0.460938 0.609375
-0.109375 0.460938 0.609375
0.195312 0.664062 0.617188
-0.195312 0.664062 0.617188
0.335938 0.687500 0.593750
0.484375 0.554688 0.554688
-0.335938 0.687500 0.593750
0.679688 0.453125 0.492188
-0.484375 0.554688 0.554688
0.796875 0.406250 0.460938
-0.796875 0.406250 0.460938
0.773438 0.164062 0.375000
0.601562 0.000000 0.414062
-0.601562 0.000000 0.414062
0.437500 -0.093750 0.468750
-0.437500 -0.093750 0.468750
0.000000 -0.484375 0.281250
0.179688 -0.414062 0.257812
0.125000 -0.539062 0.359375
0.000000 -0.570312 0.320312
-0.125000 -0.539062 0.359375
0.140625 -0.757812 0.367188
0.000000 -0.804688 0.343750
-0.140625 -0.757812 0.367188
0.164062 -0.945312 0.437500
0.000000 -0.976562 0.460938
-0.164062 -0.945312 0.437500
0.328125 -0.945312 0.523438
0.328125 -0.914062 0.398438
-0.328125 -0.914062 0.398438
0.289062 -0.710938 0.382812
-0.289062 -0.710938 0.382812
0.250000 -0.500000 0.390625
-0.250000 -0.500000 0.390625
-0.234375 -0.351562 0.406250
-0.179688 -0.414062 0.257812
0.218750 -0.281250 0.429688
0.210938 -0.226562 0.468750
-0.218750 -0.281250 0.429688
0.234375 -0.351562 0.406250
0.203125 -0.171875 0.500000
-0.203125 -0.171875 0.500000
0.335938 0.054688 -0.664062
0.343750 -0.148438 -0.539062
0.000000 -0.195312 -0.671875
-0.335938 0.054688 -0.664062
0.000000 0.070312 -0.828125
0.296875 -0.312500 -0.265625
0.000000 -0.382812 -0.351562
-0.343750 -0.148438 -0.539062
0.210938 -0.390625 0.164062
-0.210938 -0.390625 0.164062
-0.296875 -0.312500 -0.265625
0.000000 -0.460938 0.187500
0.734375 -0.046875 0.070312
-0.734375 -0.046875 0.070312
-0.773438 0.164062 0.375000
0.460938 0.437500 -0.703125
-0.460938 0.437500 -0.703125
0.000000 0.562500 -0.851562
0.453125 0.851562 0.234375
0.453125 0.929688 -0.070312
0.000000 0.984375 -0.078125
-0.453125 0.851562 0.234375
0.000000 0.898438 0.289062
0.453125 0.867188 -0.382812
-0.453125 0.867188 -0.382812
-0.453125 0.929688 -0.070312
0.000000 0.898438 -0.546875
0.726562 0.406250 0.335938
-0.726562 0.406250 0.335938
-0.679688 0.453125 0.492188
0.632812 0.453125 0.281250
0.796875 0.562500 0.125000
-0.796875 0.562500 0.125000
-0.632812 0.453125 0.281250
0.640625 0.703125 0.054688
0.796875 0.617188 -0.117188
-0.796875 0.617188 -0.117188
-0.640625 0.703125 0.054688
0.640625 0.750000 -0.195312
0.796875 0.539062 -0.359375
-0.796875 0.539062 -0.359375
-0.640625 0.750000 -0.195312
0.617188 0.328125 -0.585938
0.640625 0.679688 -0.445312
-0.617188 0.328125 -0.585938
-0.773438 0.265625 -0.437500
-0.640625 0.679688 -0.445312
0.460938 0.523438 0.429688
-0.460938 0.523438 0.429688
0.000000 0.570312 0.570312
0.000000 0.406250 0.601562
0.851562 0.234375 0.054688
0.859375 0.320312 -0.046875
-0.859375 0.320312 -0.046875
-0.851562 0.234375 0.054688
0.820312 0.328125 -0.203125
-0.820312 0.328125 -0.203125
0.429688 -0.195312 -0.210938
0.406250 -0.171875 0.148438
-0.406250 -0.171875 0.148438
0.593750 -0.125000 -0.164062
-0.593750 -0.125000 -0.164062
-0.210938 -0.226562 0.468750
0.640625 -0.007812 -0.429688
0.484375 0.023438 -0.546875
-0.640625 -0.007812 -0.429688
-0.429688 -0.195312 -0.210938
-0.484375 0.023438 -0.546875
0.890625 0.406250 -0.234375
0.921875 0.359375 -0.218750
1.015625 0.414062 -0.289062
-0.890625 0.406250 -0.234375
-1.023438 0.476562 -0.312500
-1.015625 0.414062 -0.289062
1.023438 0.476562 -0.312500
1.187500 0.437500 -0.390625
-1.187500 0.437500 -0.390625
1.265625 0.289062 -0.406250
1.351562 0.320312 -0.421875
-1.234375 0.507812 -0.421875
-1.351562 0.320312 -0.421875
1.210938 0.078125 -0.406250
1.281250 0.054688 -0.429688
-1.265625 0.289062 -0.406250
-1.281250 0.054688 -0.429688
1.031250 -0.039062 -0.304688
1.039062 -0.101562 -0.328125
-1.210938 0.078125 -0.406250
-1.039062 -0.101562 -0.328125
0.828125 -0.070312 -0.132812
-0.828125 -0.070312 -0.132812
-1.031250 -0.039062 -0.304688
1.039062 0.000000 -0.367188
0.882812 -0.023438 -0.210938
-0.882812 -0.023438 -0.210938
-1.039062 0.000000 -0.367188
1.187500 0.093750 -0.445312
-1.187500 0.093750 -0.445312
1.234375 0.250000 -0.445312
-1.234375 0.250000 -0.445312
1.171875 0.359375 -0.437500
-1.171875 0.359375 -0.437500
1.023438 0.343750 -0.359375
-1.023438 0.343750 -0.359375
0.945312 0.304688 -0.289062
-0.945312 0.304688 -0.289062
-0.921875 0.359375 -0.218750
0.718750 -0.023438 -0.171875
0.726562 0.000000 -0.070312
-0.726562 0.000000 -0.070312
0.773438 -0.140625 -0.125000
-0.773438 -0.140625 -0.125000
-0.718750 -0.023438 -0.171875
0.843750 0.289062 -0.210938
-0.843750 0.289062 -0.210938
0.812500 -0.015625 -0.273438
-0.812500 -0.015625 -0.273438
0.718750 0.039062 -0.187500
-0.718750 0.039062 -0.187500
-0.843750 0.015625 -0.273438
0.757812 0.093750 -0.273438
0.843750 0.015625 -0.273438
-0.757812 0.093750 -0.273438
0.796875 0.203125 -0.210938
-0.796875 0.203125 -0.210938
-0.835938 0.171875 -0.273438
0.835938 0.171875 -0.273438
0.890625 0.242188 -0.265625
-0.890625 0.242188 -0.265625
0.890625 0.234375 -0.320312
-0.890625 0.234375 -0.320312
0.843750 0.171875 -0.320312
0.765625 0.093750 -0.320312
-0.765625 0.093750 -0.320312
0.820312 0.085938 -0.273438
0.828125 0.078125 -0.320312
-0.820312 0.085938 -0.273438
0.851562 0.015625 -0.320312
-0.828125 0.078125 -0.320312
0.812500 -0.015625 -0.320312
-0.812500 -0.015625 -0.320312
0.882812 -0.015625 -0.265625
-0.882812 -0.015625 -0.265625
0.953125 0.289062 -0.343750
-0.953125 0.289062 -0.343750
1.039062 0.328125 -0.414062
-1.039062 0.328125 -0.414062
1.187500 0.343750 -0.484375
-1.187500 0.343750 -0.484375
1.257812 0.242188 -0.492188
1.210938 0.085938 -0.484375
-1.210938 0.085938 -0.484375
1.046875 0.000000 -0.421875
-1.046875 0.000000 -0.421875
0.937500 0.062500 -0.335938
0.890625 0.109375 -0.328125
-0.851562 0.015625 -0.320312
-0.890625 0.109375 -0.328125
1.000000 0.125000 -0.367188
0.960938 0.171875 -0.351562
-0.937500 0.062500 -0.335938
-0.960938 0.171875 -0.351562
1.054688 0.187500 -0.382812
-1.054688 0.187500 -0.382812
-1.000000 0.125000 -0.367188
1.109375 0.210938 -0.390625
1.085938 0.273438 -0.390625
-1.015625 0.234375 -0.375000
-1.085938 0.273438 -0.390625
1.015625 0.234375 -0.375000
-0.843750 0.171875 -0.320312
-1.109375 0.210938 -0.390625
-1.257812 0.242188 -0.492188
0.789062 -0.125000 -0.328125
-0.789062 -0.125000 -0.328125
1.039062 -0.085938 -0.492188
-1.039062 -0.085938 -0.492188
1.312500 0.054688 -0.531250
1.367188 0.296875 -0.500000
-1.367188 0.296875 -0.500000
1.250000 0.468750 -0.546875
-1.250000 0.468750 -0.546875
1.234375 0.507812 -0.421875
1.023438 0.437500 -0.484375
-1.023438 0.437500 -0.484375
0.859375 0.382812 -0.382812
-0.859375 0.382812 -0.382812
-1.312500 0.054688 -0.531250
0.773438 0.265625 -0.437500
-0.625000 0.242188 0.562500
-0.234375 0.359375 0.757812
-0.335938 0.406250 0.750000
-0.554688 0.281250 0.671875
-0.460938 0.117188 0.703125
3 0 1 2
3 3 4 5
3 6 2 7
3 8 3 9
3 2 10 11
3 12 13 3
3 1 14 10
3 13 15 4
3 14 16 17
3 18 19 15
3 10 17 20
3 21 18 13
3 22 23 20
3 24 18 21
3 16 25 22
3 24 26 19
3 25 27 28
3 29 30 26
3 28 31 23
3 29 24 32
3 33 34 31
3 35 29 36
3 37 33 28
3 38 30 29
3 39 40 33
3 41 38 35
3 40 42 34
3 43 35 44
3 6 45 42
3 9 43 46
3 0 6 40
3 5 41 43
3 39 47 48
3 41 5 49
3 37 50 47
3 38 41 51
3 27 52 50
3 30 38 53
3 25 54 52
3 26 30 55
3 25 16 56
3 57 19 26
3 16 14 58
3 59 15 19
3 14 1 60
3 61 4 15
3 1 0 48
3 49 5 4
3 62 60 48
3 49 61 63
3 58 60 62
3 63 61 59
3 62 56 58
3 59 57 63
3 62 54 56
3 57 64 63
3 62 52 54
3 64 55 63
3 62 50 52
3 55 53 63
3 62 47 50
3 53 51 63
3 62 48 47
3 51 49 63
3 65 66 67
3 68 69 67
3 70 65 71
3 72 73 69
3 74 75 70
3 72 76 77
3 78 79 75
3 76 80 81
3 82 83 79
3 80 84 85
3 86 87 88
3 89 90 91
3 92 93 88
3 94 90 89
3 92 95 96
3 97 98 94
3 99 100 96
3 101 98 97
3 102 103 100
3 104 101 105
3 106 107 103
3 108 104 109
3 106 110 111
3 112 113 108
3 114 115 111
3 116 113 112
3 117 118 115
3 119 116 120
3 121 122 118
3 121 119 123
3 124 115 118
3 125 126 123
3 124 127 111
3 112 128 125
3 107 111 127
3 129 130 128
3 103 107 131
3 109 132 130
3 100 103 133
3 105 134 132
3 96 100 135
3 97 136 134
3 93 96 137
3 138 139 136
3 88 93 140
3 89 141 139
3 142 88 143
3 144 145 141
3 146 147 148
3 148 149 145
3 118 122 150
3 123 126 151
3 150 122 152
3 152 122 151
3 147 153 152
3 149 148 152
3 154 155 66
3 66 155 156
3 157 154 65
3 68 156 158
3 157 70 75
3 158 159 76
3 83 160 161
3 162 163 84
3 164 75 79
3 80 76 159
3 165 166 160
3 165 167 163
3 160 166 168
3 163 162 168
3 164 161 168
3 159 169 168
3 170 171 172
3 173 174 175
3 176 177 171
3 174 178 179
3 180 177 176
3 181 182 179
3 183 180 182
3 183 184 182
3 185 172 186
3 167 165 186
3 172 187 188
3 173 186 188
3 183 189 190
3 191 189 183
3 180 190 192
3 193 191 181
3 192 194 171
3 193 178 174
3 171 194 187
3 195 196 174
3 194 192 190
3 196 189 191
3 189 188 187
3 195 188 189
3 182 176 142
3 144 179 182
3 176 170 197
3 198 175 179
3 185 199 197
3 167 175 198
3 160 83 199
3 163 167 200
3 201 199 83
3 202 85 84
3 203 197 199
3 204 202 200
3 86 142 197
3 198 144 91
3 169 205 206
3 169 159 207
3 157 164 206
3 207 159 158
3 154 157 208
3 209 158 156
3 155 154 210
3 211 156 155
3 210 212 213
3 211 214 213
3 210 208 215
3 216 209 211
3 208 206 217
3 218 207 209
3 205 219 217
3 205 207 218
3 219 213 212
3 220 213 219
3 217 212 215
3 216 220 218
3 153 147 221
3 222 149 223
3 150 153 224
3 225 223 151
3 150 226 227
3 151 126 228
3 146 229 221
3 145 149 222
3 146 143 230
3 231 141 145
3 143 140 232
3 233 139 141
3 140 137 234
3 235 136 139
3 137 135 236
3 237 134 136
3 133 238 236
3 132 134 237
3 131 239 238
3 130 132 240
3 131 127 241
3 242 128 130
3 127 124 243
3 244 125 128
3 124 245 227
3 228 126 125
3 227 246 247
3 228 244 248
3 241 243 247
3 248 244 242
3 241 249 250
3 242 251 252
3 239 250 253
3 251 240 254
3 236 238 253
3 254 240 237
3 236 255 256
3 237 235 257
3 232 234 256
3 257 235 233
3 232 258 259
3 233 231 260
3 230 259 261
3 231 262 263
3 221 229 261
3 263 262 222
3 227 226 264
3 265 266 228
3 226 224 267
3 268 225 266
3 224 221 269
3 270 222 225
3 121 117 271
3 272 119 121
3 117 114 273
3 274 116 119
3 110 275 273
3 113 116 274
3 106 276 275
3 108 113 277
3 102 278 276
3 104 108 279
3 102 99 280
3 281 101 104
3 95 282 280
3 98 101 281
3 95 92 283
3 284 94 98
3 92 87 285
3 286 90 94
3 287 288 289
3 287 290 291
3 290 289 292
3 290 293 294
3 293 292 295
3 293 296 297
3 71 67 296
3 296 67 69
3 298 71 295
3 297 69 73
3 74 298 299
3 300 73 77
3 78 74 301
3 302 77 81
3 301 292 289
3 291 294 302
3 299 295 292
3 300 302 294
3 303 289 288
3 304 305 306
3 82 78 303
3 304 81 85
3 307 308 203
3 309 202 204
3 310 307 201
3 305 85 202
3 203 308 311
3 204 91 312
3 311 285 87
3 312 91 90
3 313 314 315
3 316 317 315
3 314 318 319
3 320 315 319
3 319 318 321
3 322 323 319
3 324 321 288
3 306 322 324
3 288 321 307
3 306 305 309
3 282 283 325
3 326 284 327
3 328 313 317
3 329 330 317
3 331 332 333
3 334 335 333
3 333 332 336
3 337 338 333
3 339 336 328
3 329 337 339
3 278 280 340
3 341 281 342
3 343 340 344
3 345 341 346
3 347 344 348
3 349 345 350
3 351 348 352
3 353 349 354
3 355 356 352
3 357 358 353
3 328 336 356
3 359 337 329
3 336 332 351
3 354 338 337
3 332 331 347
3 350 334 338
3 331 360 343
3 346 361 334
3 278 343 360
3 342 279 361
3 360 331 335
3 361 362 335
3 271 273 275
3 277 274 272
3 271 276 360
3 361 279 272
3 363 271 362
3 362 272 363
3 282 364 340
3 327 281 341
3 364 365 344
3 345 366 367
3 365 368 348
3 349 369 366
3 352 348 368
3 353 358 369
3 318 370 371
3 323 322 372
3 371 370 373
3 372 326 374
3 283 285 371
3 372 286 284
3 285 308 307
3 309 375 286
3 307 321 371
3 372 322 309
3 285 311 308
3 375 312 286
3 376 377 355
3 378 358 357
3 355 377 313
3 357 329 316
3 370 377 376
3 379 374 378
3 314 377 370
3 320 323 379
3 313 377 314
3 320 380 316
3 381 382 383
3 384 385 386
3 387 383 388
3 389 386 385
3 388 390 391
3 389 392 393
3 390 394 395
3 396 393 397
3 394 398 399
3 400 397 401
3 399 398 402
3 403 404 401
3 398 405 406
3 407 408 404
3 394 409 405
3 408 410 400
3 411 409 394
3 412 396 400
3 413 411 390
3 414 389 396
3 415 413 388
3 416 386 389
3 383 382 417
3 418 419 386
3 373 420 421
3 374 326 422
3 423 402 420
3 424 374 425
3 364 325 421
3 422 326 367
3 368 426 382
3 419 427 369
3 402 406 428
3 429 407 403
3 430 420 428
3 431 432 429
3 433 430 434
3 432 431 435
3 436 430 433
3 437 438 435
3 436 439 440
3 437 427 441
3 426 440 417
3 427 419 418
3 365 436 426
3 427 437 366
3 421 430 436
3 422 366 437
3 421 420 430
3 431 425 422
3 417 440 442
3 443 441 418
3 439 444 442
3 438 441 443
3 439 433 445
3 446 435 438
3 447 448 445
3 449 435 446
3 434 450 448
3 432 449 451
3 434 428 452
3 453 429 432
3 428 406 454
3 455 407 429
3 415 417 456
3 457 418 416
3 413 415 458
3 459 416 414
3 411 413 460
3 461 414 412
3 411 462 463
3 412 410 464
3 409 463 465
3 410 408 466
3 405 465 454
3 408 407 455
3 450 467 468
3 469 451 470
3 467 471 472
3 473 470 474
3 472 471 475
3 476 477 474
3 475 478 479
3 476 480 481
3 458 456 482
3 480 457 459
3 472 482 456
3 474 443 457
3 444 468 472
3 483 443 474
3 448 468 444
3 483 470 451
3 454 467 450
3 455 453 469
3 465 471 467
3 473 477 466
3 475 471 465
3 476 464 466
3 478 475 463
3 484 485 464
3 460 479 478
3 484 481 461
3 458 479 460
3 461 481 459
3 399 423 486
3 487 424 401
3 395 399 488
3 489 401 397
3 395 490 491
3 397 393 492
3 391 491 493
3 393 392 494
3 495 493 496
3 392 385 497
3 387 496 498
3 385 384 499
3 488 486 498
3 489 497 499
3 496 493 490
3 500 494 497
3 493 491 490
3 500 492 494
3 368 381 498
3 369 358 499
3 501 498 486
3 487 499 358
3 373 376 486
3 487 378 374
3 6 0 2
3 9 3 5
3 45 6 7
3 502 8 9
3 7 2 11
3 8 12 3
3 2 1 10
3 3 13 4
3 10 14 17
3 13 18 15
3 11 10 20
3 12 21 13
3 17 22 20
3 32 24 21
3 17 16 22
3 18 24 19
3 22 25 28
3 24 29 26
3 22 28 23
3 36 29 32
3 28 33 31
3 44 35 36
3 27 37 28
3 35 38 29
3 37 39 33
3 43 41 35
3 33 40 34
3 46 43 44
3 40 6 42
3 502 9 46
3 39 0 40
3 9 5 43
3 0 39 48
3 51 41 49
3 39 37 47
3 53 38 51
3 37 27 50
3 55 30 53
3 27 25 52
3 64 26 55
3 54 25 56
3 64 57 26
3 56 16 58
3 57 59 19
3 58 14 60
3 59 61 15
3 60 1 48
3 61 49 4
3 71 65 67
3 66 68 67
3 298 70 71
3 68 72 69
3 298 74 70
3 73 72 77
3 74 78 75
3 77 76 81
3 78 82 79
3 81 80 85
3 142 86 88
3 144 89 91
3 87 92 88
3 138 94 89
3 93 92 96
3 138 97 94
3 95 99 96
3 105 101 97
3 99 102 100
3 109 104 105
3 102 106 103
3 129 108 109
3 107 106 111
3 129 112 108
3 110 114 111
3 120 116 112
3 114 117 115
3 123 119 120
3 117 121 118
3 122 121 123
3 245 124 118
3 120 125 123
3 115 124 111
3 120 112 125
3 131 107 127
3 112 129 128
3 133 103 131
3 129 109 130
3 135 100 133
3 109 105 132
3 137 96 135
3 105 97 134
3 140 93 137
3 97 138 136
3 143 88 140
3 138 89 139
3 146 142 143
3 89 144 141
3 142 146 148
3 144 148 145
3 245 118 150
3 122 123 151
3 153 150 152
3 223 152 151
3 148 147 152
3 223 149 152
3 65 154 66
3 68 66 156
3 70 157 65
3 72 68 158
3 164 157 75
3 72 158 76
3 79 83 161
3 80 162 84
3 161 164 79
3 162 80 159
3 185 165 160
3 166 165 163
3 161 160 168
3 166 163 168
3 169 164 168
3 162 159 168
3 185 170 172
3 167 173 175
3 170 176 171
3 175 174 179
3 182 180 176
3 178 181 179
3 184 183 182
3 181 183 182
3 165 185 186
3 173 167 186
3 186 172 188
3 195 173 188
3 180 183 190
3 181 191 183
3 177 180 192
3 178 193 181
3 177 192 171
3 196 193 174
3 172 171 187
3 173 195 174
3 189 194 190
3 193 196 191
3 194 189 187
3 196 195 189
3 148 182 142
3 148 144 182
3 142 176 197
3 144 198 179
3 170 185 197
3 200 167 198
3 185 160 199
3 84 163 200
3 82 201 83
3 200 202 84
3 201 203 199
3 198 204 200
3 203 86 197
3 204 198 91
3 164 169 206
3 205 169 207
3 208 157 206
3 209 207 158
3 210 154 208
3 211 209 156
3 214 155 210
3 214 211 155
3 214 210 213
3 220 211 213
3 212 210 215
3 220 216 211
3 215 208 217
3 216 218 209
3 206 205 217
3 219 205 218
3 217 219 212
3 218 220 219
3 224 153 221
3 225 222 223
3 226 150 224
3 266 225 151
3 245 150 227
3 266 151 228
3 147 146 221
3 262 145 222
3 229 146 230
3 262 231 145
3 230 143 232
3 231 233 141
3 232 140 234
3 233 235 139
3 234 137 236
3 235 237 136
3 135 133 236
3 240 132 237
3 133 131 238
3 251 130 240
3 239 131 241
3 251 242 130
3 241 127 243
3 242 244 128
3 243 124 227
3 244 228 125
3 243 227 247
3 503 228 248
3 249 241 247
3 504 248 242
3 239 241 250
3 504 242 252
3 238 239 253
3 252 251 254
3 255 236 253
3 505 254 237
3 234 236 256
3 505 237 257
3 258 232 256
3 506 257 233
3 230 232 259
3 506 233 260
3 229 230 261
3 260 231 263
3 269 221 261
3 270 263 222
3 246 227 264
3 503 265 228
3 264 226 267
3 265 268 266
3 267 224 269
3 268 270 225
3 363 121 271
3 363 272 121
3 271 117 273
3 272 274 119
3 114 110 273
3 277 113 274
3 110 106 275
3 279 108 277
3 106 102 276
3 342 104 279
3 278 102 280
3 342 281 104
3 99 95 280
3 327 98 281
3 282 95 283
3 327 284 98
3 283 92 285
3 284 286 94
3 290 287 289
3 306 287 291
3 293 290 292
3 291 290 294
3 296 293 295
3 294 293 297
3 295 71 296
3 297 296 69
3 299 298 295
3 300 297 73
3 301 74 299
3 302 300 77
3 303 78 301
3 304 302 81
3 303 301 289
3 304 291 302
3 301 299 292
3 297 300 294
3 310 303 288
3 291 304 306
3 310 82 303
3 305 304 85
3 201 307 203
3 375 309 204
3 82 310 201
3 309 305 202
3 86 203 311
3 375 204 312
3 86 311 87
3 286 312 90
3 317 313 315
3 320 316 315
3 315 314 319
3 323 320 319
3 324 319 321
3 324 322 319
3 287 324 288
3 287 306 324
3 310 288 307
3 322 306 309
3 364 282 325
3 367 326 327
3 330 328 317
3 316 329 317
3 335 331 333
3 338 334 333
3 339 333 336
3 339 337 333
3 330 339 328
3 330 329 339
3 343 278 340
3 346 341 342
3 347 343 344
3 350 345 346
3 351 347 348
3 354 349 350
3 356 351 352
3 359 353 354
3 501 355 352
3 359 357 353
3 355 328 356
3 357 359 329
3 356 336 351
3 359 354 337
3 351 332 347
3 354 350 338
3 347 331 343
3 350 346 334
3 276 278 360
3 346 342 361
3 362 360 335
3 334 361 335
3 276 271 275
3 279 277 272
3 362 271 360
3 362 361 272
3 280 282 340
3 367 327 341
3 340 364 344
3 341 345 367
3 344 365 348
3 345 349 366
3 501 352 368
3 349 353 369
3 321 318 371
3 379 323 372
3 325 371 373
3 379 372 374
3 325 283 371
3 326 372 284
3 371 285 307
3 372 309 286
3 501 376 355
3 380 378 357
3 328 355 313
3 380 357 316
3 373 370 376
3 380 379 378
3 318 314 370
3 380 320 379
3 387 381 383
3 419 384 386
3 495 387 388
3 392 389 385
3 495 388 391
3 396 389 393
3 391 390 395
3 400 396 397
3 395 394 399
3 404 400 401
3 423 399 402
3 424 403 401
3 402 398 406
3 403 407 404
3 398 394 405
3 404 408 400
3 390 411 394
3 410 412 400
3 388 413 390
3 412 414 396
3 383 415 388
3 414 416 389
3 415 383 417
3 416 418 386
3 325 373 421
3 425 374 422
3 373 423 420
3 403 424 425
3 365 364 421
3 366 422 367
3 381 368 382
3 384 419 369
3 420 402 428
3 425 429 403
3 434 430 428
3 425 431 429
3 447 433 434
3 449 432 435
3 439 436 433
3 431 437 435
3 426 436 440
3 438 437 441
3 382 426 417
3 441 427 418
3 368 365 426
3 369 427 366
3 365 421 436
3 431 422 437
3 456 417 442
3 457 443 418
3 440 439 442
3 483 438 443
3 444 439 445
3 483 446 438
3 433 447 445
3 451 449 446
3 447 434 448
3 469 432 451
3 450 434 452
3 469 453 432
3 452 428 454
3 453 455 429
3 458 415 456
3 459 457 416
3 460 413 458
3 461 459 414
3 462 411 460
3 485 461 412
3 409 411 463
3 485 412 464
3 405 409 465
3 464 410 466
3 406 405 454
3 466 408 455
3 448 450 468
3 473 469 470
3 468 467 472
3 477 473 474
3 482 472 475
3 480 476 474
3 482 475 479
3 484 476 481
3 479 458 482
3 481 480 459
3 442 472 456
3 480 474 457
3 442 444 472
3 470 483 474
3 445 448 444
3 446 483 451
3 452 454 450
3 473 455 469
3 454 465 467
3 455 473 466
3 463 475 465
3 477 476 466
3 462 478 463
3 476 484 464
3 462 460 478
3 485 484 461
3 488 399 486
3 489 487 401
3 490 395 488
3 500 489 397
3 391 395 491
3 500 397 492
3 495 391 493
3 492 393 494
3 387 495 496
3 494 392 497
3 381 387 498
3 497 385 499
3 496 488 498
3 487 489 499
3 488 496 490
3 489 500 497
3 501 368 498
3 384 369 499
3 376 501 486
3 378 487 358
3 423 373 486
3 424 487 374
