ply
format ascii 1.0
comment Created by Blender 2.76 (sub 0) - www.blender.org, source file: ''
element vertex 40
property float x
property float y
property float z
element face 76
property list uchar uint vertex_indices
end_header
0.293900 0.500000 -0.404500
0.404500 -0.500000 -0.293900
0.293900 -0.500000 -0.404500
0.293900 0.500000 0.404500
0.154500 0.500000 0.475550
0.154500 -0.500000 0.475550
0.293900 -0.500000 0.404500
-0.475550 -0.500000 -0.154500
-0.500000 0.500000 0.000000
-0.475550 0.500000 -0.154500
-0.500000 -0.500000 0.000000
0.404500 -0.500000 0.293900
0.404500 0.500000 0.293900
-0.475550 -0.500000 0.154500
-0.475550 0.500000 0.154500
0.475550 0.500000 0.154500
0.475550 -0.500000 0.154500
-0.154500 -0.500000 -0.475550
-0.000000 -0.500000 -0.500000
-0.293900 -0.500000 -0.404500
-0.404500 -0.500000 -0.293900
0.154500 -0.500000 -0.475550
-0.404500 -0.500000 0.293900
-0.404500 0.500000 0.293900
0.500000 -0.500000 0.000000
0.500000 0.500000 0.000000
-0.293900 0.500000 0.404500
0.154500 0.500000 -0.475550
0.475550 -0.500000 -0.154500
0.475550 0.500000 -0.154500
-0.293900 -0.500000 0.404500
-0.000000 0.500000 -0.500000
-0.154500 0.500000 0.475550
-0.154500 -0.500000 0.475550
-0.000000 -0.500000 0.500000
-0.154500 0.500000 -0.475550
-0.293900 0.500000 -0.404500
-0.404500 0.500000 -0.293900
0.404500 0.500000 -0.293900
-0.000000 0.500000 0.500000
3 0 1 2
3 3 4 5
3 3 5 6
3 7 8 9
3 7 10 8
3 6 11 12
3 6 12 3
3 8 10 13
3 8 13 14
3 15 12 16
3 11 16 12
3 17 18 19
3 20 19 18
3 20 18 21
3 20 21 2
3 20 2 1
3 14 22 23
3 24 25 15
3 16 24 15
3 13 22 14
3 22 26 23
3 27 0 21
3 2 21 0
3 28 29 24
3 22 30 26
3 21 18 31
3 21 31 27
3 26 30 32
3 33 32 30
3 30 1 33
3 22 1 30
3 13 1 22
3 10 1 13
3 7 1 10
3 20 1 7
3 34 33 1
3 34 1 28
3 34 28 24
3 34 24 16
3 34 16 11
3 34 11 6
3 34 6 5
3 35 31 17
3 18 17 31
3 36 20 37
3 36 35 19
3 17 19 35
3 20 9 37
3 36 38 35
3 37 38 36
3 9 38 37
3 31 35 38
3 31 38 0
3 31 0 27
3 19 20 36
3 34 32 33
3 29 25 24
3 34 39 32
3 1 38 28
3 20 7 9
3 38 9 29
3 25 29 9
3 25 9 8
3 25 8 14
3 25 14 23
3 25 23 26
3 25 26 32
3 25 32 39
3 25 39 4
3 25 4 3
3 25 3 12
3 25 12 15
3 39 34 5
3 39 5 4
3 29 28 38
3 0 38 1
