ply
format ascii 1.0
comment Created by Blender 2.76 (sub 0) - www.blender.org, source file: ''
element vertex 289
property float x
property float y
property float z
element face 574
property list uchar uint vertex_indices
end_header
0.368756 0.071808 -0.088534
0.342358 0.007962 -0.087159
0.341779 0.009738 -0.092071
-0.133366 -0.442793 -0.448838
-0.321983 -0.466556 -0.280337
-0.193591 -0.446859 -0.420034
0.066023 -0.044488 0.273498
0.000010 -0.527367 0.150109
0.067985 -0.526508 0.144136
-0.067996 -0.526508 0.144136
0.406763 0.226240 -0.086059
0.464898 0.379584 -0.016308
0.491650 0.352156 0.057686
0.161071 0.298560 -0.281398
0.068210 0.160333 -0.327453
0.079625 0.305489 -0.300024
0.348467 -0.483391 -0.161192
0.341779 -0.491980 -0.100480
0.341779 -0.474859 -0.221904
-0.090986 0.470228 -0.260846
0.090975 0.470228 -0.260846
0.000010 0.472633 -0.267487
-0.079636 0.305489 -0.300024
-0.068221 0.160333 -0.327453
-0.138028 0.154435 -0.311459
0.000010 0.307665 -0.305801
-0.169990 0.018269 -0.307098
-0.171115 0.018613 -0.306430
-0.170986 0.021247 -0.306783
0.138017 0.154435 -0.311459
0.239399 0.286650 -0.249097
0.205187 0.144186 -0.283795
0.000010 0.162165 -0.332443
-0.175552 0.020159 -0.303836
0.184062 0.462326 -0.239587
-0.133366 -0.524046 0.126414
-0.246388 -0.514483 0.058943
-0.133366 0.030179 -0.322069
-0.129925 0.027717 -0.323680
0.309367 0.269873 -0.203946
-0.148157 0.024740 -0.316175
0.265155 0.129813 -0.245128
0.115026 0.029779 -0.329850
0.112969 0.020388 -0.330439
0.109110 0.021190 -0.331304
-0.148768 0.024568 -0.315939
0.313869 0.112177 -0.197423
0.231682 0.021132 -0.265640
0.289785 -0.507841 0.011749
0.321972 -0.500226 -0.042087
0.223965 0.017353 -0.272517
0.223933 0.017353 -0.272557
-0.112980 0.020388 -0.330439
-0.116581 0.021934 -0.328985
-0.115038 0.029779 -0.329850
0.104834 0.022049 -0.332286
-0.129411 0.027431 -0.323916
-0.129700 0.027546 -0.323798
0.338338 -0.010533 0.039099
0.337631 -0.011220 0.041024
0.333194 -0.015800 0.053402
-0.195070 -0.037044 0.225950
-0.205456 -0.038762 0.217580
0.310075 -0.021870 0.106727
0.305444 -0.024390 0.114114
0.321972 -0.466556 -0.280337
0.322776 0.016724 -0.148342
0.332326 0.006760 -0.121778
-0.289765 -0.507841 0.011749
-0.348478 -0.483391 -0.161192
0.129689 0.027546 -0.323798
0.193612 -0.519980 0.097649
-0.205199 0.144186 -0.283795
-0.239411 0.070949 0.333110
-0.205777 -0.038819 0.217305
0.208274 0.024167 -0.282656
0.195702 0.029664 -0.290711
-0.206935 -0.038590 0.216480
-0.191083 0.029149 -0.293698
0.133354 0.030179 -0.322069
-0.246388 -0.030975 0.188501
-0.244073 -0.031433 0.190152
0.056859 0.034703 -0.343132
0.000010 0.036249 -0.347258
0.055573 0.022793 -0.343564
0.050589 0.023194 -0.343918
0.353547 0.429515 -0.151093
0.418467 0.405981 -0.087513
0.366184 0.249316 -0.148342
-0.133398 0.030179 -0.322069
-0.289765 -0.023416 0.141543
-0.313880 -0.008700 0.128850
-0.290568 -0.023474 0.140128
-0.247578 -0.031089 0.187165
-0.301115 -0.024161 0.121698
0.244223 -0.031376 0.190034
0.244062 -0.031433 0.190152
0.067985 0.029493 -0.340656
0.246409 -0.514483 0.058943
0.205766 -0.038819 0.217305
0.204223 -0.038533 0.218563
-0.067996 -0.440331 -0.466521
0.193612 -0.036815 0.227129
-0.305456 -0.024390 0.114114
0.071586 0.028805 -0.339831
-0.265166 -0.026394 0.176516
0.133354 -0.524046 0.126414
0.191972 -0.036987 0.227876
-0.193591 -0.519980 0.097649
-0.135134 -0.041797 0.254793
0.133354 -0.442793 -0.448838
0.067985 -0.440331 -0.466521
0.348660 0.092422 -0.144059
-0.244620 0.027488 -0.254088
-0.246388 -0.452356 -0.381327
-0.246388 0.028404 -0.252476
-0.288543 0.023423 -0.206264
-0.271051 0.015922 -0.227995
-0.223945 0.017353 -0.272557
0.136345 0.029092 -0.320890
-0.309347 0.087669 0.287920
-0.265166 0.129813 -0.245128
0.418467 0.244792 0.347532
0.273612 0.202133 0.462708
0.353547 0.221259 0.411073
-0.262337 -0.032463 0.170111
-0.262305 -0.032463 0.170111
0.273612 0.448641 -0.202689
-0.059925 0.025141 -0.342542
-0.056871 0.034703 -0.343132
-0.055584 0.022793 -0.343564
-0.145488 -0.042026 0.249567
-0.193591 -0.036815 0.227129
0.348306 0.000920 -0.029905
-0.139893 -0.042599 0.252161
-0.004041 0.026687 -0.347258
-0.067996 0.029493 -0.340656
0.430171 0.202248 -0.021299
-0.262240 0.020388 -0.236758
0.000010 0.026973 -0.347533
0.491650 0.298618 0.202333
0.500010 0.325358 0.130029
0.464898 0.271132 0.276327
0.430171 0.155351 0.105273
0.289785 -0.458998 -0.334172
0.289785 0.023938 -0.204732
0.290686 0.023366 -0.203317
0.309367 0.087669 0.287920
0.239399 0.070949 0.333110
-0.259990 -0.032234 0.172822
-0.208253 0.024167 -0.282656
-0.219829 0.019129 -0.275189
-0.205456 0.025427 -0.284463
-0.193591 0.030580 -0.292087
-0.161019 0.298560 -0.281398
-0.289765 -0.458998 -0.334172
-0.289765 0.023996 -0.204693
0.148178 0.024740 -0.316175
0.193612 -0.446859 -0.420034
-0.239411 0.286650 -0.249097
-0.184041 0.462326 -0.239587
0.133354 -0.524043 0.126415
0.139785 -0.042599 0.252239
0.139753 -0.042599 0.252239
0.184062 0.188448 0.499606
0.366184 0.108226 0.232316
0.406763 0.131359 0.170032
0.265155 -0.026394 0.176516
-0.273591 0.448641 -0.202689
-0.309347 0.269873 -0.203946
0.170975 0.021247 -0.306783
0.133354 -0.524043 0.126415
0.133387 -0.041454 0.255736
-0.321983 -0.500226 -0.042087
-0.223912 0.017353 -0.272557
0.133354 -0.041454 0.255736
0.161071 0.058982 0.365372
0.132647 -0.041511 0.255933
-0.348671 0.092422 -0.144059
-0.324330 0.015120 -0.144020
-0.332337 0.006760 -0.121778
-0.353559 0.429515 -0.151093
-0.321983 0.017582 -0.150582
0.193580 0.030580 -0.292087
-0.321147 0.017239 -0.152154
0.168821 0.018613 -0.307569
0.169978 0.018269 -0.307098
-0.297642 0.018842 -0.192432
-0.307867 0.012143 -0.176518
-0.313880 0.112177 -0.197423
-0.366163 0.249316 -0.148342
-0.418478 0.405981 -0.087513
0.437502 0.178771 0.042007
-0.090986 0.180546 0.520865
0.000010 0.049877 0.389775
0.000010 0.178141 0.527506
0.090975 0.180546 0.520865
-0.307867 0.012143 -0.176478
0.313869 -0.008700 0.128850
-0.133366 -0.041454 0.255736
-0.332562 0.006531 -0.121189
-0.368768 0.071808 -0.088534
-0.406774 0.226240 -0.086059
-0.341308 0.009566 -0.093525
-0.341790 0.009738 -0.092071
0.374994 0.051710 -0.034267
-0.271019 0.015979 -0.228034
0.175541 0.020159 -0.303836
0.079625 0.052053 0.383998
0.347695 -0.001142 -0.024482
0.348467 0.001435 -0.031280
0.344898 -0.000054 -0.065310
0.368756 0.031611 0.019962
0.348660 0.011054 0.075447
-0.139797 -0.042599 0.252239
0.345702 -0.007441 -0.007624
0.246409 -0.452356 -0.381327
0.193612 0.030580 -0.292087
-0.341790 -0.474859 -0.221904
0.341779 -0.006982 0.029510
0.341297 -0.007498 0.030807
0.271039 0.015922 -0.227995
0.286441 0.022507 -0.208858
0.344898 -0.000054 -0.065350
-0.078350 -0.044259 0.270472
-0.069539 -0.044717 0.272830
-0.069957 -0.044717 0.272712
0.333194 -0.015800 0.053442
0.131522 -0.041568 0.256208
0.104834 -0.042942 0.263360
0.069496 -0.044717 0.272830
0.247824 0.027660 -0.251062
0.246409 0.028404 -0.252476
0.060332 -0.044546 0.274009
0.067985 -0.044431 0.273341
-0.002015 -0.045405 0.279078
0.000010 -0.045462 0.279235
-0.343719 -0.007212 0.011199
-0.345713 -0.007441 -0.007624
-0.348478 0.001435 -0.031280
0.321200 -0.015800 0.089083
0.321972 -0.015400 0.087865
-0.344909 -0.000054 -0.065389
-0.344909 -0.000054 -0.065350
-0.341790 -0.491980 -0.100480
0.307888 0.012143 -0.176478
0.000010 -0.439415 -0.472494
0.288692 -0.023760 0.142682
0.289785 -0.023416 0.141543
0.321972 0.017582 -0.150622
-0.079636 0.052053 0.383998
-0.184041 0.188448 0.499606
0.289753 0.023938 -0.204732
-0.328864 -0.015629 0.066724
-0.333205 -0.015800 0.053402
0.264930 -0.031604 0.167439
0.332551 0.006531 -0.121189
0.246409 -0.030975 0.188501
0.262293 -0.032463 0.170150
-0.067996 -0.044431 0.273341
-0.009636 -0.045290 0.278410
0.244994 -0.031261 0.189484
-0.069507 -0.044717 0.272830
-0.161019 0.058982 0.365372
-0.491662 0.352156 0.057686
-0.418478 0.244792 0.347532
-0.366163 0.108226 0.232316
0.262325 -0.032463 0.170111
-0.273591 0.202133 0.462708
-0.347353 0.000977 -0.042165
-0.341790 -0.007040 0.029510
-0.341951 -0.007040 0.028017
0.133354 -0.524043 0.126415
-0.353559 0.221259 0.411073
-0.368768 0.031611 0.019962
-0.375006 0.051710 -0.034267
-0.338350 -0.010533 0.039099
-0.348671 0.011054 0.075447
-0.430183 0.202248 -0.021299
-0.499990 0.325358 0.130029
-0.491662 0.298618 0.202333
-0.322433 -0.015400 0.086371
-0.464877 0.379584 -0.016308
-0.437514 0.178771 0.042007
-0.321983 -0.015400 0.087865
-0.321983 -0.015400 0.087825
-0.430183 0.155351 0.105273
-0.406774 0.131359 0.170032
-0.464877 0.271132 0.276327
3 0 1 2
3 3 4 5
3 6 7 8
3 7 9 8
3 10 11 12
3 13 14 15
3 16 17 18
3 19 20 21
3 22 23 24
3 20 15 25
3 25 21 20
3 26 27 28
3 22 19 21
3 25 22 21
3 29 30 31
3 22 25 23
3 23 25 32
3 27 33 28
3 25 15 32
3 14 32 15
3 29 13 30
3 13 15 34
3 18 2 1
3 35 36 9
3 3 37 38
3 30 39 31
3 40 28 24
3 31 39 41
3 42 43 44
3 28 40 45
3 46 47 41
3 48 17 49
3 50 51 41
3 52 53 54
3 42 44 55
3 15 20 34
3 56 54 53
3 56 57 54
3 29 14 13
3 58 59 49
3 49 59 60
3 26 28 45
3 36 61 62
3 48 63 64
3 65 66 18
3 18 66 67
3 68 69 36
3 42 70 43
3 17 48 71
3 17 71 18
3 28 33 72
3 29 31 42
3 73 74 62
3 41 75 76
3 74 73 77
3 72 33 78
3 51 75 41
3 79 70 42
3 80 36 81
3 14 82 83
3 62 74 36
3 82 84 85
3 86 39 30
3 86 87 39
3 39 87 88
3 3 26 45
3 3 40 89
3 90 91 92
3 93 36 80
3 92 91 94
3 3 27 26
3 71 95 96
3 3 89 37
3 97 84 82
3 48 98 71
3 82 14 29
3 82 29 42
3 99 100 71
3 53 101 56
3 100 102 71
3 101 57 56
3 94 91 103
3 104 42 55
3 91 90 105
3 104 82 42
3 82 104 97
3 9 36 71
3 71 106 9
3 71 102 107
3 108 35 109
3 18 1 16
3 110 111 104
3 110 104 55
3 41 39 88
3 110 70 79
3 41 88 46
3 88 10 46
3 46 10 112
3 113 114 115
3 114 116 117
3 5 113 118
3 110 79 119
3 77 120 81
3 53 52 101
3 113 121 118
3 122 123 124
3 105 125 126
3 86 127 87
3 20 127 34
3 128 129 130
3 131 132 108
3 17 16 133
3 134 131 108
3 135 130 129
3 129 128 136
3 88 87 11
3 129 136 54
3 11 10 88
3 35 108 36
3 136 101 52
3 136 52 54
3 12 137 10
3 114 138 115
3 83 139 135
3 127 11 87
3 11 140 141
3 135 129 83
3 127 13 34
3 86 30 127
3 11 141 12
3 30 13 127
3 32 14 83
3 142 143 140
3 144 145 146
3 122 140 11
3 144 146 65
3 85 139 83
3 82 85 83
3 124 123 147
3 129 54 23
3 123 148 147
3 23 32 129
3 83 129 32
3 105 126 149
3 150 151 72
3 149 93 105
3 72 152 150
3 93 80 105
3 72 153 152
3 151 121 72
3 24 54 57
3 105 90 125
3 57 38 24
3 81 105 80
3 24 38 37
3 23 54 24
3 22 24 154
3 89 24 37
3 28 72 24
3 153 72 78
3 155 156 116
3 89 40 24
3 157 158 119
3 159 160 154
3 161 162 163
3 19 22 154
3 160 19 154
3 148 123 164
3 11 127 122
3 154 72 159
3 154 24 72
3 140 122 142
3 122 165 166
3 122 166 142
3 167 147 148
3 168 160 159
3 121 169 159
3 68 125 90
3 170 31 41
3 159 72 121
3 92 68 90
3 115 138 121
3 171 163 172
3 113 115 121
3 68 92 173
3 174 118 121
3 175 172 176
3 151 174 121
3 173 92 94
3 157 31 170
3 173 94 103
3 160 168 19
3 176 177 175
3 178 179 180
3 31 119 79
3 79 42 31
3 19 168 181
3 178 182 179
3 41 183 170
3 184 182 178
3 157 119 31
3 169 168 159
3 185 157 170
3 168 169 181
3 185 170 186
3 156 155 187
3 155 188 187
3 189 116 156
3 156 187 189
3 181 190 191
3 192 140 143
3 193 194 195
3 192 141 140
3 169 190 181
3 196 123 195
3 197 178 188
3 192 137 141
3 178 197 184
3 141 137 12
3 176 163 162
3 143 142 166
3 190 169 189
3 147 167 198
3 189 169 121
3 148 164 176
3 35 199 109
3 180 200 201
3 165 124 147
3 178 180 201
3 165 122 124
3 178 201 202
3 121 138 189
3 101 38 57
3 77 36 74
3 117 116 189
3 137 0 112
3 112 10 137
3 61 36 108
3 192 0 137
3 201 200 203
3 201 203 204
3 188 178 189
3 192 143 205
3 190 189 178
3 111 97 104
3 193 195 123
3 189 206 117
3 170 207 186
3 196 164 123
3 138 206 189
3 170 183 207
3 178 202 190
3 176 196 208
3 164 196 176
3 209 133 205
3 110 55 44
3 189 187 188
3 205 210 211
3 205 133 210
3 208 196 195
3 61 108 132
3 205 212 209
3 77 81 36
3 125 68 126
3 5 174 151
3 150 5 151
3 143 212 205
3 68 93 149
3 5 150 152
3 143 166 212
3 152 153 5
3 68 149 126
3 212 166 213
3 78 33 3
3 68 36 93
3 214 134 108
3 212 215 209
3 214 108 109
3 3 5 78
3 3 33 27
3 216 50 47
3 45 40 3
3 41 76 217
3 155 5 4
3 4 179 182
3 218 179 4
3 182 184 4
3 155 4 184
3 188 155 197
3 197 155 184
3 219 212 220
3 206 138 114
3 116 114 155
3 215 212 219
3 114 117 206
3 144 221 222
3 223 205 211
3 1 0 205
3 223 1 205
3 35 224 199
3 114 5 155
3 9 225 226
3 205 0 192
3 49 220 58
3 47 50 41
3 59 58 213
3 220 212 213
3 217 183 41
3 58 220 213
3 113 5 114
3 180 179 218
3 180 218 200
3 213 227 60
3 204 203 218
3 228 208 229
3 208 230 229
3 60 59 213
3 46 231 232
3 6 208 233
3 208 234 230
3 235 7 236
3 208 6 234
3 47 46 232
3 46 221 231
3 172 163 176
3 185 186 158
3 186 207 158
3 200 218 203
3 237 238 69
3 207 183 158
3 238 239 69
3 158 157 185
3 171 172 175
3 183 217 158
3 216 76 75
3 240 241 213
3 153 78 5
3 51 216 75
3 213 241 227
3 218 69 204
3 232 216 47
3 198 213 165
3 204 69 242
3 69 243 242
3 174 5 118
3 218 4 69
3 216 51 50
3 216 110 158
3 217 76 158
3 201 204 242
3 158 76 216
3 231 221 144
3 216 231 144
3 17 219 220
3 231 216 232
3 220 49 17
3 69 68 244
3 17 133 209
3 17 215 219
3 209 215 17
3 65 18 110
3 145 112 146
3 133 16 210
3 227 49 60
3 222 46 112
3 227 241 49
3 48 49 240
3 65 110 144
3 240 63 48
3 221 46 222
3 216 144 110
3 146 112 245
3 97 111 84
3 177 176 208
3 228 177 208
3 84 111 246
3 247 48 248
3 241 240 49
3 247 98 48
3 48 64 248
3 43 110 44
3 112 249 245
3 70 110 43
3 36 69 4
3 119 158 110
3 65 245 249
3 63 240 198
3 240 213 198
3 18 71 101
3 111 101 246
3 63 198 64
3 250 194 193
3 111 110 101
3 110 18 101
3 208 195 194
3 245 65 146
3 193 251 250
3 112 66 249
3 64 198 248
3 3 38 101
3 247 248 198
3 208 194 233
3 246 101 130
3 101 136 128
3 66 65 249
3 173 244 68
3 130 101 128
3 101 4 3
3 101 36 4
3 101 71 36
3 135 246 130
3 135 139 246
3 165 147 198
3 144 222 252
3 139 85 246
3 252 222 112
3 145 252 112
3 85 84 246
3 144 252 145
3 166 165 213
3 244 253 254
3 247 255 98
3 66 0 67
3 66 112 0
3 198 167 247
3 255 247 167
3 18 67 256
3 167 257 258
3 226 224 35
3 256 2 18
3 250 259 260
3 260 235 194
3 226 35 9
3 256 67 0
3 260 194 250
3 167 95 261
3 261 257 167
3 7 6 233
3 224 226 250
3 226 225 250
3 148 96 167
3 9 259 262
3 262 259 250
3 262 250 225
3 9 262 225
3 95 167 96
3 2 256 0
3 107 102 176
3 176 162 107
3 211 210 16
3 16 223 211
3 250 263 224
3 16 1 223
3 264 20 19
3 127 20 264
3 264 265 127
3 266 91 105
3 194 236 233
3 98 255 267
3 194 235 236
3 99 71 96
3 265 122 127
3 193 268 251
3 268 73 263
3 269 69 239
3 268 263 251
3 267 255 167
3 98 267 258
3 98 258 257
3 120 265 266
3 243 69 269
3 261 95 71
3 270 271 244
3 267 167 258
3 236 7 233
3 235 9 7
3 250 251 263
3 235 260 9
3 259 9 260
3 106 161 272
3 171 106 272
3 61 132 73
3 171 175 106
3 177 106 175
3 261 71 98
3 268 273 73
3 177 228 106
3 263 214 109
3 238 274 239
3 109 199 263
3 261 98 257
3 106 8 9
3 263 199 224
3 263 134 214
3 106 107 161
3 266 105 120
3 163 171 272
3 161 163 272
3 273 120 73
3 263 131 134
3 131 73 132
3 228 229 8
3 229 230 8
3 234 8 230
3 106 71 107
3 263 73 131
3 8 106 228
3 73 120 77
3 234 6 8
3 148 99 96
3 120 105 81
3 271 270 274
3 73 62 61
3 238 237 274
3 237 271 274
3 201 242 275
3 100 99 148
3 276 277 270
3 190 202 191
3 100 176 102
3 100 148 176
3 244 254 276
3 278 202 201
3 161 107 162
3 279 280 264
3 19 181 264
3 244 281 253
3 281 244 173
3 282 264 181
3 282 278 264
3 278 279 264
3 280 279 283
3 181 191 282
3 202 278 282
3 191 202 282
3 277 274 270
3 283 278 275
3 275 274 283
3 173 103 284
3 278 283 279
3 173 284 285
3 286 287 280
3 270 244 276
3 254 277 276
3 286 280 283
3 266 287 91
3 91 284 103
3 201 275 278
3 275 242 243
3 269 275 243
3 269 239 275
3 173 285 281
3 281 285 277
3 239 274 275
3 274 286 283
3 277 253 281
3 277 286 274
3 287 286 277
3 277 254 253
3 285 284 277
3 277 91 287
3 284 91 277
3 265 280 288
3 265 123 122
3 193 123 265
3 265 268 193
3 265 273 268
3 237 69 271
3 120 273 265
3 265 264 280
3 244 271 69
3 266 265 288
3 280 287 288
3 287 266 288
