ply
format ascii 1.0
comment Created by Blender 2.76 (sub 0) - www.blender.org, source file: ''
element vertex 831
property float x
property float y
property float z
element face 1658
property list uchar uint vertex_indices
end_header
-0.081606 0.643705 -0.112501
-0.118791 0.589303 -0.162077
-0.121654 0.587689 -0.161911
0.456341 -0.140344 -0.168513
0.467359 -0.140344 -0.140737
0.462182 -0.187618 -0.168515
-0.059124 0.643705 -0.182689
-0.089693 0.603679 -0.162079
-0.086810 0.605103 -0.162079
0.471317 -0.140344 -0.224182
0.486512 -0.331181 -0.186233
0.493992 -0.331181 -0.224182
-0.124638 0.586004 -0.161739
-0.129467 0.583280 -0.161462
0.475590 -0.296031 -0.168491
-0.074298 0.643705 -0.188916
-0.153130 0.569054 -0.161460
-0.166917 0.569054 -0.169805
-0.195078 0.522851 -0.160449
-0.177447 0.543302 -0.161464
-0.166085 0.555337 -0.161463
-0.086783 0.643705 -0.196463
-0.185086 0.569054 -0.186735
0.410191 -0.331181 -0.361681
0.446289 -0.331181 -0.328050
0.396938 -0.331181 -0.369715
-0.096019 0.643705 -0.205100
-0.472992 -0.140344 0.028334
-0.495666 -0.331181 0.028334
-0.493617 -0.331181 0.049217
-0.398829 0.152165 -0.027653
-0.425490 0.086233 -0.069947
-0.420032 0.086233 -0.027637
0.462182 -0.140344 -0.178098
-0.472992 -0.140344 -0.069947
-0.435928 0.010362 -0.027556
-0.022521 0.624987 -0.163216
-0.027888 0.624085 -0.162896
-0.017813 0.643705 -0.145099
0.484463 -0.331181 -0.175895
-0.036591 0.643705 -0.140737
0.194627 0.569054 -0.040620
0.218763 0.535496 -0.036948
0.198383 0.569054 -0.069947
-0.036591 0.622115 -0.162894
-0.039554 0.621448 -0.162894
0.431058 -0.024334 -0.168476
0.423866 0.086233 -0.224182
0.001776 0.643705 -0.146562
-0.003400 0.626443 -0.163216
-0.495666 -0.331181 -0.069947
-0.493617 -0.331181 -0.054065
0.483543 -0.331181 -0.159390
0.479935 -0.331181 -0.168481
0.260349 0.447900 -0.278530
0.160117 0.569054 -0.278530
0.178286 0.569054 -0.261629
-0.013090 0.625704 -0.163220
-0.463857 -0.140344 -0.140737
-0.012634 0.625739 -0.163220
-0.448493 -0.049615 -0.027495
-0.467515 -0.140344 -0.027500
-0.003400 0.643705 -0.174310
-0.022939 0.643705 -0.175257
0.094903 0.643705 -0.233910
0.193257 0.569054 -0.224182
0.189451 0.569054 -0.243264
0.001776 0.668819 -0.069947
-0.021226 0.653763 -0.027506
-0.009311 0.654634 -0.027503
0.415644 0.086233 -0.182689
-0.081363 0.643778 -0.027487
-0.053769 0.649147 -0.027499
-0.081364 0.643778 -0.027487
-0.090843 0.643705 -0.040620
0.096832 0.643705 -0.224182
0.094903 0.643705 -0.214455
0.189451 0.569054 -0.205100
-0.096578 0.643705 -0.054997
-0.479223 -0.238881 -0.027508
-0.098506 0.643705 -0.069947
-0.090843 0.643705 -0.099244
-0.096578 0.643705 -0.084897
-0.069122 0.643705 -0.124123
-0.053947 0.643705 -0.133650
-0.429084 -0.012670 -0.158226
-0.417268 0.086233 -0.133650
-0.423674 0.012142 -0.158225
0.021315 0.643705 -0.145099
0.040144 0.643705 -0.140737
0.057449 0.643705 -0.133650
0.072624 0.643705 -0.124123
0.085108 0.643705 -0.112501
0.094396 0.643705 -0.099244
0.100080 0.643705 -0.084897
0.462182 -0.140344 -0.270266
0.484463 -0.331181 -0.272470
0.478406 -0.331181 -0.282409
0.235664 0.515344 0.006864
0.287196 0.447900 0.028334
0.278769 0.453281 -0.017452
0.415644 0.086233 -0.265646
0.282451 0.447900 -0.020129
0.491943 -0.331181 -0.234521
0.235434 0.515675 0.006995
0.001776 0.626525 -0.163520
-0.456912 -0.140344 -0.158245
0.067498 0.643705 -0.259448
0.079932 0.643705 -0.251902
0.001726 -0.331181 -0.471678
0.006618 -0.331181 -0.471192
0.089219 0.643705 -0.243264
-0.463857 -0.196552 -0.158241
-0.474837 -0.285399 -0.158239
-0.191125 0.569054 -0.040620
-0.425490 0.086233 0.028334
-0.150399 0.595489 -0.027510
-0.132405 0.608892 -0.027535
0.232041 0.520482 0.008332
0.020838 0.625074 -0.163519
0.011450 0.625790 -0.163516
0.491650 -0.331181 0.104988
0.499168 -0.331181 0.028334
0.476494 -0.140344 0.028334
-0.194881 0.569054 -0.069947
0.359612 0.284936 -0.027493
0.365097 0.284936 -0.069947
0.342774 0.320175 -0.027463
0.365097 0.284936 0.028334
0.010965 0.625826 -0.163516
0.287238 0.437015 -0.024385
0.289628 0.431416 -0.027290
0.286954 0.437660 -0.024133
-0.301393 0.407337 -0.056639
-0.302609 0.405430 -0.058985
-0.361595 0.284936 -0.069947
-0.306927 0.399371 -0.069947
0.016139 0.643705 -0.175257
-0.300780 0.408297 -0.055452
0.178286 0.569054 -0.186735
0.089219 0.643705 -0.205100
-0.170368 0.520482 -0.025814
-0.169036 0.581759 -0.026855
-0.170602 0.580449 -0.027502
-0.488148 -0.331181 -0.128239
0.421329 0.020312 -0.168463
-0.307454 0.397598 -0.072425
-0.292067 0.392567 -0.062716
0.373476 0.241826 -0.027480
-0.484029 -0.279325 -0.027508
-0.490191 -0.331181 -0.027504
0.406961 0.086233 -0.168452
-0.200057 0.569054 -0.224182
-0.283389 0.447900 -0.251902
-0.288870 0.447900 -0.224182
-0.196251 0.569054 -0.243264
0.497119 -0.331181 -0.085828
0.489600 -0.331181 -0.144120
-0.486098 -0.331181 -0.144120
0.420770 0.086233 -0.133650
0.476494 -0.140344 -0.069947
-0.356133 0.284936 -0.027668
-0.339475 0.319799 -0.027696
-0.103632 0.643705 -0.224182
-0.302674 0.408297 -0.250076
-0.294470 0.424258 -0.252996
-0.278328 0.453281 -0.081251
-0.266183 0.471500 -0.071881
-0.278213 0.447900 -0.112501
-0.304262 0.403364 -0.253964
-0.359768 0.284936 -0.259448
0.487532 -0.279334 -0.027492
0.499168 -0.331181 -0.069947
-0.113680 0.520482 -0.009745
-0.175240 0.453281 -0.021911
-0.117030 0.453281 -0.005412
-0.303491 0.402480 -0.085047
-0.354592 0.284936 -0.124123
-0.305105 0.399545 -0.083401
-0.308946 0.392567 -0.079477
-0.288973 0.431569 -0.256057
-0.289350 0.431067 -0.255848
-0.226295 0.453281 -0.044121
-0.182599 0.408297 -0.016115
0.281309 0.408297 -0.027536
0.223555 0.408297 -0.002427
0.230863 0.453281 0.003398
-0.366772 0.284936 -0.224182
-0.300287 0.408297 -0.088305
-0.290013 0.430578 -0.085417
-0.282027 0.447900 -0.083160
-0.259069 0.461708 -0.274511
-0.255959 0.464420 -0.276226
-0.269068 0.453281 -0.268655
-0.268315 0.453724 -0.269334
-0.318448 0.330232 -0.158498
-0.323492 0.320311 -0.158213
0.493693 -0.331181 -0.027496
-0.268102 0.453849 -0.269527
-0.276714 0.447900 -0.262847
-0.339113 0.284936 -0.293366
-0.301062 0.396214 -0.265052
0.482724 -0.238873 -0.027492
0.160117 0.569054 -0.169805
-0.303626 0.401946 -0.256166
0.471017 -0.140344 -0.027500
0.451998 -0.049633 -0.027497
0.439367 0.010615 -0.027492
0.497119 -0.331181 0.007444
-0.293661 0.394511 -0.278578
-0.299421 0.392567 -0.270718
0.024788 0.653756 -0.027488
0.038847 0.652089 -0.027484
0.038872 0.652085 -0.027482
0.024728 0.653762 -0.027493
0.467359 -0.140344 0.121420
0.489600 -0.331181 0.125871
0.420770 0.086233 0.112094
0.440360 -0.140344 0.210920
-0.146570 0.599825 -0.020917
-0.112462 0.599825 -0.011266
-0.135697 0.608660 -0.017632
0.461302 -0.331181 0.219645
0.467359 -0.331181 0.199566
-0.292067 0.392567 -0.278014
0.079932 0.643705 -0.196463
0.425165 -0.331181 0.287597
-0.279126 0.408297 -0.273423
-0.062473 0.408297 0.027731
-0.059428 0.392567 0.019668
-0.133981 0.408297 0.016253
0.281715 0.447900 0.084289
0.358094 0.284936 0.099583
0.337438 0.284936 0.168078
0.012116 0.662018 0.003118
0.018737 0.661152 0.002755
-0.268164 0.453281 -0.269549
0.011876 0.392567 0.023398
0.011876 0.408297 0.015163
0.057250 0.649150 -0.027489
0.265475 0.447900 0.138121
-0.295891 -0.331181 -0.423378
-0.279746 -0.331181 -0.429963
-0.056434 0.408297 0.011576
-0.128043 0.392567 0.008649
0.160117 0.086233 -0.420571
0.178286 -0.140344 -0.442407
0.079932 0.086233 -0.432680
-0.122054 0.408297 0.001016
0.067498 0.284936 -0.401488
0.135655 0.284936 -0.391216
-0.257084 0.447900 -0.160447
-0.261973 0.447900 -0.153449
-0.208775 0.506295 -0.160450
-0.142456 0.284936 -0.391216
-0.205285 0.284936 -0.374486
-0.158275 0.416872 -0.351606
-0.134836 0.415958 -0.358082
-0.267149 0.447900 -0.169805
-0.016001 0.660823 0.001655
-0.051511 0.599825 -0.001452
-0.009112 0.661725 0.002032
-0.003412 0.662215 0.002338
-0.025306 0.659237 0.001138
-0.039983 0.656250 0.000313
-0.051923 0.653520 -0.000364
-0.117740 0.420141 -0.361504
0.027661 0.659632 0.002259
0.233959 0.086233 -0.400943
0.011876 0.662038 0.003130
0.006771 0.662350 0.002871
0.011876 0.599825 0.001848
0.001726 0.662408 0.002610
-0.001614 0.662282 0.002433
0.057273 0.649147 -0.027487
0.084865 0.643778 -0.027487
0.084866 0.643778 -0.027487
0.239084 0.447900 0.187734
0.303842 0.284936 0.231236
-0.279126 0.408297 -0.067307
-0.284089 0.397817 -0.160442
-0.265764 0.431798 -0.160444
0.260349 -0.140344 -0.420571
-0.196251 0.569054 -0.205100
-0.283389 0.447900 -0.196463
0.041740 0.656767 0.001467
-0.074298 0.284936 -0.401488
-0.106062 0.419851 -0.363336
-0.063079 0.418822 -0.370087
-0.359768 0.284936 -0.188916
-0.061803 0.419135 -0.370202
-0.341071 0.284936 -0.158214
-0.049253 0.419031 -0.370841
0.089219 -0.140344 -0.455865
-0.062473 0.408297 -0.368489
0.166965 -0.331181 -0.455865
-0.348781 0.261884 -0.158211
-0.115903 0.420097 -0.361792
0.085108 0.643705 0.084289
0.140781 0.569054 0.168078
0.165243 0.569054 0.138121
0.183411 0.569054 0.103973
0.332262 -0.140344 -0.391216
0.072624 0.643705 0.099583
-0.268164 0.453281 -0.071181
0.298716 0.086233 -0.374486
0.203610 0.447900 0.231236
-0.050441 0.508508 -0.341806
-0.041767 0.569054 -0.320138
-0.040622 0.508408 -0.342323
0.118364 0.589136 -0.164756
0.122228 0.587043 -0.164990
0.093628 -0.331181 -0.466927
0.072849 -0.331181 -0.467945
0.094345 0.643705 -0.010232
0.070116 0.650275 -0.000144
-0.022493 0.508190 -0.343289
-0.076061 0.647689 -0.004376
-0.077338 0.647381 -0.004588
0.110991 0.569054 0.192670
0.186946 -0.331181 -0.452846
0.057449 0.643705 0.112094
0.085195 0.643705 -0.027487
0.116299 0.590254 -0.164631
0.055272 0.653671 0.000699
0.254535 -0.331181 -0.434862
-0.469034 -0.331181 -0.308950
-0.462965 -0.331181 -0.318889
0.189409 0.569054 -0.027496
0.153914 0.595478 -0.027486
-0.003400 0.418659 -0.373173
-0.003400 0.284936 -0.404960
-0.044794 0.418994 -0.371069
0.011876 0.453281 0.008161
0.011876 0.520482 0.003484
-0.053846 0.453281 0.004746
-0.052120 0.520482 0.000155
0.094396 0.643705 -0.040620
0.135734 0.609015 -0.027474
0.135936 0.608869 -0.027457
-0.024178 -0.331181 -0.470667
0.076988 0.569054 0.210920
0.272945 -0.331181 -0.429963
0.067498 0.643705 -0.188916
0.332190 -0.331181 -0.405769
0.348323 -0.331181 -0.399184
0.084530 0.605947 -0.164636
0.077145 0.609060 -0.164192
0.070818 0.611383 -0.164194
0.087712 0.604374 -0.164637
0.011876 0.502747 -0.345469
-0.003400 0.507990 -0.344305
-0.003400 0.569054 -0.322032
0.195442 0.561141 -0.027488
0.111586 0.625591 -0.027476
0.258674 0.284936 0.286588
0.245646 0.500491 -0.046440
0.262942 0.478453 -0.055224
0.160320 0.447900 0.266904
0.203610 0.284936 0.331984
0.040093 0.643705 0.121420
0.265525 0.447900 -0.153449
0.281765 0.447900 -0.112501
0.358094 0.284936 -0.124123
0.456126 -0.331181 -0.318889
0.110991 0.447900 0.293446
0.126437 0.584763 -0.165244
0.096271 0.643705 -0.003892
0.075608 0.648929 -0.000457
0.152571 0.569054 -0.165237
0.040093 0.569054 0.222168
0.104538 0.637218 -0.005360
0.131925 0.615729 -0.010232
0.057449 0.447900 0.309774
0.010925 0.414972 -0.373348
-0.003400 0.086233 -0.436754
0.075263 0.599825 -0.001452
-0.133981 0.408297 -0.356982
0.011876 0.664245 0.043591
0.136214 0.599825 -0.011266
0.016674 0.663524 0.043356
0.011876 0.664245 0.043591
0.151657 0.599825 -0.015639
0.141959 0.607703 -0.012710
0.007925 0.664761 0.043375
0.396461 0.086233 0.192670
-0.086783 0.086233 -0.432680
-0.166917 0.086233 -0.420571
0.136396 0.612223 -0.011028
0.230366 0.520482 -0.041583
0.237542 0.511092 -0.043857
0.244886 0.501485 -0.046197
-0.122054 0.408297 -0.341774
-0.056434 0.408297 -0.352334
-0.059428 0.392567 -0.360397
-0.128043 0.392567 -0.349378
0.177790 0.578815 -0.022550
0.189932 0.569054 -0.025766
0.021315 0.643705 0.127159
0.356977 0.086233 0.266904
0.396461 -0.140344 0.293446
0.282692 0.453281 -0.065227
0.206130 0.549397 -0.031831
0.209296 0.545916 -0.033117
0.286812 0.447900 -0.066575
0.287246 0.447900 -0.069947
0.287297 0.446905 -0.066645
0.290873 0.439560 -0.067172
0.001726 0.665152 0.043043
-0.001153 0.665119 0.042894
-0.017813 0.643705 0.127159
0.415317 -0.331181 0.306111
0.194069 0.520482 -0.025814
0.303981 0.412870 -0.069947
0.299581 0.421677 -0.068459
-0.004212 0.664933 0.042738
-0.036642 0.643705 0.121420
0.304436 0.411882 -0.070076
0.306089 0.408297 -0.070539
0.366701 -0.331181 0.365650
0.193110 0.564567 -0.026563
0.353460 -0.331181 0.381872
0.294216 -0.331181 0.430727
-0.256199 -0.331181 0.453928
-0.398613 -0.331181 0.322333
-0.188609 -0.331181 0.490252
0.303842 0.086233 0.331984
0.302827 0.408297 -0.067307
0.239084 0.086233 0.385414
0.140781 0.284936 0.365758
0.306669 0.407243 -0.069947
0.214560 0.545063 0.013859
0.197498 0.569054 0.019252
0.198383 0.569054 0.028334
0.249996 0.453281 -0.044121
-0.096019 -0.140344 -0.455865
0.072624 0.284936 0.386533
-0.199854 0.408297 -0.338331
-0.170117 0.417323 -0.348332
-0.185086 -0.140344 -0.442407
-0.120409 -0.331181 -0.463908
-0.100428 -0.331181 -0.466927
-0.112665 0.503843 -0.332376
-0.117030 0.453281 -0.335318
-0.114539 0.503263 -0.332116
-0.003400 -0.140344 -0.460399
0.001726 0.284936 0.393534
-0.175240 0.453281 -0.318818
-0.101846 0.507191 -0.333874
0.001726 0.086233 0.457783
0.337438 -0.140344 0.365758
0.198992 0.453281 -0.021911
-0.053846 0.453281 -0.345476
-0.096578 0.643705 0.047990
-0.090894 0.643705 0.066871
-0.057559 0.653673 0.040188
-0.044570 0.656759 0.040801
0.265475 -0.140344 0.425099
0.052273 0.643705 -0.182689
-0.067001 0.651318 0.039744
0.278071 -0.331181 0.444040
0.165243 0.086233 0.425099
0.075821 0.520482 0.000155
0.026199 0.624343 -0.163840
0.034967 0.622361 -0.163839
0.309270 0.400464 -0.065021
0.210521 -0.331181 0.480364
0.052843 0.617976 -0.164196
0.046841 0.619679 -0.163839
0.059682 0.615469 -0.164194
-0.074524 -0.331181 0.520749
-0.095302 -0.331181 0.518695
-0.168639 -0.331181 0.496349
0.312471 0.392567 -0.060587
0.311118 0.394689 -0.057969
0.077546 0.453281 0.004746
0.183411 -0.140344 0.469174
-0.003400 -0.331181 -0.471684
0.192111 -0.331181 0.490252
0.085108 0.086233 0.449518
0.094345 -0.140344 0.496349
0.011876 0.408297 -0.372363
0.098793 -0.331181 0.518695
0.118774 -0.331181 0.512599
0.011876 0.408297 0.031633
0.001726 -0.327120 -0.471192
0.000066 -0.331181 -0.471514
0.080135 0.408297 0.011576
-0.065062 0.453281 0.034589
0.001726 -0.140344 0.505502
0.022504 -0.331181 0.526263
0.270296 0.392567 -0.033361
-0.355134 -0.331181 -0.399184
-0.339113 -0.140344 -0.391216
-0.358652 0.086233 -0.342291
-0.305516 0.086233 -0.374486
0.004672 0.665041 0.043199
0.001726 0.643705 0.129082
0.308790 0.398344 -0.053463
-0.262220 0.477246 -0.069947
0.011876 0.520482 0.043284
0.088762 0.453281 0.034589
0.011876 0.453281 0.038606
0.083180 0.392567 0.019668
-0.368376 -0.331181 -0.391150
0.259334 0.408297 -0.039186
0.023612 0.662227 0.043021
0.011876 0.599825 0.044919
-0.007732 0.664552 0.042562
-0.053947 0.643705 0.112094
-0.370194 0.241209 -0.027670
0.214927 0.392567 -0.009257
0.157681 0.408297 0.016253
-0.069122 0.643705 0.099583
-0.012204 0.663882 0.042343
-0.081606 0.643705 0.084289
-0.018672 0.662672 0.042030
-0.161741 0.569054 0.138121
-0.240759 0.086233 -0.400943
-0.267149 -0.140344 -0.420571
0.402200 0.152514 -0.027474
-0.029905 0.660243 0.041494
0.037693 0.621744 -0.163838
-0.179910 0.569054 0.103973
-0.212156 -0.331181 -0.447947
-0.066787 0.520482 0.039180
0.086174 0.408297 0.027731
0.151743 0.392567 0.008649
0.302458 0.408297 -0.041197
0.034967 0.643705 -0.178098
-0.193746 -0.331181 -0.452846
0.206300 0.408297 -0.016115
0.145805 0.408297 0.001016
-0.107489 0.569054 0.192670
-0.073486 0.569054 0.210920
-0.137330 0.569054 0.168078
-0.104259 0.638818 0.034018
-0.097858 0.643705 0.034943
-0.067396 0.599825 0.040787
-0.095469 0.509174 -0.334753
-0.052444 0.507868 -0.341746
-0.068877 0.508376 -0.339075
0.252485 0.401278 -0.309250
0.298716 0.284936 -0.324615
0.247160 0.398253 -0.313603
-0.235633 0.447900 0.187734
-0.407520 0.086233 -0.158218
-0.373067 0.189253 -0.158211
-0.191125 0.569054 0.066871
0.237087 0.392567 -0.321826
0.231971 0.393399 -0.324615
0.011876 0.453281 -0.348891
-0.262023 0.447900 0.138121
-0.199290 0.557696 -0.039378
-0.219758 0.531227 -0.047580
-0.143540 0.608822 0.028334
-0.194881 0.569054 0.028334
-0.143439 0.608898 0.028361
0.162705 0.453281 0.022709
-0.227069 0.522035 -0.052001
-0.143572 0.599825 0.028534
0.276589 0.447900 -0.196463
0.276589 0.447900 -0.251902
-0.333936 0.284936 0.168078
0.233959 0.447900 -0.303093
0.332262 0.284936 -0.293366
-0.228305 0.520482 -0.052748
0.026998 0.502903 -0.344672
0.251216 0.414349 -0.303868
0.254905 0.408297 -0.303470
-0.191125 0.569054 -0.099244
0.239921 0.432895 -0.305075
0.137381 0.520482 -0.009745
-0.148167 0.605146 0.027109
-0.278263 0.447900 0.084289
-0.354643 0.284936 0.099583
0.352968 0.284936 -0.259448
-0.179910 0.569054 -0.127451
-0.154863 0.599825 0.025331
0.206300 0.408297 -0.324615
0.214927 0.392567 -0.331473
0.223952 0.394705 -0.328988
-0.139005 0.453281 0.022709
0.224711 0.447900 -0.308695
0.001726 0.569054 0.225984
0.140731 0.453281 -0.005412
0.034967 0.569054 -0.320138
0.029036 0.502921 -0.344564
0.044390 0.503084 -0.343747
-0.142405 0.520482 0.027014
-0.220053 0.520482 -0.047421
-0.212085 0.520482 0.007271
-0.207162 0.453281 0.003398
0.071034 0.411234 -0.369733
0.055339 0.415082 -0.371147
0.093095 0.493399 -0.340070
0.079496 0.492961 -0.342288
0.071862 0.569054 -0.314571
-0.078663 0.569054 -0.314571
-0.022939 0.643705 -0.273107
0.076530 0.492866 -0.342771
-0.036642 0.569054 0.222168
-0.053947 0.447900 0.309774
0.165243 0.569054 -0.153449
-0.107489 0.447900 0.293446
0.113116 0.408237 -0.364120
0.086098 0.407897 -0.368283
0.084968 0.408042 -0.368418
0.082978 0.408297 -0.368656
0.132259 0.481245 -0.334662
0.105865 0.569054 -0.305532
0.139448 0.479012 -0.333670
-0.283744 0.447900 0.028334
-0.156869 0.447900 0.266904
0.140731 0.453281 -0.335318
-0.361595 0.284936 0.028334
-0.200108 0.284936 0.331984
0.105774 0.489471 -0.338316
-0.200108 0.447900 0.231236
-0.003400 0.643705 -0.274054
0.065321 0.652580 0.041043
0.100080 0.643705 0.047990
0.090741 0.646244 0.039847
0.101036 0.643705 0.038246
0.167116 0.402971 -0.351167
0.198433 0.284936 -0.374486
0.155583 0.402738 -0.354295
0.140562 0.404682 -0.357767
-0.188965 0.569054 -0.035186
-0.188323 0.569451 -0.034918
0.129611 0.406095 -0.360299
0.151743 0.392567 -0.349378
0.194627 0.569054 0.066871
0.158500 0.599825 0.029946
0.119441 0.629654 0.035587
0.163916 0.557042 -0.165236
-0.255172 0.284936 0.286588
0.167176 0.593221 0.028408
0.167423 0.593036 0.028334
-0.300391 0.284936 0.231236
-0.189163 0.572474 0.014961
-0.193453 0.569054 0.013667
0.253498 0.284936 -0.352018
0.183690 0.400661 -0.345111
-0.353526 0.086233 0.266904
-0.392959 0.086233 0.192670
-0.392959 -0.140344 0.293446
-0.436858 -0.140344 0.210920
0.186741 0.400233 -0.343994
0.215917 0.396157 -0.333315
0.035645 0.659622 0.042447
0.094345 0.643705 0.066871
0.216745 0.395880 -0.332917
-0.411854 -0.331181 0.306111
-0.447952 -0.331181 0.238159
0.083180 0.392567 -0.360397
0.001726 0.447900 0.315283
0.100080 0.643705 -0.054997
0.102008 0.643705 -0.069947
0.030219 0.660796 0.042706
0.011876 0.408297 -0.355892
0.080135 0.408297 -0.352334
-0.166917 0.569054 -0.278530
-0.220953 0.480396 -0.296505
-0.185086 0.569054 -0.261629
-0.274819 0.452622 -0.027880
-0.257608 0.408297 -0.027536
-0.278760 0.447900 -0.031575
0.011876 0.392567 -0.364128
-0.273444 0.454601 -0.026687
-0.278263 0.447900 -0.027650
-0.271008 0.458184 -0.024721
-0.181100 0.494536 -0.312586
-0.142456 0.569054 -0.293366
-0.246581 0.493432 -0.010164
-0.267791 0.462917 -0.022127
0.023025 0.414820 -0.372792
0.077546 0.453281 -0.345476
0.179768 0.583189 0.024606
-0.153614 0.499866 -0.321305
-0.138928 0.504552 -0.325102
-0.112665 0.569054 -0.305532
0.166106 0.520482 0.027014
0.173855 0.546514 -0.165241
0.185768 0.578406 0.022794
0.145805 0.408297 -0.341774
-0.069122 0.284936 0.386533
-0.172295 0.493907 -0.316476
-0.220435 0.530959 0.003914
-0.227779 0.520482 0.000441
-0.153926 0.499767 -0.321225
-0.137330 0.284936 0.365758
-0.212544 0.542216 0.007641
-0.161741 0.086233 0.425099
-0.246595 0.392567 -0.033361
-0.235633 0.408297 -0.039186
-0.274442 0.452947 -0.027558
-0.198616 0.488335 -0.305512
-0.191704 0.490782 -0.308303
-0.278892 0.446572 -0.027710
-0.287820 0.431603 -0.041392
0.183411 0.569054 -0.127451
-0.235633 0.086233 0.385414
-0.278561 0.447265 -0.027710
0.142463 0.479168 -0.332804
-0.182599 0.408297 -0.324615
0.016139 0.643705 -0.273107
-0.227545 0.476655 -0.293252
-0.236360 0.472852 -0.287976
-0.226295 0.453281 -0.296608
0.034967 0.643705 -0.270266
0.001726 -0.331181 0.528316
-0.081606 0.086233 0.449518
-0.266895 0.453281 -0.022600
-0.090894 -0.140344 0.496349
-0.081693 0.643705 -0.027488
-0.289650 0.396946 -0.283169
0.052273 0.643705 -0.265646
0.184953 0.465544 -0.321835
0.135655 0.569054 -0.293366
-0.091865 0.643705 -0.007004
-0.090894 0.643705 -0.010232
-0.223982 0.478191 -0.295385
0.091097 0.599825 0.040787
-0.108075 0.625601 -0.027511
0.188910 0.464278 -0.320814
0.190153 0.463880 -0.320493
-0.258330 0.403682 -0.308933
-0.305516 0.284936 -0.324615
-0.276106 0.399854 -0.294310
-0.278586 0.399320 -0.292268
-0.254285 0.403550 -0.311436
-0.246595 0.392567 -0.307369
0.090488 0.520482 0.039180
-0.112883 0.627206 -0.010741
0.198620 0.458350 -0.318526
-0.179910 -0.140344 0.469174
0.212968 0.453281 -0.312732
0.260349 0.447900 -0.169805
-0.262023 -0.140344 0.425099
-0.245926 0.404918 -0.315997
-0.260349 0.284936 -0.352018
-0.274620 -0.331181 0.444040
-0.132215 0.609029 -0.027518
-0.217924 0.410494 -0.330905
-0.225263 0.408297 -0.327272
0.198992 0.453281 -0.318818
-0.197162 0.410287 -0.339442
-0.200055 0.409535 -0.338490
-0.205285 0.409814 -0.336270
-0.278286 0.447834 -0.027684
0.194627 0.569054 -0.099244
0.428992 0.086233 0.028334
0.428992 0.086233 -0.069947
0.351851 0.086233 -0.342291
0.391335 0.086233 -0.305532
-0.235633 0.408297 -0.301544
0.423514 0.086233 -0.027488
-0.333864 -0.331181 0.395185
-0.191227 0.392567 -0.331473
-0.300391 0.086233 0.331984
-0.333936 -0.140344 0.365758
-0.349997 -0.331181 0.381872
-0.417319 0.086233 0.112094
-0.457800 -0.331181 0.219645
-0.463857 -0.140344 0.121420
-0.480041 -0.331181 0.145950
-0.486098 -0.331181 0.125871
0.011876 0.414728 -0.373360
-0.276928 0.449688 -0.027559
0.282070 0.447900 -0.224182
-0.278254 0.447900 -0.027682
-0.274250 0.453281 -0.027352
-0.059124 0.643705 -0.265646
-0.041767 0.643705 -0.270266
0.190351 0.527886 -0.166261
0.205763 0.509259 -0.166271
-0.003400 0.668819 -0.224182
-0.053747 0.649151 -0.027497
0.256550 0.447900 -0.166273
-0.101703 0.643705 -0.214455
-0.101703 0.643705 -0.233910
-0.074298 0.643705 -0.259448
-0.161741 0.569054 -0.153449
-0.191227 0.392567 -0.009257
-0.199854 0.408297 -0.002427
-0.096019 0.643705 -0.243264
-0.086783 0.643705 -0.251902
-0.054728 0.617480 -0.162534
-0.061457 0.615013 -0.162534
-0.073057 0.610759 -0.162534
-0.048601 0.619404 -0.162894
-0.021285 0.653758 -0.027511
-0.035368 0.652086 -0.027494
-0.041767 0.643705 -0.178098
-0.079188 0.608513 -0.162530
0.012790 0.654635 -0.027499
0.012813 0.654634 -0.027497
-0.035344 0.652089 -0.027492
0.263293 0.435395 -0.166269
0.001726 0.654907 -0.027493
0.001776 0.654907 -0.027488
-0.422445 0.086233 -0.265646
-0.398136 0.086233 -0.305532
0.277503 0.409026 -0.166273
-0.441984 -0.140344 -0.314571
-0.469034 -0.140344 -0.270266
-0.398136 -0.140344 -0.355404
-0.416991 -0.331181 -0.361681
-0.426828 -0.331181 -0.352520
-0.009288 0.654635 -0.027501
0.352968 0.284936 -0.188916
0.359921 0.284936 -0.224182
-0.422445 0.086233 -0.182689
-0.469034 -0.140344 -0.178098
-0.480498 -0.331181 -0.158232
-0.491275 -0.331181 -0.175895
-0.485206 -0.331181 -0.165955
-0.498794 -0.331181 -0.213844
-0.430666 0.086233 -0.224182
-0.478118 -0.140344 -0.224182
-0.500832 -0.331181 -0.224182
-0.491275 -0.331181 -0.272470
-0.493313 -0.331181 -0.262131
0.314127 0.338021 -0.168505
0.313108 0.340072 -0.168505
0.340498 0.284936 -0.168490
0.352562 0.248875 -0.168482
0.369993 0.196766 -0.168467
0.391335 -0.140344 -0.355404
0.435183 -0.140344 -0.314571
3 0 1 2
3 3 4 5
3 6 1 7
3 6 7 8
3 9 10 11
3 0 2 12
3 12 13 0
3 5 4 14
3 12 2 15
3 16 13 17
3 17 18 19
3 19 20 17
3 20 16 17
3 21 22 17
3 23 24 25
3 26 22 21
3 27 28 29
3 30 31 32
3 10 9 33
3 34 35 31
3 36 37 38
3 39 10 33
3 40 38 37
3 41 42 43
3 44 45 40
3 33 46 3
3 33 9 47
3 48 49 38
3 44 40 37
3 50 51 34
3 14 52 53
3 54 55 56
3 38 57 36
3 58 34 31
3 38 59 57
3 60 34 61
3 62 63 59
3 64 65 66
3 37 36 63
3 36 57 63
3 67 68 69
3 33 47 70
3 63 57 59
3 33 3 5
3 71 72 67
3 35 34 60
3 73 71 74
3 32 31 35
3 75 76 77
3 67 78 74
3 34 79 61
3 67 80 78
3 65 75 77
3 67 81 82
3 67 0 81
3 67 83 0
3 67 84 83
3 85 86 87
3 67 40 84
3 67 38 40
3 14 39 33
3 67 48 38
3 67 88 48
3 5 14 33
3 53 39 14
3 67 89 88
3 31 86 58
3 67 90 89
3 67 91 90
3 67 92 91
3 86 85 58
3 67 93 92
3 67 94 93
3 37 63 44
3 63 45 44
3 95 96 97
3 98 99 100
3 101 47 9
3 102 100 99
3 9 95 101
3 9 11 103
3 9 103 95
3 98 104 99
3 105 49 48
3 95 103 96
3 106 58 85
3 107 108 55
3 109 110 10
3 103 11 110
3 11 10 110
3 108 111 56
3 49 105 62
3 112 113 58
3 114 74 78
3 66 56 111
3 115 35 60
3 49 62 59
3 116 117 114
3 104 118 99
3 108 56 55
3 115 32 35
3 119 120 88
3 111 64 66
3 121 122 123
3 78 124 114
3 125 126 127
3 67 82 80
3 75 65 64
3 127 128 125
3 46 4 3
3 120 129 88
3 130 128 131
3 132 128 130
3 127 131 128
3 133 134 135
3 136 135 134
3 137 120 119
3 115 60 27
3 52 14 4
3 138 133 135
3 59 38 49
3 48 88 129
3 61 27 60
3 48 129 105
3 62 105 137
3 129 137 105
3 79 34 51
3 139 76 140
3 132 102 128
3 120 137 129
3 141 142 143
3 99 128 102
3 50 34 144
3 33 70 46
3 145 46 70
3 136 146 135
3 134 147 136
3 128 148 125
3 149 51 150
3 79 51 149
3 145 70 151
3 152 153 154
3 155 153 152
3 144 34 58
3 4 156 157
3 144 58 158
3 4 159 160
3 77 76 139
3 161 162 135
3 152 163 155
3 52 4 157
3 112 58 106
3 164 154 165
3 153 165 154
3 166 167 168
3 158 58 113
3 169 170 164
3 160 171 172
3 154 164 170
3 27 149 28
3 150 28 149
3 173 174 175
3 176 177 178
3 179 178 177
3 173 141 174
3 180 181 153
3 182 174 141
3 177 135 179
3 174 183 175
3 146 179 135
3 184 185 186
3 186 100 184
3 184 102 132
3 187 154 170
3 176 188 177
3 189 168 188
3 104 186 118
3 61 79 27
3 172 156 160
3 4 160 156
3 168 189 190
3 177 188 168
3 191 155 192
3 149 27 79
3 102 184 100
3 186 104 98
3 186 98 100
3 86 135 177
3 130 184 132
3 4 46 159
3 193 155 194
3 46 145 159
3 184 130 131
3 151 159 145
3 195 196 168
3 197 150 172
3 191 198 155
3 198 194 155
3 155 193 199
3 155 199 153
3 96 103 110
3 200 170 201
3 156 50 157
3 144 158 53
3 197 172 171
3 171 160 202
3 165 153 181
3 203 139 140
3 204 201 170
3 169 204 170
3 205 160 206
3 202 160 205
3 207 123 206
3 205 206 123
3 153 199 180
3 28 208 29
3 150 197 28
3 50 156 51
3 51 156 150
3 53 52 50
3 50 144 53
3 209 200 210
3 201 210 200
3 67 211 212
3 67 212 213
3 122 208 123
3 67 214 211
3 215 216 121
3 121 123 215
3 202 123 208
3 123 202 205
3 121 29 122
3 217 218 215
3 219 220 221
3 208 197 171
3 208 171 202
3 220 219 141
3 142 141 219
3 218 222 223
3 218 223 215
3 52 157 50
3 172 150 156
3 208 28 197
3 122 29 208
3 141 173 220
3 204 224 201
3 215 223 216
3 140 225 203
3 226 222 218
3 164 227 169
3 228 229 230
3 181 227 165
3 193 227 199
3 180 199 227
3 99 231 232
3 231 233 232
3 234 235 214
3 198 236 194
3 232 128 99
3 194 236 193
3 217 128 232
3 237 238 229
3 236 227 193
3 67 213 239
3 233 231 240
3 241 242 53
3 243 229 238
3 229 243 244
3 245 246 247
3 244 243 248
3 249 250 245
3 251 252 253
3 229 244 230
3 254 255 256
3 245 247 249
3 256 257 254
3 17 258 253
3 259 260 261
3 262 261 260
3 263 260 259
3 264 260 263
3 265 260 264
3 254 257 266
3 251 253 258
3 239 213 267
3 17 253 18
3 250 268 245
3 22 258 17
3 269 270 271
3 270 272 271
3 273 271 272
3 67 274 275
3 67 275 276
3 240 277 278
3 67 239 274
3 178 279 176
3 258 196 195
3 195 280 258
3 280 281 258
3 281 251 258
3 245 268 282
3 283 22 26
3 258 22 284
3 275 274 285
3 286 287 288
3 283 284 22
3 240 278 233
3 284 289 258
3 290 286 288
3 274 239 285
3 267 285 239
3 291 196 289
3 258 289 196
3 290 292 286
3 247 246 293
3 288 294 290
3 246 295 293
3 245 282 246
3 291 289 296
3 286 254 287
3 297 287 254
3 152 154 283
3 298 299 300
3 283 154 284
3 269 271 234
3 301 277 240
3 289 284 187
3 301 300 277
3 187 284 154
3 268 302 282
3 299 298 303
3 189 304 190
3 273 262 260
3 268 305 302
3 273 260 271
3 277 300 306
3 307 308 309
3 90 91 310
3 311 310 91
3 312 313 293
3 314 276 315
3 293 295 312
3 316 309 308
3 300 299 306
3 220 317 318
3 303 319 299
3 246 320 295
3 303 321 319
3 322 276 314
3 265 317 260
3 260 317 220
3 90 310 323
3 324 315 275
3 276 275 315
3 246 282 325
3 285 324 275
3 310 225 323
3 326 327 53
3 328 41 329
3 330 331 332
3 292 332 331
3 333 334 335
3 271 336 334
3 337 338 339
3 10 39 340
3 39 53 340
3 341 319 321
3 342 325 282
3 343 323 225
3 311 225 310
3 282 302 344
3 345 344 302
3 190 166 168
3 346 347 90
3 347 348 90
3 349 90 323
3 260 336 271
3 350 351 352
3 344 24 342
3 353 41 328
3 320 246 325
3 173 260 220
3 338 337 354
3 336 335 334
3 277 306 355
3 336 260 173
3 278 277 355
3 342 282 344
3 338 354 314
3 336 173 175
3 345 25 344
3 356 357 43
3 325 342 24
3 24 344 25
3 322 314 354
3 335 243 333
3 319 358 299
3 325 24 320
3 306 299 358
3 355 306 359
3 358 359 306
3 312 295 24
3 360 341 321
3 361 362 363
3 295 320 24
3 238 333 243
3 336 175 335
3 313 24 110
3 364 110 24
3 24 313 312
3 358 319 365
3 311 366 225
3 367 314 368
3 319 341 365
3 315 368 314
3 366 369 225
3 203 225 369
3 360 370 341
3 292 331 286
3 367 371 314
3 314 371 372
3 341 373 365
3 266 297 254
3 370 373 341
3 249 331 374
3 331 375 286
3 376 371 367
3 331 247 375
3 297 266 377
3 257 377 266
3 321 303 378
3 379 372 376
3 314 372 338
3 377 294 287
3 297 377 287
3 249 247 331
3 380 378 303
3 378 381 321
3 382 339 383
3 384 360 381
3 233 385 232
3 254 386 387
3 383 339 388
3 389 390 43
3 391 43 390
3 392 393 394
3 286 386 254
3 232 385 217
3 392 394 395
3 388 338 372
3 396 329 382
3 397 328 396
3 328 329 396
3 329 339 382
3 338 388 339
3 385 218 217
3 360 384 398
3 233 399 385
3 389 43 42
3 233 278 399
3 399 400 385
3 357 401 43
3 391 356 43
3 402 403 41
3 41 403 42
3 286 375 386
3 401 404 405
3 405 43 401
3 385 400 218
3 405 404 406
3 405 406 407
3 402 41 353
3 408 409 410
3 400 411 226
3 400 226 218
3 353 412 402
3 413 405 414
3 407 414 405
3 403 412 42
3 415 416 409
3 413 417 362
3 362 417 418
3 400 419 411
3 353 328 420
3 405 413 362
3 421 422 423
3 226 411 424
3 425 423 422
3 355 426 278
3 397 420 328
3 414 427 413
3 428 355 359
3 427 418 417
3 365 429 358
3 418 427 430
3 118 431 99
3 247 293 375
3 358 429 359
3 432 433 431
3 390 434 391
3 386 435 387
3 373 436 365
3 377 256 437
3 257 256 377
3 438 437 256
3 387 435 439
3 368 376 367
3 436 429 365
3 439 435 440
3 441 440 435
3 315 376 368
3 324 376 315
3 279 178 179
3 442 443 444
3 445 386 375
3 446 436 373
3 443 392 447
3 448 443 442
3 436 446 449
3 426 399 278
3 399 450 400
3 324 285 271
3 267 235 271
3 285 267 271
3 234 271 235
3 346 90 349
3 426 450 399
3 450 421 419
3 450 419 400
3 450 422 421
3 390 389 451
3 452 443 448
3 324 271 376
3 453 454 455
3 355 428 426
3 393 392 443
3 456 455 454
3 334 376 271
3 386 445 435
3 428 457 426
3 340 435 445
3 343 458 347
3 426 457 450
3 455 459 453
3 457 460 422
3 457 422 450
3 347 346 343
3 461 428 359
3 343 346 349
3 462 376 334
3 463 88 464
3 430 465 126
3 466 460 457
3 333 462 334
3 467 468 89
3 467 89 469
3 89 348 469
3 460 470 422
3 470 471 422
3 471 472 422
3 473 126 465
3 473 474 126
3 429 461 359
3 340 441 435
3 475 462 333
3 428 461 476
3 126 363 362
3 428 476 457
3 477 340 445
3 430 126 418
3 362 418 126
3 476 478 466
3 476 466 457
3 436 479 429
3 375 293 445
3 293 313 445
3 333 238 475
3 461 429 479
3 313 110 445
3 461 480 476
3 394 481 294
3 479 480 461
3 480 482 483
3 480 483 476
3 484 237 228
3 485 486 445
3 349 323 343
3 477 486 10
3 486 109 10
3 476 483 478
3 417 413 427
3 477 445 486
3 237 229 228
3 449 479 436
3 109 486 485
3 238 487 475
3 228 488 484
3 449 489 479
3 485 445 110
3 430 427 465
3 479 489 480
3 485 110 109
3 480 490 482
3 238 237 487
3 480 489 490
3 332 294 481
3 374 330 481
3 332 481 330
3 427 491 465
3 492 241 53
3 340 477 10
3 97 96 110
3 364 97 110
3 332 292 294
3 292 290 294
3 472 425 422
3 460 466 470
3 466 478 470
3 483 470 478
3 490 470 483
3 482 490 483
3 493 494 495
3 360 398 370
3 496 408 497
3 496 497 398
3 498 127 474
3 167 304 499
3 500 501 502
3 487 237 503
3 408 410 497
3 492 504 493
3 406 505 407
3 410 409 416
3 380 506 507
3 381 378 507
3 380 507 378
3 508 509 415
3 407 505 414
3 510 135 31
3 416 415 509
3 30 510 31
3 86 31 135
3 511 512 185
3 509 508 513
3 514 513 508
3 395 394 294
3 294 377 395
3 515 513 516
3 514 516 513
3 288 287 294
3 515 517 513
3 518 519 495
3 520 126 148
3 125 148 126
3 493 495 519
3 493 241 492
3 458 469 348
3 519 242 241
3 519 241 493
3 454 515 521
3 502 484 488
3 255 387 518
3 458 348 347
3 519 518 439
3 518 387 439
3 522 89 468
3 515 523 517
3 439 524 519
3 488 525 502
3 519 524 242
3 526 512 527
3 131 127 528
3 529 468 458
3 530 440 53
3 504 492 53
3 242 524 53
3 524 530 53
3 440 441 53
3 458 468 467
3 439 530 524
3 458 467 469
3 498 528 127
3 474 184 498
3 500 502 525
3 511 531 527
3 530 439 440
3 126 474 127
3 441 340 53
3 473 491 474
3 464 522 529
3 468 529 522
3 532 527 531
3 503 532 487
3 416 533 534
3 503 527 532
3 416 509 533
3 456 521 507
3 521 516 507
3 516 514 507
3 514 508 507
3 508 415 507
3 415 409 507
3 409 408 507
3 496 507 408
3 384 507 496
3 381 507 384
3 463 137 119
3 464 529 463
3 527 512 511
3 535 533 509
3 491 185 184
3 536 537 538
3 137 463 529
3 509 513 535
3 500 525 538
3 448 539 452
3 540 452 541
3 541 452 539
3 500 538 507
3 542 543 544
3 513 517 535
3 540 307 452
3 307 309 452
3 456 507 538
3 459 455 538
3 456 538 455
3 516 521 515
3 545 535 517
3 454 523 515
3 546 86 547
3 177 547 86
3 521 456 454
3 528 498 184
3 454 548 523
3 528 184 131
3 393 443 452
3 549 544 543
3 550 549 543
3 548 454 453
3 452 309 551
3 453 459 537
3 309 316 551
3 316 351 551
3 350 551 351
3 511 185 491
3 80 124 78
3 184 474 491
3 523 552 517
3 401 505 404
3 553 114 554
3 517 552 545
3 555 556 557
3 536 557 453
3 537 536 453
3 453 557 556
3 512 558 185
3 559 554 114
3 555 557 560
3 77 561 65
3 562 54 56
3 536 560 557
3 403 402 412
3 353 420 412
3 552 563 545
3 412 420 397
3 564 54 565
3 124 499 566
3 114 124 559
3 566 559 124
3 350 567 551
3 568 564 569
3 505 491 427
3 397 396 412
3 569 565 542
3 168 124 570
3 571 564 568
3 565 569 564
3 531 505 434
3 389 42 412
3 511 491 505
3 572 412 396
3 556 555 573
3 412 451 389
3 167 499 168
3 473 465 491
3 168 499 124
3 552 523 574
3 552 575 563
3 505 531 511
3 54 562 576
3 574 575 552
3 451 531 434
3 252 570 577
3 573 560 578
3 544 579 542
3 573 555 560
3 580 579 549
3 549 550 580
3 581 580 550
3 582 488 228
3 583 571 568
3 352 567 350
3 398 584 370
3 585 451 412
3 398 497 584
3 352 586 567
3 587 586 588
3 451 585 532
3 228 230 582
3 488 589 525
3 427 414 505
3 554 590 553
3 356 434 357
3 591 582 592
3 451 434 390
3 589 582 591
3 412 572 585
3 357 434 401
3 250 249 593
3 559 590 554
3 593 594 481
3 585 572 475
3 505 401 434
3 406 404 505
3 582 589 488
3 566 590 559
3 356 391 434
3 566 304 590
3 572 462 475
3 595 596 597
3 598 308 541
3 307 540 308
3 540 541 308
3 352 308 599
3 459 538 537
3 566 499 304
3 578 560 589
3 588 586 600
3 589 560 525
3 497 410 601
3 538 525 560
3 451 532 531
3 304 167 166
3 584 497 601
3 536 538 560
3 594 593 249
3 532 585 487
3 601 602 584
3 548 574 523
3 410 416 534
3 369 366 603
3 585 475 487
3 166 190 304
3 91 92 603
3 534 601 410
3 601 604 602
3 556 548 453
3 534 604 601
3 605 250 606
3 607 606 250
3 608 607 250
3 593 608 250
3 609 610 611
3 548 612 574
3 534 533 613
3 379 388 372
3 168 570 252
3 548 556 612
3 611 614 609
3 534 613 604
3 388 379 383
3 612 615 574
3 613 616 604
3 382 383 379
3 371 376 372
3 379 572 382
3 382 572 396
3 615 575 574
3 253 577 18
3 462 379 376
3 462 572 379
3 615 115 575
3 609 617 597
3 613 533 618
3 617 595 597
3 619 352 599
3 351 316 352
3 316 308 352
3 620 621 622
3 623 622 621
3 280 168 252
3 624 625 626
3 627 626 625
3 114 628 629
3 630 627 625
3 251 281 252
3 114 553 628
3 522 88 89
3 626 631 624
3 280 252 281
3 627 631 626
3 535 618 533
3 632 633 634
3 573 578 556
3 203 369 635
3 613 618 636
3 632 637 633
3 637 632 638
3 618 535 545
3 618 639 636
3 433 638 632
3 639 618 545
3 640 641 556
3 56 66 562
3 143 114 629
3 625 250 630
3 605 630 250
3 625 268 250
3 642 625 643
3 623 621 634
3 147 279 179
3 545 563 639
3 636 639 644
3 553 590 628
3 644 639 645
3 632 634 621
3 433 632 231
3 624 643 625
3 301 632 621
3 99 433 231
3 645 639 563
3 646 644 647
3 642 648 649
3 650 651 620
3 643 648 642
3 89 90 348
3 620 651 621
3 366 311 91
3 649 652 642
3 91 603 366
3 621 651 301
3 424 653 226
3 222 226 654
3 605 606 655
3 584 656 370
3 632 240 231
3 370 656 373
3 195 168 280
3 463 119 88
3 632 301 240
3 177 168 196
3 522 464 88
3 291 177 196
3 586 352 619
3 67 657 658
3 506 298 659
3 296 177 291
3 660 661 655
3 587 567 586
3 656 446 373
3 296 547 177
3 657 67 337
3 650 659 298
3 650 298 651
3 146 136 147
3 651 298 300
3 651 300 301
3 662 663 664
3 665 666 667
3 303 506 380
3 607 668 655
3 607 655 606
3 669 670 671
3 672 662 673
3 506 303 298
3 607 608 668
3 321 381 360
3 674 675 556
3 496 398 384
3 676 481 594
3 677 551 587
3 678 638 433
3 679 673 680
3 681 680 673
3 671 670 675
3 587 588 677
3 600 677 588
3 678 682 638
3 596 677 600
3 596 595 677
3 617 677 595
3 556 675 670
3 203 683 139
3 661 551 677
3 678 433 684
3 444 680 681
3 433 432 684
3 685 661 677
3 146 147 179
3 656 584 602
3 656 686 446
3 673 687 672
3 688 689 556
3 687 673 690
3 602 686 656
3 689 674 556
3 648 643 631
3 643 624 631
3 134 133 147
3 679 690 673
3 691 686 602
3 688 556 692
3 604 691 602
3 691 693 686
3 556 641 692
3 99 431 433
3 649 648 580
3 442 444 681
3 442 681 448
3 539 448 598
3 681 598 448
3 484 503 237
3 598 541 539
3 694 695 147
3 696 666 665
3 526 503 484
3 697 698 447
3 687 447 672
3 580 685 579
3 690 447 687
3 502 501 526
3 147 695 279
3 631 580 648
3 652 649 580
3 679 680 443
3 444 443 680
3 188 176 279
3 627 630 655
3 605 655 630
3 526 484 502
3 94 67 658
3 690 679 443
3 135 699 700
3 655 661 631
3 690 443 447
3 685 631 661
3 631 685 580
3 613 636 616
3 616 691 604
3 627 655 631
3 701 603 92
3 616 702 691
3 667 699 703
3 614 617 609
3 617 614 677
3 182 590 304
3 611 704 614
3 182 304 279
3 705 447 392
3 614 685 677
3 304 189 279
3 188 279 189
3 395 705 392
3 182 279 695
3 619 706 586
3 556 578 640
3 707 708 664
3 708 709 192
3 710 597 706
3 489 711 490
3 446 686 712
3 586 706 597
3 586 597 596
3 446 712 449
3 671 713 669
3 449 714 489
3 675 713 671
3 369 603 635
3 712 714 449
3 596 600 586
3 674 713 675
3 714 471 470
3 714 470 489
3 715 73 74
3 67 74 71
3 716 200 209
3 610 597 710
3 610 710 717
3 489 470 711
3 704 611 610
3 597 610 609
3 589 591 641
3 610 718 704
3 719 717 107
3 720 318 721
3 107 55 719
3 192 664 708
3 719 610 717
3 707 664 722
3 506 659 507
3 723 507 659
3 718 610 719
3 724 715 74
3 322 337 276
3 659 650 723
3 650 620 723
3 622 723 620
3 725 718 719
3 663 722 664
3 114 143 116
3 74 114 117
3 726 725 719
3 727 728 729
3 730 729 728
3 503 526 527
3 92 93 701
3 727 731 728
3 729 732 727
3 500 733 501
3 723 733 507
3 716 730 200
3 728 200 730
3 507 733 500
3 728 494 200
3 556 670 612
3 721 117 734
3 726 719 735
3 697 663 662
3 712 686 693
3 698 697 662
3 693 736 712
3 737 735 719
3 700 138 135
3 698 662 672
3 712 736 714
3 720 721 734
3 714 472 471
3 719 564 583
3 719 583 737
3 77 139 738
3 667 700 699
3 714 736 472
3 425 472 736
3 221 734 117
3 719 55 564
3 571 583 564
3 702 693 691
3 116 221 117
3 693 739 736
3 652 581 642
3 642 581 550
3 738 561 77
3 731 740 728
3 741 728 740
3 683 635 603
3 490 711 470
3 423 742 421
3 743 724 74
3 550 543 642
3 74 117 743
3 744 741 745
3 54 564 55
3 581 652 580
3 693 702 739
3 623 634 723
3 622 623 723
3 633 723 634
3 161 135 510
3 501 512 526
3 740 745 741
3 501 558 512
3 318 720 220
3 720 734 220
3 558 501 733
3 741 495 728
3 221 220 734
3 637 682 633
3 633 682 723
3 728 495 494
3 746 568 579
3 569 579 568
3 161 615 162
3 723 682 733
3 612 162 615
3 438 255 747
3 569 542 579
3 748 747 255
3 749 748 255
3 544 549 579
3 703 750 667
3 438 256 255
3 614 718 746
3 704 718 614
3 725 746 718
3 186 682 118
3 725 726 746
3 735 746 726
3 219 221 116
3 699 135 162
3 682 558 733
3 67 276 337
3 746 579 614
3 185 558 186
3 255 741 749
3 142 219 116
3 143 142 116
3 337 322 354
3 746 735 737
3 701 93 751
3 744 749 741
3 746 737 568
3 558 682 186
3 518 495 741
3 579 685 614
3 518 741 255
3 93 94 751
3 590 141 629
3 637 638 682
3 682 678 684
3 118 682 431
3 684 431 682
3 431 684 432
3 255 254 387
3 568 737 583
3 128 217 752
3 215 123 752
3 716 209 224
3 215 752 217
3 657 41 658
3 543 542 565
3 363 126 753
3 565 54 576
3 210 201 224
3 642 305 625
3 204 169 227
3 305 268 625
3 159 363 753
3 754 642 543
3 210 224 209
3 699 612 703
3 731 732 740
3 745 740 732
3 729 224 732
3 565 755 543
3 751 362 701
3 160 753 206
3 224 729 730
3 224 730 716
3 164 165 227
3 181 180 227
3 160 159 753
3 756 227 236
3 126 520 753
3 757 753 520
3 224 204 227
3 206 753 207
3 756 732 227
3 635 683 203
3 739 742 423
3 739 423 736
3 224 227 732
3 739 758 742
3 736 423 425
3 732 756 759
3 636 760 616
3 709 705 756
3 705 759 756
3 616 760 702
3 760 761 702
3 162 612 699
3 731 727 732
3 670 703 612
3 709 236 191
3 198 191 236
3 722 709 707
3 317 73 318
3 702 761 739
3 192 709 191
3 361 603 701
3 708 707 709
3 761 762 758
3 761 758 739
3 697 709 663
3 709 756 236
3 672 447 698
3 264 73 265
3 760 636 644
3 722 663 709
3 447 709 697
3 361 701 362
3 705 709 447
3 644 646 760
3 318 73 721
3 760 646 761
3 265 73 317
3 705 395 759
3 377 759 395
3 747 437 438
3 748 437 747
3 615 30 115
3 419 421 758
3 742 758 421
3 411 419 758
3 758 762 411
3 762 424 411
3 575 763 563
3 437 759 377
3 32 115 30
3 759 437 732
3 653 424 646
3 732 437 745
3 748 749 437
3 745 437 749
3 744 745 749
3 647 644 645
3 647 764 654
3 646 647 654
3 161 510 615
3 765 647 645
3 647 766 764
3 765 766 647
3 715 721 73
3 362 751 405
3 330 374 331
3 654 653 646
3 645 563 763
3 658 41 43
3 763 765 645
3 30 615 510
3 337 339 657
3 329 657 339
3 629 628 590
3 724 743 721
3 41 657 329
3 765 767 766
3 763 575 115
3 567 587 551
3 763 27 765
3 94 658 43
3 594 249 676
3 115 27 763
3 43 751 94
3 27 29 765
3 768 676 249
3 374 768 249
3 743 117 721
3 765 29 767
3 43 405 751
3 696 665 769
3 223 222 654
3 654 764 223
3 764 766 223
3 767 216 766
3 29 216 767
3 770 65 561
3 424 762 761
3 761 646 424
3 653 654 226
3 148 128 752
3 676 768 481
3 757 520 752
3 481 668 608
3 608 593 481
3 148 752 520
3 207 753 757
3 665 667 769
3 668 481 394
3 768 374 481
3 757 752 207
3 123 207 752
3 223 766 216
3 216 29 121
3 570 124 80
3 769 667 771
3 570 80 82
3 771 667 750
3 660 452 551
3 393 668 394
3 570 82 577
3 393 452 660
3 577 82 81
3 724 721 715
3 770 66 65
3 660 668 393
3 551 661 660
3 770 562 66
3 668 660 655
3 696 769 772
3 773 598 681
3 669 772 769
3 773 774 598
3 603 775 683
3 774 308 598
3 599 308 774
3 683 775 139
3 139 775 776
3 777 710 706
3 778 67 72
3 670 669 769
3 75 777 76
3 777 140 76
3 777 225 140
3 777 343 225
3 769 771 670
3 779 738 776
3 776 738 139
3 771 750 670
3 777 163 780
3 777 781 163
3 777 773 782
3 670 750 703
3 777 774 773
3 777 599 774
3 777 619 599
3 777 706 619
3 666 694 138
3 710 777 717
3 700 666 138
3 777 107 717
3 777 108 107
3 777 111 108
3 783 577 81
3 777 64 111
3 263 72 264
3 577 253 252
3 777 75 64
3 780 283 26
3 780 152 283
3 780 163 152
3 361 776 603
3 781 155 163
3 784 666 785
3 73 264 71
3 786 781 777
3 786 664 781
3 781 664 155
3 81 0 783
3 664 192 155
3 71 264 72
3 777 787 786
3 786 787 662
3 664 786 662
3 248 183 784
3 777 782 787
3 787 673 662
3 16 20 783
3 787 782 673
3 782 773 681
3 577 783 19
3 19 18 577
3 681 673 782
3 783 20 19
3 343 777 458
3 777 529 458
3 777 137 529
3 777 62 137
3 40 788 84
3 133 138 694
3 63 62 777
3 789 790 84
3 183 174 695
3 791 788 40
3 68 67 792
3 101 565 576
3 67 778 793
3 183 695 694
3 789 84 788
3 1 0 83
3 794 45 63
3 777 794 63
3 133 694 147
3 791 40 45
3 694 666 784
3 788 791 794
3 45 794 791
3 259 793 263
3 183 694 784
3 244 248 784
3 794 777 6
3 244 784 785
3 795 84 790
3 6 790 794
3 790 6 795
3 772 713 666
3 700 667 666
3 772 666 696
3 790 789 794
3 72 263 778
3 772 669 713
3 789 788 794
3 6 777 15
3 2 1 6
3 6 15 2
3 13 12 15
3 778 263 793
3 143 629 141
3 777 21 15
3 21 17 15
3 15 17 13
3 182 141 590
3 26 21 777
3 777 780 26
3 16 783 13
3 67 796 797
3 7 1 83
3 83 795 8
3 84 795 83
3 8 795 6
3 798 792 67
3 67 793 798
3 13 783 0
3 695 174 182
3 7 83 8
3 785 713 592
3 666 713 785
3 674 592 713
3 689 591 592
3 674 689 592
3 688 591 689
3 775 603 776
3 692 591 688
3 230 785 592
3 798 259 792
3 259 798 793
3 799 779 361
3 692 641 591
3 261 792 259
3 578 589 640
3 738 779 799
3 640 589 641
3 214 67 797
3 779 776 361
3 800 801 67
3 802 187 170
3 170 200 803
3 738 804 561
3 803 802 170
3 494 803 200
3 805 327 326
3 805 326 806
3 68 261 69
3 807 805 803
3 262 69 261
3 261 68 792
3 803 494 807
3 807 808 809
3 807 809 805
3 810 800 67
3 67 69 810
3 807 504 808
3 770 811 812
3 805 809 327
3 272 800 273
3 493 807 494
3 493 504 807
3 770 561 811
3 273 800 262
3 809 53 327
3 546 547 813
3 296 289 813
3 262 800 810
3 262 810 69
3 814 106 85
3 801 796 67
3 814 85 813
3 87 813 85
3 562 770 812
3 815 158 113
3 812 576 562
3 801 272 796
3 106 814 112
3 816 817 814
3 817 113 814
3 112 814 113
3 270 796 272
3 818 816 814
3 800 272 801
3 817 815 113
3 289 187 819
3 819 813 289
3 819 820 813
3 813 820 814
3 820 821 818
3 820 818 814
3 802 819 187
3 234 797 269
3 819 806 820
3 802 806 819
3 806 822 823
3 806 823 820
3 796 270 797
3 214 797 234
3 270 269 797
3 820 823 821
3 212 211 235
3 803 805 802
3 802 805 806
3 326 822 806
3 804 799 361
3 809 808 53
3 817 816 53
3 815 817 53
3 818 53 816
3 821 53 818
3 823 53 821
3 823 822 53
3 326 53 822
3 211 214 235
3 799 804 738
3 808 504 53
3 267 212 235
3 296 813 547
3 212 267 213
3 86 546 87
3 824 811 561
3 244 785 230
3 813 87 546
3 158 815 53
3 592 582 230
3 335 248 243
3 175 248 335
3 175 183 248
3 361 825 804
3 824 363 826
3 825 363 824
3 825 361 363
3 561 804 825
3 824 561 825
3 826 811 824
3 827 811 826
3 101 576 47
3 576 812 47
3 811 70 812
3 812 70 47
3 827 159 828
3 811 827 828
3 159 827 363
3 826 363 827
3 828 159 151
3 811 828 70
3 151 70 828
3 754 305 642
3 754 829 305
3 305 829 302
3 543 755 754
3 755 101 95
3 101 755 565
3 25 345 302
3 23 25 829
3 302 829 25
3 754 755 830
3 755 95 830
3 754 830 829
3 24 829 830
3 364 24 830
3 830 97 364
3 95 97 830
3 24 23 829
