ply
format ascii 1.0
comment Created by Blender 2.76 (sub 0) - www.blender.org, source file: ''
element vertex 275
property float x
property float y
property float z
element face 546
property list uchar uint vertex_indices
end_header
0.159016 -0.305778 0.433083
0.135266 -0.247045 0.476898
0.069016 -0.265542 0.478506
0.196307 0.324847 0.427154
0.230891 0.366610 0.374697
0.159016 0.402078 0.371582
0.176724 0.434496 0.312895
0.081099 -0.327708 0.434993
-0.293901 0.235030 0.434993
-0.230984 0.201087 0.478104
-0.196401 0.239989 0.474788
-0.154318 0.271835 0.471974
-0.196401 0.324847 0.427154
-0.249943 0.284421 0.430672
-0.499943 -0.052345 -0.414068
0.000057 0.408371 -0.454164
0.097557 0.399409 -0.453360
0.353599 0.351926 0.196524
0.277766 0.409325 0.191500
0.298599 0.393498 0.192907
0.090057 0.458714 0.310784
0.415682 0.282132 0.202554
0.353599 0.273361 -0.442407
0.277766 0.330759 -0.447331
0.176724 -0.351927 0.381330
0.426724 0.204137 0.332892
0.384016 0.194604 0.389570
0.407766 0.122903 0.395801
0.191307 0.373283 -0.451049
0.159016 -0.035374 0.528551
0.081099 0.014779 0.542520
0.054224 -0.010011 0.544630
0.230891 -0.270500 0.430069
0.196307 -0.216916 0.474285
0.135266 -0.062071 0.530862
0.176724 -0.004864 0.525838
0.081099 0.423817 0.369673
0.187557 0.028127 0.523024
0.095682 0.047196 0.539706
-0.081193 0.423817 0.369673
0.000057 0.431255 0.369070
-0.090151 0.458714 0.310784
0.191307 0.062643 0.520009
0.461932 0.202613 0.209488
0.480891 0.122139 0.279531
0.490474 0.116037 0.217025
0.452974 0.206807 0.272095
0.054224 -0.192124 0.512271
0.294016 -0.222827 0.425848
0.037349 -0.110316 0.534983
0.106307 -0.177632 0.511066
0.073182 -0.100211 0.534179
-0.326609 0.178776 0.439917
-0.256609 0.156846 0.481923
-0.097651 0.399409 -0.453360
0.000057 0.486937 0.184767
0.154224 -0.153796 0.508955
0.106307 -0.084001 0.532772
0.090057 -0.376145 0.383340
0.384016 -0.195175 0.367663
0.345682 -0.164665 0.420823
0.426724 -0.121568 0.361231
0.384016 -0.098494 0.415095
0.294016 -0.126908 0.466447
0.000057 -0.513063 -0.374072
-0.097651 -0.504291 -0.374775
0.191307 -0.477975 -0.377087
0.277766 -0.435451 -0.380805
0.097557 -0.504291 -0.374775
-0.272443 0.108790 0.486143
-0.346818 0.117563 0.445243
-0.353484 0.054062 0.450770
-0.191401 0.451850 0.187882
-0.095776 0.477211 0.248680
-0.097651 0.478166 0.185571
0.452974 0.124427 0.339927
0.191307 0.451850 0.187882
-0.277859 0.059020 0.490464
0.480891 -0.054253 0.294806
0.452974 -0.138921 0.302242
0.490474 -0.063597 0.232702
0.019016 -0.023361 0.545836
0.135266 0.187166 0.509156
0.159016 0.160469 0.511468
0.196307 0.239989 0.474788
0.230891 0.201087 0.478104
0.250057 0.284421 0.430672
0.097557 0.478166 0.185571
-0.277859 0.330759 -0.447331
-0.277859 0.409325 0.191500
0.000057 0.466915 0.310081
0.500057 0.026220 0.224863
0.500057 -0.052345 -0.414068
0.490474 0.033848 0.287168
0.452974 -0.041666 0.354297
0.000057 0.065503 0.544329
0.490474 0.037470 -0.421906
-0.081193 0.014779 0.542520
-0.159109 -0.035374 0.528551
-0.135359 -0.062071 0.530862
0.037349 0.235602 0.504935
0.054224 0.139493 0.531667
0.073182 0.225495 0.505840
-0.346818 -0.009439 0.456297
-0.176818 0.130148 0.514080
-0.187651 0.096968 0.516994
-0.019109 -0.023361 0.545836
-0.037443 -0.110316 0.534983
0.000057 -0.113750 0.535284
0.135266 0.354977 0.424542
0.069016 0.373474 0.422934
-0.191401 0.062643 0.520009
0.000057 0.379768 0.422431
0.294016 0.318936 0.378817
0.176724 0.130148 0.514080
-0.054318 -0.192124 0.512271
-0.106401 -0.177632 0.511066
-0.068901 -0.265542 0.478506
0.000057 -0.271644 0.479008
0.000057 -0.197083 0.512673
0.154224 0.271835 0.471974
0.106307 0.295481 0.469964
0.187557 0.096968 0.516994
0.095682 0.082284 0.536691
0.106307 0.209096 0.507247
0.081099 0.114703 0.533877
-0.106401 -0.084001 0.532772
-0.154318 -0.153796 0.508955
0.461932 0.041285 0.347062
0.054224 0.309973 0.468658
0.000057 -0.334955 0.435596
-0.135359 -0.247045 0.476898
-0.068901 0.373474 0.422934
0.415682 0.048149 0.402333
0.407766 -0.026603 0.408865
-0.159109 0.402078 0.371582
-0.135359 0.354977 0.424542
-0.081193 -0.327708 0.434993
-0.159109 -0.305778 0.433083
-0.499943 -0.052336 -0.413991
-0.499943 0.026220 0.224863
-0.490359 0.116037 0.217025
0.277766 0.059020 0.490464
0.353599 0.054062 0.450770
0.346724 0.117563 0.445243
-0.073276 -0.100211 0.534179
-0.054318 -0.010011 0.544630
-0.191401 0.373283 -0.451049
0.000057 -0.434498 0.264859
0.097557 -0.425725 0.264156
-0.353484 0.273361 -0.442407
-0.353484 0.351926 0.196524
0.326724 0.178776 0.439917
0.384016 0.277746 0.326561
0.407766 0.284992 0.265361
0.346724 0.353452 0.259432
0.345682 0.260965 0.383842
0.294016 0.235030 0.434993
-0.415776 0.282132 0.202554
0.415682 -0.308257 -0.391859
0.490474 -0.142353 -0.406229
0.353599 -0.378243 -0.385729
0.326724 0.342200 0.320934
0.256724 0.156846 0.481923
0.272349 0.409706 0.254508
0.415682 0.203566 -0.436277
0.461932 0.123856 -0.429443
0.256724 0.395214 0.316311
0.272349 0.108790 0.486143
-0.415776 -0.229691 0.247072
-0.462026 -0.150171 0.240138
-0.415776 -0.308257 -0.391859
0.187557 0.451469 0.250891
0.256724 -0.038997 0.499006
0.346724 -0.009439 0.456297
0.272349 0.009058 0.494786
-0.353484 -0.378243 -0.385729
-0.353484 -0.299486 0.253202
0.000057 0.314931 0.468256
-0.054318 0.309973 0.468658
-0.453068 0.206807 0.272095
-0.480984 0.122139 0.279531
-0.426818 0.204137 0.332892
0.326724 -0.070652 0.461523
-0.106401 0.295481 0.469964
-0.415776 0.048149 0.402333
-0.384109 0.194604 0.389570
-0.384109 -0.098494 0.415095
-0.326609 -0.070652 0.461523
-0.407859 0.122903 0.395801
-0.272443 0.009058 0.494786
-0.453068 0.124427 0.339927
0.095682 0.477211 0.248680
0.000057 0.238844 0.504634
0.019016 0.153032 0.530460
-0.187651 0.028127 0.523024
-0.256609 -0.038997 0.499006
-0.037443 0.235602 0.504935
-0.398693 -0.248952 0.248780
-0.293901 -0.126908 0.466447
-0.462026 -0.228738 -0.398793
-0.277859 -0.435451 -0.380805
-0.277859 -0.356884 0.258126
-0.073276 0.225495 0.505840
-0.191401 -0.477975 -0.377087
-0.191401 -0.399410 0.261844
-0.187651 0.451469 0.250891
-0.345776 -0.164665 0.420823
-0.346818 0.353452 0.259432
-0.272443 0.409706 0.254508
-0.135359 0.187166 0.509156
-0.159109 0.160469 0.511468
-0.054318 0.139493 0.531667
0.461932 -0.228738 -0.398793
-0.453068 -0.138921 0.302242
-0.176818 0.434496 0.312895
-0.407859 0.284992 0.265361
0.277766 -0.356884 0.258126
0.353599 -0.299486 0.253202
0.000057 0.485794 0.247876
0.415682 -0.229691 0.247072
-0.462026 0.202613 0.209488
-0.256609 0.395214 0.316311
-0.415776 0.203566 -0.436277
-0.326609 0.342200 0.320934
-0.384109 0.277746 0.326561
-0.230984 -0.083238 0.502825
-0.293901 0.318936 0.378817
-0.196401 -0.121950 0.506242
-0.345776 0.260965 0.383842
-0.490359 -0.142353 -0.406229
-0.230984 0.366610 0.374697
-0.490359 0.033848 0.287168
-0.462026 0.041285 0.347062
-0.490359 0.037470 -0.421906
-0.462026 0.123856 -0.429443
-0.106401 0.209096 0.507247
-0.272443 -0.341820 0.319828
-0.187651 -0.383583 0.323446
-0.176818 -0.351927 0.381330
-0.256609 -0.312644 0.377913
-0.490359 -0.063597 0.232702
-0.176818 -0.004864 0.525838
-0.480984 -0.054253 0.294806
-0.426818 -0.121568 0.361231
-0.453068 -0.041666 0.354297
0.461932 -0.150171 0.240138
-0.293901 -0.222827 0.425848
-0.326609 -0.259631 0.373290
-0.346818 -0.285566 0.314904
-0.019109 0.153032 0.530460
0.191307 -0.399410 0.261844
-0.407859 -0.217106 0.308975
-0.407859 -0.026603 0.408865
-0.384109 -0.195175 0.367663
-0.097651 -0.425725 0.264156
0.095682 -0.409325 0.325657
0.187557 -0.383583 0.323446
0.272349 -0.341820 0.319828
0.346724 -0.285566 0.314904
0.407766 -0.217106 0.308975
-0.230984 -0.270500 0.430069
-0.196401 -0.216916 0.474285
-0.249943 -0.176297 0.470768
0.256724 -0.312644 0.377913
0.326724 -0.259631 0.373290
-0.095776 -0.409325 0.325657
0.000057 -0.417906 0.326461
-0.090151 -0.376145 0.383340
0.000057 -0.384345 0.384144
-0.090151 0.099256 0.535184
0.250057 -0.176297 0.470768
-0.097651 0.064741 0.538198
0.196307 -0.121950 0.506242
0.230891 -0.083238 0.502825
3 0 1 2
3 3 4 5
3 5 4 6
3 7 0 2
3 8 9 10
3 11 12 13
3 14 15 16
3 10 11 13
3 17 18 19
3 6 20 5
3 17 21 22
3 18 17 22
3 22 23 18
3 7 24 0
3 25 26 27
3 23 28 18
3 29 30 31
3 1 32 33
3 34 29 31
3 1 0 32
3 29 35 30
3 20 36 5
3 30 37 38
3 35 37 30
3 39 40 41
3 37 42 38
3 43 44 45
3 44 43 46
3 1 47 2
3 32 48 33
3 49 50 51
3 49 47 50
3 9 52 53
3 54 55 15
3 8 52 9
3 56 57 51
3 51 50 56
3 7 58 24
3 48 59 60
3 61 60 59
3 60 62 63
3 64 65 16
3 66 16 67
3 61 62 60
3 67 16 28
3 16 66 68
3 69 70 71
3 57 34 31
3 72 73 74
3 27 75 25
3 18 28 76
3 25 75 46
3 71 77 69
3 44 46 75
3 78 79 80
3 57 31 81
3 82 83 84
3 83 85 84
3 86 84 85
3 16 68 64
3 16 87 76
3 28 16 76
3 55 87 16
3 88 89 72
3 90 40 36
3 90 41 40
3 91 92 45
3 91 93 78
3 94 78 93
3 95 81 31
3 80 91 78
3 31 30 95
3 96 45 92
3 97 98 99
3 100 101 102
3 70 69 53
3 93 45 44
3 70 53 52
3 93 91 45
3 71 103 77
3 90 36 20
3 15 55 16
3 54 74 55
3 104 69 105
3 104 53 69
3 106 107 108
3 109 5 36
3 109 36 110
3 77 111 105
3 112 110 40
3 36 40 110
3 69 77 105
3 47 49 108
3 113 4 86
3 83 114 85
3 115 116 117
3 115 117 118
3 4 3 86
3 115 118 119
3 120 109 121
3 109 110 121
3 120 3 109
3 119 107 115
3 5 109 3
3 122 123 42
3 114 123 122
3 82 120 124
3 83 125 123
3 126 127 116
3 84 120 82
3 3 120 84
3 94 61 78
3 86 3 84
3 61 79 78
3 102 124 121
3 93 128 94
3 124 120 121
3 129 100 102
3 102 121 129
3 118 130 7
3 121 110 129
3 2 118 7
3 116 127 131
3 61 94 62
3 112 40 39
3 39 132 112
3 128 133 134
3 134 94 128
3 135 136 132
3 75 27 133
3 117 116 131
3 128 75 133
3 44 75 128
3 117 131 137
3 93 44 128
3 135 132 39
3 131 138 137
3 137 130 117
3 130 118 117
3 139 140 141
3 142 143 144
3 57 81 51
3 74 54 72
3 125 83 82
3 83 123 114
3 95 125 101
3 145 146 126
3 125 82 124
3 54 147 72
3 148 64 149
3 27 144 143
3 107 145 115
3 147 88 72
3 115 145 116
3 150 151 88
3 144 26 152
3 119 108 107
3 153 154 155
3 88 151 89
3 26 156 152
3 156 157 152
3 158 151 150
3 145 107 146
3 159 92 160
3 161 67 92
3 26 144 27
3 108 119 47
3 155 162 153
3 85 163 157
3 145 126 116
3 155 164 162
3 22 67 23
3 157 163 152
3 165 166 67
3 166 96 67
3 162 164 167
3 96 92 67
3 26 25 153
3 168 122 42
3 153 156 26
3 165 67 22
3 168 42 142
3 113 86 157
3 156 113 157
3 142 144 168
3 153 162 156
3 162 113 156
3 168 163 122
3 169 170 171
3 163 114 122
3 167 4 113
3 21 165 22
3 168 144 152
3 162 167 113
3 159 161 92
3 76 172 164
3 168 152 163
3 106 146 107
3 85 114 163
3 49 81 106
3 164 18 76
3 49 51 81
3 157 86 85
3 166 45 96
3 167 6 4
3 106 108 49
3 154 21 17
3 173 174 175
3 169 176 177
3 17 155 154
3 126 146 97
3 100 129 178
3 155 19 164
3 126 97 99
3 17 19 155
3 129 112 178
3 164 19 18
3 127 126 99
3 129 110 112
3 143 133 27
3 154 25 46
3 112 132 178
3 178 132 179
3 21 154 46
3 21 46 43
3 132 136 179
3 154 153 25
3 180 181 182
3 174 173 183
3 179 136 184
3 62 183 63
3 183 134 174
3 62 134 183
3 185 71 70
3 8 186 52
3 187 188 103
3 125 124 101
3 94 134 62
3 123 38 42
3 143 142 175
3 124 102 101
3 189 70 52
3 174 143 175
3 174 134 133
3 186 189 52
3 188 190 103
3 143 174 133
3 182 191 186
3 186 191 189
3 111 77 190
3 185 70 189
3 77 103 190
3 192 6 172
3 193 194 100
3 195 190 196
3 193 197 194
3 177 198 169
3 178 179 193
3 188 196 190
3 193 179 197
3 199 196 188
3 200 171 170
3 201 202 176
3 197 184 203
3 176 202 177
3 197 179 184
3 201 204 202
3 205 202 204
3 206 72 89
3 199 188 207
3 208 209 151
3 76 87 172
3 210 211 212
3 209 89 151
3 167 172 6
3 213 159 160
3 169 214 170
3 167 164 172
3 43 45 166
3 206 209 215
3 166 165 43
3 209 206 89
3 172 87 192
3 208 158 216
3 208 151 158
3 217 161 218
3 219 192 55
3 159 220 161
3 158 221 216
3 220 218 161
3 187 207 188
3 160 80 213
3 160 92 80
3 208 222 209
3 92 91 80
3 158 223 221
3 21 43 165
3 222 208 224
3 208 216 224
3 181 180 141
3 216 225 224
3 199 226 196
3 227 224 225
3 16 176 171
3 228 99 98
3 16 171 200
3 180 221 141
3 98 226 228
3 225 229 227
3 87 55 192
3 215 135 39
3 180 216 221
3 215 222 135
3 230 14 16
3 41 215 39
3 74 73 219
3 206 41 73
3 136 135 231
3 180 182 225
3 73 90 219
3 231 12 136
3 73 41 90
3 180 225 216
3 23 67 28
3 231 224 227
3 55 74 219
3 181 191 182
3 181 232 191
3 72 206 73
3 191 232 233
3 14 234 235
3 229 13 227
3 192 20 6
3 229 186 8
3 235 223 14
3 192 219 20
3 20 219 90
3 182 229 225
3 182 186 229
3 41 206 215
3 209 222 215
3 127 99 228
3 150 14 223
3 147 54 14
3 54 15 14
3 203 11 236
3 88 147 14
3 237 202 205
3 150 88 14
3 238 237 205
3 239 240 238
3 210 236 10
3 231 135 222
3 139 14 241
3 240 237 238
3 210 9 211
3 222 224 231
3 14 230 241
3 190 195 111
3 196 242 195
3 141 234 139
3 9 210 10
3 241 232 140
3 242 98 97
3 231 227 12
3 242 226 98
3 12 227 13
3 211 53 104
3 242 196 226
3 229 8 13
3 16 200 230
3 9 53 211
3 181 141 140
3 8 10 13
3 178 193 100
3 11 10 236
3 140 232 181
3 12 184 136
3 12 11 184
3 243 232 241
3 14 139 234
3 170 243 241
3 184 11 203
3 214 243 170
3 233 232 243
3 200 170 230
3 214 244 245
3 16 201 176
3 214 245 243
3 140 139 241
3 246 80 79
3 235 141 221
3 233 185 189
3 235 234 141
3 240 247 248
3 189 191 233
3 230 170 241
3 233 243 245
3 67 161 217
3 158 150 223
3 235 221 223
3 198 177 249
3 16 65 204
3 197 250 194
3 149 68 251
3 252 214 169
3 249 252 198
3 251 66 217
3 250 197 203
3 203 236 250
3 253 103 71
3 169 198 252
3 236 212 250
3 253 187 103
3 71 185 253
3 177 202 249
3 66 251 68
3 245 253 185
3 67 217 66
3 202 237 249
3 58 7 130
3 249 254 252
3 220 159 246
3 213 246 159
3 245 185 233
3 213 80 246
3 204 65 205
3 255 205 65
3 248 254 249
3 256 251 257
3 258 257 217
3 65 64 255
3 148 255 64
3 258 217 218
3 217 257 251
3 68 149 64
3 258 218 259
3 244 187 253
3 248 249 237
3 16 204 201
3 259 220 260
3 245 244 253
3 248 237 240
3 251 256 149
3 254 244 252
3 176 169 171
3 244 214 252
3 58 256 257
3 187 244 254
3 220 259 218
3 58 257 24
3 254 207 187
3 246 260 220
3 254 248 207
3 261 262 263
3 240 261 247
3 127 262 131
3 264 0 24
3 32 0 264
3 262 138 131
3 24 258 264
3 138 262 261
3 259 264 258
3 261 240 239
3 263 228 226
3 263 262 228
3 264 259 265
3 24 257 258
3 226 199 263
3 59 265 260
3 247 263 199
3 261 263 247
3 265 259 260
3 199 207 247
3 238 255 266
3 248 247 207
3 238 205 255
3 59 79 61
3 228 262 127
3 267 266 148
3 260 79 59
3 246 79 260
3 265 48 32
3 59 48 265
3 265 32 264
3 255 148 266
3 236 210 212
3 267 149 256
3 267 148 149
3 125 95 123
3 239 238 266
3 266 268 239
3 268 266 267
3 101 194 95
3 268 267 269
3 250 95 194
3 269 267 256
3 250 212 95
3 256 58 269
3 101 100 194
3 137 138 268
3 268 138 239
3 212 270 95
3 269 130 137
3 137 268 269
3 58 130 269
3 211 270 212
3 261 239 138
3 270 104 105
3 271 33 48
3 270 272 95
3 63 271 60
3 271 48 60
3 272 270 111
3 105 111 270
3 211 104 270
3 273 56 271
3 56 33 271
3 119 118 2
3 97 95 272
3 272 195 242
3 2 47 119
3 272 111 195
3 50 47 1
3 242 97 272
3 56 50 33
3 97 146 95
3 50 1 33
3 146 106 95
3 106 81 95
3 30 38 95
3 38 123 95
3 35 173 175
3 175 142 37
3 142 42 37
3 274 273 63
3 274 34 273
3 271 63 273
3 183 173 274
3 63 183 274
3 57 56 273
3 273 34 57
3 274 29 34
3 29 173 35
3 274 173 29
3 35 175 37
