ply
format ascii 1.0
comment Created by Blender 2.76 (sub 0) - www.blender.org, source file: ''
element vertex 80
property float x
property float y
property float z
element face 96
property list uchar uint vertex_indices
end_header
0.458110 0.271936 -0.132810
0.308047 -0.074410 -0.172437
0.349172 -0.074246 -0.070801
0.206297 -0.074698 -0.281229
0.283047 -0.115267 -0.363565
0.285235 -0.074545 -0.202860
0.065672 -0.074827 -0.359807
0.107234 -0.115500 -0.467330
0.164110 -0.074688 -0.311564
0.205672 -0.115361 -0.419087
-0.102328 -0.074797 -0.369704
-0.209703 0.271187 -0.456061
-0.197953 -0.074819 -0.335127
-0.211640 -0.113687 0.396301
-0.171953 -0.073493 0.295020
-0.112515 -0.113519 0.442920
-0.072828 -0.073325 0.341640
0.318297 -0.073723 0.202216
0.468672 0.272677 0.249628
0.356172 -0.073892 0.107510
0.165235 0.271234 -0.431729
0.072235 -0.073310 0.356633
0.076172 -0.113421 0.469520
-0.029203 -0.113504 0.462015
0.414610 -0.114906 -0.210074
0.370547 0.273006 0.403399
0.301172 -0.073527 0.232080
0.230610 -0.073489 0.303223
0.316547 -0.113657 0.386404
0.497984 0.272216 0.054403
0.354735 -0.074093 -0.036417
0.360172 -0.073973 0.069739
-0.033203 -0.073401 0.349198
0.036297 -0.074803 -0.366876
-0.021453 0.271130 -0.481666
-0.069140 -0.074896 -0.374311
0.455735 -0.114742 -0.108438
0.464235 -0.114141 0.157022
0.426360 -0.113969 0.251728
-0.073078 -0.115562 -0.494279
0.032297 -0.115471 -0.486844
0.338922 0.271488 -0.307526
-0.170453 0.273153 0.476322
0.470297 -0.114478 -0.033805
0.475797 -0.114350 0.072282
-0.319578 -0.074474 -0.218621
-0.469828 0.271748 -0.199869
-0.353953 -0.074329 -0.122291
-0.428953 -0.114951 -0.271530
0.361985 -0.115114 -0.285196
-0.303328 -0.073810 0.161758
-0.346203 -0.073878 0.060628
-0.453265 0.272609 0.185623
-0.285765 -0.113674 0.345317
-0.361578 -0.113940 0.263823
-0.281140 -0.073708 0.192459
-0.409140 -0.113997 0.194234
-0.451953 -0.114216 0.093087
0.387172 -0.113854 0.315313
0.024547 0.273261 0.524844
-0.151140 -0.115527 -0.483598
-0.359578 -0.073996 0.030066
-0.478890 -0.114599 -0.087703
-0.363203 -0.074275 -0.076038
-0.370578 0.271424 -0.355053
-0.303578 -0.074593 -0.243667
-0.231640 -0.074789 -0.313414
-0.502015 0.272096 -0.002253
-0.316203 -0.115244 -0.405002
-0.475328 -0.114464 0.018314
-0.388203 -0.115203 -0.335272
-0.205328 -0.073435 0.273883
-0.463390 -0.114808 -0.175201
-0.340890 0.272899 0.354876
-0.246765 -0.115398 -0.449004
0.250672 -0.113635 0.426077
0.212797 0.273230 0.500374
0.154297 -0.113463 0.458908
0.107297 -0.073347 0.351467
0.203672 -0.073368 0.318653
3 0 1 2
3 3 4 5
3 6 7 8
3 9 8 7
3 10 11 12
3 13 14 15
3 16 15 14
3 17 18 19
3 8 20 6
3 21 22 23
3 1 24 2
3 25 26 27
3 8 9 20
3 27 28 25
3 29 30 31
3 23 32 21
3 33 34 35
3 0 2 36
3 7 20 9
3 19 37 38
3 19 38 17
3 24 1 0
3 20 7 6
3 38 18 17
3 39 40 35
3 41 3 5
3 16 42 15
3 40 33 35
3 30 29 43
3 30 44 31
3 45 46 47
3 43 44 30
3 37 19 18
3 29 44 43
3 48 45 47
3 4 49 5
3 50 51 52
3 40 34 33
3 53 54 55
3 50 56 57
3 50 57 51
3 27 58 28
3 23 22 59
3 39 34 40
3 59 21 32
3 36 2 24
3 11 10 60
3 52 51 57
3 24 0 36
3 39 35 34
3 61 62 63
3 64 65 66
3 63 67 61
3 68 66 65
3 37 18 38
3 49 41 5
3 62 61 69
3 63 62 67
3 65 70 68
3 44 29 31
3 41 4 3
3 49 4 41
3 25 58 26
3 52 57 56
3 25 28 58
3 56 50 52
3 53 55 71
3 62 69 67
3 13 15 42
3 69 61 67
3 47 72 48
3 42 16 14
3 60 10 12
3 68 64 66
3 13 42 14
3 54 73 55
3 48 72 46
3 73 54 53
3 71 73 53
3 55 73 71
3 46 45 48
3 23 59 32
3 47 46 72
3 64 70 65
3 27 26 58
3 64 68 70
3 11 74 12
3 60 74 11
3 60 12 74
3 75 76 77
3 78 76 79
3 77 78 79
3 79 75 77
3 77 76 78
3 76 75 79
3 21 59 22
